SplineFontDB: 3.0
FontName: Eater-Caps
FullName: Eater-Caps
FamilyName: Eater-Caps
Weight: Book
Copyright: Copyright (c) 2011 by Typomondo. All rights reserved.
Version: 001.001
ItalicAngle: 0
UnderlinePosition: -103
UnderlineWidth: 102
Ascent: 1638
Descent: 410
sfntRevision: 0x00010000
LayerCount: 2
Layer: 0 1 "Back"  1
Layer: 1 1 "Fore"  0
XUID: [1021 14 500265001 2861559]
FSType: 4
OS2Version: 3
OS2_WeightWidthSlopeOnly: 0
OS2_UseTypoMetrics: 1
CreationTime: 1319270622
ModificationTime: 1319271996
PfmFamily: 81
TTFWeight: 400
TTFWidth: 5
LineGap: 0
VLineGap: 0
Panose: 0 0 0 0 0 0 0 0 0 0
OS2TypoAscent: 1260
OS2TypoAOffset: 1
OS2TypoDescent: -509
OS2TypoDOffset: 1
OS2TypoLinegap: 0
OS2WinAscent: 0
OS2WinAOffset: 1
OS2WinDescent: 0
OS2WinDOffset: 1
HheadAscent: 0
HheadAOffset: 1
HheadDescent: 0
HheadDOffset: 1
OS2SubXSize: 1331
OS2SubYSize: 1228
OS2SubXOff: 0
OS2SubYOff: 153
OS2SupXSize: 1331
OS2SupYSize: 1228
OS2SupXOff: 0
OS2SupYOff: 716
OS2StrikeYSize: 102
OS2StrikeYPos: 1137
OS2Vendor: 'typm'
OS2CodePages: 00000001.00000000
OS2UnicodeRanges: 00000003.00000000.00000000.00000000
MarkAttachClasses: 1
DEI: 91125
TtTable: prep
PUSHW_1
 511
SCANCTRL
PUSHB_1
 4
SCANTYPE
EndTTInstrs
ShortTable: maxp 16
  1
  0
  346
  502
  8
  479
  7
  2
  0
  1
  1
  0
  64
  7
  2
  2
EndShort
LangName: 1033 "" "" "Regular" "vernon adams : Eater-Caps : 21-10-2011" "" "" "" "Eater-Caps is a trademark of Typomondo." "Typomondo" "Typomondo" "Copyright (c) 2011 by Typomondo. All rights reserved." "" "" "" "http://scripts.sil.org/OFL" "" "Eater-Caps" "Eater-Caps" 
GaspTable: 1 65535 2
Encoding: UnicodeBmp
UnicodeInterp: none
NameList: Adobe Glyph List
DisplaySize: -96
AntiAlias: 1
FitToEm: 1
WinInfo: 64 8 2
BeginChars: 65540 346

StartChar: exclam
Encoding: 33 33 6
Width: 657
GlyphClass: 2
Flags: W
LayerCount: 2
Fore
SplineSet
222 276 m 1,0,-1
 216 276 l 1,1,-1
 214 270 l 1,2,-1
 222 276 l 1,0,-1
429 545 m 1,3,-1
 433 524 l 1,4,5
 449 473 449 473 470 454.5 c 128,-1,6
 491 436 491 436 527 436 c 1,7,-1
 525 313 l 1,8,9
 490 313 490 313 470 303 c 1,10,11
 481 285 481 285 504 258 c 1,12,-1
 439 207 l 1,13,14
 403 248 403 248 388 248 c 1,15,16
 365 234 365 234 365 190 c 1,17,-1
 261 193 l 1,18,19
 261 220 261 220 234 244 c 1,20,-1
 185 217 l 1,21,-1
 150 268 l 1,22,-1
 173 291 l 1,23,24
 171 291 171 291 171 293 c 1,25,-1
 177 303 l 1,26,-1
 183 299 l 1,27,-1
 185 303 l 1,28,-1
 179 307 l 1,29,30
 199 360 199 360 203 403 c 1,31,32
 201 420 201 420 171 455 c 1,33,-1
 255 541 l 1,34,35
 292 506 292 506 310 506 c 1,36,37
 306 506 306 506 306 528 c 2,38,-1
 306 559 l 1,39,-1
 377 559 l 1,40,41
 380 510 380 510 394 496 c 1,42,-1
 382 532 l 1,43,-1
 429 545 l 1,3,-1
269 1710 m 1,44,-1
 296 1698 l 1,45,46
 353 1671 353 1671 365 1671 c 0,47,48
 372 1671 372 1671 400 1712 c 1,49,-1
 476 1647 l 1,50,-1
 457 1624 l 2,51,52
 450 1615 450 1615 442 1602 c 1,53,-1
 439 1599 l 1,54,55
 439 1592 439 1592 452 1584.5 c 128,-1,56
 465 1577 465 1577 474 1577 c 0,57,58
 488 1577 488 1577 527 1593 c 1,59,-1
 547 1522 l 1,60,61
 511 1510 511 1510 500.5 1500 c 128,-1,62
 490 1490 490 1490 490 1475 c 0,63,64
 484 1352 484 1352 461 1229 c 0,65,66
 451 1172 451 1172 434.5 988.5 c 128,-1,67
 418 805 418 805 390 709 c 1,68,69
 392 707 392 707 408 674 c 1,70,-1
 367 651 l 1,71,-1
 353 672 l 1,72,-1
 336 659 l 1,73,-1
 308 692 l 1,74,-1
 332 715 l 2,75,76
 330 713 330 713 330 715 c 0,77,78
 328 720 328 720 322 730.5 c 128,-1,79
 316 741 316 741 312 749.5 c 128,-1,80
 308 758 308 758 308 762 c 1,81,-1
 281 745 l 1,82,-1
 257 784 l 1,83,84
 277 801 277 801 285 801 c 0,85,86
 287 801 287 801 287 799 c 2,87,-1
 287 827 l 2,88,89
 287 950 287 950 226 1188 c 1,90,-1
 201 1300 l 1,91,-1
 183 1323 l 1,92,93
 182 1328 182 1328 180 1331 c 0,94,95
 179 1332 179 1332 179 1333 c 2,96,-1
 187 1343 l 1,97,98
 164 1410 164 1410 164 1473 c 0,99,100
 164 1499 164 1499 173.5 1528 c 128,-1,101
 183 1557 183 1557 183 1561 c 0,102,103
 183 1575 183 1575 140 1606 c 1,104,-1
 183 1667 l 1,105,106
 219 1636 219 1636 236 1636 c 0,107,108
 258 1636 258 1636 277 1653 c 1,109,-1
 250 1667 l 1,110,-1
 269 1710 l 1,44,-1
EndSplineSet
EndChar

StartChar: quotedbl
Encoding: 34 34 7
Width: 871
GlyphClass: 2
Flags: W
LayerCount: 2
Fore
SplineSet
520 1022 m 1,0,1
 523 1346 523 1346 530 1669 c 1,2,3
 533 1669 533 1669 537.5 1672.5 c 128,-1,4
 542 1676 542 1676 560 1692 c 128,-1,5
 578 1708 578 1708 600 1726 c 1,6,-1
 674 1698 l 1,7,8
 700 1653 700 1653 700 1651 c 0,9,10
 700 1644 700 1644 708.5 1624.5 c 128,-1,11
 717 1605 717 1605 719 1599 c 1,12,13
 719 1585 719 1585 720 1533 c 128,-1,14
 721 1481 721 1481 721 1460 c 1,15,-1
 723 1460 l 1,16,-1
 723 1321 l 2,17,18
 723 1200 723 1200 647 1094 c 1,19,-1
 624 1073 l 1,20,21
 624 1067 624 1067 651 1024 c 1,22,-1
 608 991 l 1,23,24
 601 999 601 999 594 1008.5 c 128,-1,25
 587 1018 587 1018 583.5 1023 c 128,-1,26
 580 1028 580 1028 576 1032 c 128,-1,27
 572 1036 572 1036 569 1036 c 2,28,-1
 520 1022 l 1,0,1
180 1022 m 1,29,30
 183 1346 183 1346 190 1669 c 1,31,32
 193 1669 193 1669 197.5 1672.5 c 128,-1,33
 202 1676 202 1676 220 1692 c 128,-1,34
 238 1708 238 1708 260 1726 c 1,35,-1
 334 1698 l 1,36,37
 360 1653 360 1653 360 1651 c 0,38,39
 360 1644 360 1644 368.5 1624.5 c 128,-1,40
 377 1605 377 1605 379 1599 c 1,41,42
 379 1585 379 1585 380 1533 c 128,-1,43
 381 1481 381 1481 381 1460 c 1,44,-1
 383 1460 l 1,45,-1
 383 1321 l 2,46,47
 383 1200 383 1200 307 1094 c 1,48,49
 270 1061 270 1061 279 1040 c 0,50,51
 281 1036 281 1036 276 1036 c 0,52,53
 273 1036 273 1036 260 1036 c 0,54,55
 243 1036 243 1036 229 1036 c 1,56,-1
 180 1022 l 1,29,30
EndSplineSet
EndChar

StartChar: numbersign
Encoding: 35 35 8
Width: 1639
GlyphClass: 2
Flags: W
LayerCount: 2
Fore
SplineSet
776 362 m 1,0,-1
 762 362 l 1,1,-1
 772 358 l 1,2,-1
 776 362 l 1,0,-1
934 819 m 1,3,-1
 907 811 l 1,4,-1
 942 805 l 2,5,6
 944 805 944 805 944 807 c 128,-1,7
 944 809 944 809 934 819 c 1,3,-1
919 889 m 1,8,-1
 919 907 l 1,9,-1
 915 907 l 1,10,11
 899 938 899 938 899 948 c 2,12,-1
 899 950 l 1,13,-1
 839 950 l 1,14,15
 831 949 831 949 828 946.5 c 128,-1,16
 825 944 825 944 823 934 c 128,-1,17
 821 924 821 924 821 901 c 1,18,-1
 741 901 l 1,19,20
 741 936 741 936 737.5 943 c 128,-1,21
 734 950 734 950 721 950 c 2,22,-1
 719 950 l 1,23,24
 666 913 666 913 651 893 c 1,25,-1
 626 842 l 1,26,-1
 624 836 l 1,27,-1
 616 823 l 1,28,-1
 614 825 l 2,29,30
 614 824 614 824 615 823 c 128,-1,31
 616 822 616 822 616 821 c 1,32,-1
 698 821 l 2,33,34
 827 821 827 821 895 829 c 1,35,36
 900 858 900 858 919 889 c 1,8,-1
1435 821 m 0,37,38
 1435 803 1435 803 1472 803 c 0,39,40
 1480 803 1480 803 1519 811 c 1,41,-1
 1519 748 l 1,42,43
 1459 741 1459 741 1448 735 c 1,44,-1
 1433 717 l 2,45,46
 1427 711 1427 711 1427 707 c 0,47,48
 1427 701 1427 701 1456 662 c 1,49,-1
 1407 618 l 1,50,51
 1373 664 1373 664 1368 664 c 0,52,53
 1364 664 1364 664 1357 662 c 0,54,55
 1252 627 1252 627 1124 627 c 0,56,57
 1094 627 1094 627 1055 630 c 128,-1,58
 1016 633 1016 633 993 633 c 1,59,-1
 977 575 l 1,60,61
 930 415 930 415 858 319 c 1,62,63
 835 294 835 294 835 252 c 2,64,-1
 835 215 l 1,65,-1
 772 215 l 1,66,67
 770 282 770 282 743 315 c 1,68,-1
 708 307 l 1,69,-1
 702 354 l 1,70,71
 716 360 716 360 729 360 c 1,72,-1
 729 362 l 2,73,74
 729 365 729 365 739 395 c 0,75,76
 748 422 748 422 784 517.5 c 128,-1,77
 820 613 820 613 825 637 c 1,78,79
 739 637 739 637 622 627 c 2,80,-1
 575 623 l 1,81,82
 575 619 575 619 565 575 c 1,83,-1
 538 575 l 1,84,-1
 524 524 l 2,85,86
 516 497 516 497 497.5 447 c 128,-1,87
 479 397 479 397 467 358.5 c 128,-1,88
 455 320 455 320 454 293 c 0,89,90
 454 280 454 280 463 231 c 1,91,-1
 374 213 l 1,92,93
 367 245 367 245 352 279 c 128,-1,94
 337 313 337 313 321 313 c 0,95,96
 319 313 319 313 311 311 c 128,-1,97
 303 309 303 309 290.5 307 c 128,-1,98
 278 305 278 305 264 305 c 1,99,-1
 245 365 l 1,100,101
 282 379 282 379 297.5 391.5 c 128,-1,102
 313 404 313 404 319 422 c 1,103,-1
 317 420 l 1,104,105
 322 444 322 444 350 511 c 128,-1,106
 378 578 378 578 385 600 c 1,107,-1
 356 600 l 2,108,109
 327 600 327 600 264 605 c 128,-1,110
 201 610 201 610 180 610 c 0,111,112
 174 610 174 610 159 565 c 1,113,-1
 96 569 l 1,114,115
 112 624 112 624 112 631 c 2,116,-1
 112 633 l 1,117,118
 110 633 110 633 107 635 c 128,-1,119
 104 637 104 637 102 637 c 0,120,121
 92 637 92 637 45 618 c 1,122,-1
 16 674 l 1,123,124
 56 689 56 689 73 700 c 128,-1,125
 90 711 90 711 86.5 715.5 c 128,-1,126
 83 720 83 720 82.5 725 c 128,-1,127
 82 730 82 730 88 733 c 1,128,129
 88 741 88 741 34 788 c 1,130,-1
 92 821 l 1,131,132
 131 788 131 788 137 788 c 1,133,134
 177 803 177 803 235 803 c 2,135,-1
 403 803 l 1,136,137
 408 805 408 805 438 823 c 2,138,-1
 473 844 l 1,139,-1
 489 887 l 2,140,141
 499 916 499 916 506 930 c 1,142,143
 501 930 501 930 499 932 c 1,144,-1
 329 932 l 2,145,146
 328 932 328 932 326 932 c 0,147,148
 318 932 318 932 313.5 931 c 128,-1,149
 309 930 309 930 302.5 925.5 c 128,-1,150
 296 921 296 921 291 909 c 128,-1,151
 286 897 286 897 282 877 c 1,152,-1
 221 881 l 1,153,154
 221 892 221 892 222 905 c 128,-1,155
 223 918 223 918 224 926.5 c 128,-1,156
 225 935 225 935 225 936 c 0,157,158
 225 938 225 938 222 942 c 128,-1,159
 219 946 219 946 211.5 950 c 128,-1,160
 204 954 204 954 194 954 c 0,161,162
 177 954 177 954 135 936 c 1,163,-1
 106 995 l 1,164,165
 170 1013 170 1013 182 1036 c 1,166,-1
 190 1055 l 1,167,168
 198 1083 198 1083 198 1087 c 0,169,170
 198 1099 198 1099 166 1153 c 1,171,-1
 233 1190 l 1,172,173
 270 1137 270 1137 301 1137 c 2,174,-1
 561 1137 l 1,175,176
 582 1172 582 1172 625 1303 c 128,-1,177
 668 1434 668 1434 719 1489 c 1,178,179
 729 1502 729 1502 729 1567 c 1,180,-1
 782 1567 l 1,181,182
 784 1544 784 1544 784 1518 c 0,183,184
 784 1499 784 1499 780 1499 c 1,185,-1
 800 1481 l 1,186,187
 804 1481 804 1481 866 1507 c 1,188,-1
 870 1446 l 1,189,-1
 825 1427 l 1,190,-1
 825 1401 l 2,191,192
 825 1341 825 1341 768 1193 c 0,193,194
 767 1190 767 1190 766 1188 c 128,-1,195
 765 1186 765 1186 764 1183 c 128,-1,196
 763 1180 763 1180 762 1178 c 1,197,-1
 762 1180 l 1,198,199
 758 1170 758 1170 754 1165 c 128,-1,200
 750 1160 750 1160 747 1151 c 1,201,202
 766 1151 766 1151 806 1144 c 128,-1,203
 846 1137 846 1137 866 1137 c 0,204,205
 975 1137 975 1137 1011 1155 c 1,206,-1
 1118 1436 l 1,207,208
 1124 1466 1124 1466 1124 1473 c 0,209,210
 1124 1498 1124 1498 1108 1542 c 1,211,-1
 1169 1565 l 1,212,213
 1196 1490 1196 1490 1222 1473 c 1,214,-1
 1243 1464 l 1,215,216
 1246 1465 1246 1465 1250 1467.5 c 128,-1,217
 1254 1470 1254 1470 1264 1476 c 128,-1,218
 1274 1482 1274 1482 1284 1487 c 1,219,-1
 1308 1448 l 1,220,221
 1263 1418 1263 1418 1263 1417 c 0,222,223
 1242 1380 1242 1380 1221 1285 c 128,-1,224
 1200 1190 1200 1190 1190 1159 c 1,225,226
 1203 1159 1203 1159 1228.5 1156 c 128,-1,227
 1254 1153 1254 1153 1267 1153 c 0,228,229
 1347 1153 1347 1153 1385.5 1167 c 128,-1,230
 1424 1181 1424 1181 1441 1225 c 1,231,-1
 1540 1188 l 1,232,233
 1533 1170 1533 1170 1530 1155.5 c 128,-1,234
 1527 1141 1527 1141 1526 1135.5 c 128,-1,235
 1525 1130 1525 1130 1521 1128 c 1,236,237
 1543 1128 1543 1128 1583 1143 c 1,238,-1
 1587 1083 l 1,239,-1
 1564 1075 l 1,240,-1
 1566 1073 l 1,241,-1
 1558 1065 l 1,242,-1
 1562 1012 l 1,243,-1
 1525 1049 l 1,244,-1
 1519 1032 l 1,245,246
 1519 1019 1519 1019 1560 983 c 1,247,-1
 1509 934 l 1,248,249
 1475 973 1475 973 1462 973 c 0,250,251
 1443 973 1443 973 1405.5 962.5 c 128,-1,252
 1368 952 1368 952 1347 952 c 0,253,254
 1337 952 1337 952 1316 953 c 128,-1,255
 1295 954 1295 954 1286 954 c 2,256,-1
 1228 954 l 2,257,258
 1154 954 1154 954 1104 940 c 1,259,-1
 1063 836 l 1,260,-1
 1300 836 l 2,261,262
 1315 836 1315 836 1343 840 c 0,263,264
 1346 840 1346 840 1353 838 c 128,-1,265
 1360 836 1360 836 1363 838 c 128,-1,266
 1366 840 1366 840 1373.5 852 c 128,-1,267
 1381 864 1381 864 1392 891 c 1,268,-1
 1456 887 l 1,269,270
 1435 834 1435 834 1435 821 c 0,37,38
EndSplineSet
EndChar

StartChar: dollar
Encoding: 36 36 9
Width: 1190
GlyphClass: 2
Flags: W
LayerCount: 2
Fore
SplineSet
566 274 m 1,0,-1
 560 274 l 2,1,2
 557 274 557 274 550 262 c 1,3,-1
 562 242 l 1,4,-1
 566 274 l 1,0,-1
378 1391 m 1,5,-1
 376 1360 l 1,6,-1
 386 1329 l 1,7,-1
 384 1331 l 1,8,-1
 390 1311 l 1,9,-1
 390 1315 l 1,10,11
 418 1214 418 1214 542 1159 c 1,12,-1
 542 1180 l 2,13,14
 542 1204 542 1204 545 1252 c 128,-1,15
 548 1300 548 1300 548 1327 c 0,16,17
 548 1333 548 1333 547 1343.5 c 128,-1,18
 546 1354 546 1354 546 1360 c 2,19,-1
 546 1458 l 2,20,21
 546 1468 546 1468 547 1490 c 128,-1,22
 548 1512 548 1512 548 1522 c 2,23,-1
 548 1573 l 1,24,-1
 468 1556 l 2,25,26
 456 1553 456 1553 420 1505.5 c 128,-1,27
 384 1458 384 1458 380 1446 c 0,28,29
 378 1440 378 1440 378 1405 c 2,30,-1
 378 1391 l 1,5,-1
666 362 m 2,31,32
 666 359 666 359 671 324 c 1,33,34
 722 339 722 339 743.5 351 c 128,-1,35
 765 363 765 363 810 406 c 1,36,-1
 810 403 l 1,37,-1
 845 438 l 1,38,-1
 845 436 l 1,39,-1
 857 475 l 2,40,41
 859 483 859 483 863 501 c 128,-1,42
 867 519 867 519 871 530 c 128,-1,43
 875 541 875 541 882 549 c 1,44,45
 872 616 872 616 864 649 c 128,-1,46
 856 682 856 682 842 701 c 128,-1,47
 828 720 828 720 814.5 727.5 c 128,-1,48
 801 735 801 735 769 758 c 128,-1,49
 737 781 737 781 703 815 c 1,50,-1
 705 815 l 1,51,52
 690 820 690 820 679 823 c 1,53,-1
 673 784 l 1,54,55
 666 749 666 749 666 727 c 2,56,-1
 666 362 l 2,31,32
208 1427 m 2,57,58
 209 1429 209 1429 216.5 1449 c 128,-1,59
 224 1469 224 1469 224 1475 c 0,60,61
 224 1488 224 1488 181 1516 c 1,62,-1
 226 1579 l 1,63,64
 265 1550 265 1550 273 1550 c 0,65,66
 288 1550 288 1550 326.5 1584.5 c 128,-1,67
 365 1619 365 1619 365 1642 c 0,68,69
 365 1656 365 1656 345 1692 c 1,70,-1
 415 1729 l 1,71,72
 432 1697 432 1697 441 1687 c 128,-1,73
 450 1677 450 1677 462 1677 c 0,74,75
 466 1677 466 1677 470 1679 c 1,76,-1
 537 1690 l 1,77,78
 537 1692 537 1692 537.5 1696 c 128,-1,79
 538 1700 538 1700 537.5 1702.5 c 128,-1,80
 537 1705 537 1705 536 1709 c 128,-1,81
 535 1713 535 1713 531.5 1717 c 128,-1,82
 528 1721 528 1721 522 1725.5 c 128,-1,83
 516 1730 516 1730 506 1735.5 c 128,-1,84
 496 1741 496 1741 482 1747 c 1,85,-1
 486 1812 l 1,86,87
 537 1792 537 1792 554 1792 c 0,88,89
 562 1792 562 1792 568 1798 c 1,90,-1
 566 1798 l 1,91,92
 573 1807 573 1807 576 1811 c 128,-1,93
 579 1815 579 1815 582.5 1833.5 c 128,-1,94
 586 1852 586 1852 587 1882 c 1,95,-1
 648 1882 l 1,96,-1
 648 1839 l 2,97,98
 648 1808 648 1808 660 1794 c 1,99,-1
 658 1794 l 1,100,101
 663 1786 663 1786 675 1786 c 0,102,103
 682 1786 682 1786 728 1800 c 1,104,-1
 750 1739 l 1,105,106
 711 1726 711 1726 702 1716 c 128,-1,107
 693 1706 693 1706 693 1686 c 2,108,-1
 693 1679 l 1,109,110
 782 1653 782 1653 890 1579 c 1,111,112
 911 1616 911 1616 934.5 1647.5 c 128,-1,113
 958 1679 958 1679 968 1679 c 0,114,115
 989 1679 989 1679 1001 1641 c 128,-1,116
 1013 1603 1013 1603 1013 1581 c 0,117,118
 1013 1539 1013 1539 1009.5 1482.5 c 128,-1,119
 1006 1426 1006 1426 998 1359 c 128,-1,120
 990 1292 990 1292 973.5 1247 c 128,-1,121
 957 1202 957 1202 935 1202 c 0,122,123
 900 1202 900 1202 841 1358 c 1,124,125
 810 1435 810 1435 782.5 1477 c 128,-1,126
 755 1519 755 1519 736.5 1532.5 c 128,-1,127
 718 1546 718 1546 673 1569 c 1,128,-1
 673 1251 l 2,129,130
 673 1175 673 1175 687 1112 c 1,131,132
 813 1082 813 1082 900 1001 c 128,-1,133
 987 920 987 920 1026.5 813 c 128,-1,134
 1066 706 1066 706 1066 578 c 0,135,136
 1066 490 1066 490 1003.5 408 c 128,-1,137
 941 326 941 326 851 277.5 c 128,-1,138
 761 229 761 229 673 221 c 1,139,140
 677 189 677 189 677 184 c 0,141,142
 677 168 677 168 662.5 146 c 128,-1,143
 648 124 648 124 648 117 c 0,144,145
 648 102 648 102 658 51 c 1,146,-1
 601 49 l 1,147,148
 588 98 588 98 585.5 103 c 128,-1,149
 583 108 583 108 570 115 c 1,150,151
 561 115 561 115 499 80 c 1,152,-1
 494 145 l 1,153,154
 536 167 536 167 540 172 c 1,155,-1
 540 182 l 2,156,157
 540 184 540 184 541 189 c 128,-1,158
 542 194 542 194 542 195 c 0,159,160
 542 197 542 197 541 201.5 c 128,-1,161
 540 206 540 206 540 209 c 2,162,-1
 540 213 l 1,163,-1
 511 223 l 1,164,-1
 513 231 l 1,165,166
 399 238 399 238 271 295 c 1,167,-1
 267 295 l 2,168,169
 257 295 257 295 245 299 c 1,170,171
 233 295 233 295 206 266 c 1,172,-1
 152 317 l 1,173,174
 179 341 179 341 185 356 c 1,175,-1
 181 373 l 1,176,-1
 144 365 l 1,177,-1
 132 408 l 1,178,179
 158 420 158 420 167 420 c 2,180,-1
 169 420 l 1,181,182
 173 437 173 437 189 537 c 0,183,184
 193 565 193 565 215 657.5 c 128,-1,185
 237 750 237 750 241 834 c 1,186,-1
 302 834 l 1,187,188
 294 795 294 795 294 784 c 0,189,190
 293 770 293 770 294.5 756.5 c 128,-1,191
 296 743 296 743 299.5 726 c 128,-1,192
 303 709 303 709 304 702 c 2,193,-1
 318 621 l 2,194,195
 319 615 319 615 322 602 c 0,196,197
 343 495 343 495 367 452 c 0,198,199
 414 370 414 370 544 326 c 1,200,-1
 544 387 l 2,201,202
 544 403 544 403 545 433.5 c 128,-1,203
 546 464 546 464 546 479 c 0,204,205
 546 509 546 509 545 570 c 128,-1,206
 544 631 544 631 544 662 c 2,207,-1
 544 848 l 1,208,209
 542 873 542 873 447 913 c 0,210,211
 332 962 332 962 254.5 1074 c 128,-1,212
 177 1186 177 1186 177 1313 c 0,213,214
 177 1347 177 1347 210 1430 c 1,215,-1
 208 1427 l 2,57,58
EndSplineSet
EndChar

StartChar: percent
Encoding: 37 37 10
Width: 1495
GlyphClass: 2
Flags: W
LayerCount: 2
Fore
SplineSet
1169 698 m 1,0,-1
 1128 698 l 1,1,-1
 1114 676 l 1,2,-1
 1083 694 l 1,3,4
 1056 672 1056 672 1022 662 c 1,5,6
 998 629 998 629 974.5 575.5 c 128,-1,7
 951 522 951 522 948 489 c 1,8,-1
 963 436 l 1,9,10
 972 428 972 428 979.5 420.5 c 128,-1,11
 987 413 987 413 995 404.5 c 128,-1,12
 1003 396 1003 396 1008 391 c 1,13,-1
 1006 391 l 1,14,-1
 1034 360 l 1,15,-1
 1063 348 l 1,16,-1
 1067 348 l 1,17,-1
 1067 367 l 1,18,-1
 1112 367 l 1,19,-1
 1112 336 l 1,20,21
 1120 332 1120 332 1128 332 c 1,22,23
 1157 345 1157 345 1180 351.5 c 128,-1,24
 1203 358 1203 358 1211.5 360.5 c 128,-1,25
 1220 363 1220 363 1237.5 374 c 128,-1,26
 1255 385 1255 385 1286 410 c 1,27,28
 1300 454 1300 454 1313 489 c 1,29,-1
 1311 487 l 1,30,31
 1312 490 1312 490 1316 499 c 128,-1,32
 1320 508 1320 508 1321 512 c 1,33,34
 1317 516 1317 516 1317 524 c 1,35,-1
 1313 543 l 1,36,37
 1282 617 1282 617 1267 636 c 0,38,39
 1239 669 1239 669 1169 698 c 1,0,-1
416 1253 m 1,40,-1
 330 1253 l 1,41,42
 258 1217 258 1217 246 1214 c 1,43,44
 223 1184 223 1184 204.5 1130.5 c 128,-1,45
 186 1077 186 1077 186 1040 c 0,46,47
 186 1032 186 1032 187.5 1024.5 c 128,-1,48
 189 1017 189 1017 193 1008.5 c 128,-1,49
 197 1000 197 1000 200.5 993.5 c 128,-1,50
 204 987 204 987 211 977.5 c 128,-1,51
 218 968 218 968 221.5 963 c 128,-1,52
 225 958 225 958 234.5 948 c 128,-1,53
 244 938 244 938 247 935 c 128,-1,54
 250 932 250 932 260.5 921 c 128,-1,55
 271 910 271 910 272 909 c 2,56,-1
 305 895 l 2,57,58
 346 877 346 877 385 877 c 0,59,60
 402 877 402 877 451 904.5 c 128,-1,61
 500 932 500 932 514 948 c 1,62,63
 525 958 525 958 542 998.5 c 128,-1,64
 559 1039 559 1039 559 1055 c 0,65,66
 559 1121 559 1121 489 1221 c 1,67,-1
 416 1253 l 1,40,-1
430 213 m 1,68,-1
 406 176 l 1,69,-1
 406 174 l 1,70,71
 401 176 401 176 399 178 c 1,72,-1
 408 195 l 1,73,-1
 397 180 l 1,74,75
 335 217 335 217 299 217 c 0,76,77
 279 217 279 217 246 205 c 1,78,-1
 217 307 l 1,79,80
 257 315 257 315 281 326 c 1,81,-1
 252 350 l 1,82,-1
 287 414 l 1,83,84
 323 385 323 385 338 385 c 1,85,-1
 322 369 l 1,86,-1
 352 369 l 1,87,-1
 338 385 l 1,88,89
 342 385 342 385 352 395 c 0,90,91
 445 484 445 484 544.5 615.5 c 128,-1,92
 644 747 644 747 750 896 c 128,-1,93
 856 1045 856 1045 936 1137 c 1,94,-1
 1061 1292 l 1,95,96
 1069 1300 1069 1300 1069 1305 c 0,97,98
 1069 1324 1069 1324 1055 1372 c 1,99,-1
 1112 1376 l 1,100,101
 1115 1365 1115 1365 1117 1357 c 128,-1,102
 1119 1349 1119 1349 1121 1343 c 128,-1,103
 1123 1337 1123 1337 1124 1333 c 128,-1,104
 1125 1329 1125 1329 1126 1326 c 128,-1,105
 1127 1323 1127 1323 1127.5 1321.5 c 128,-1,106
 1128 1320 1128 1320 1128.5 1319.5 c 128,-1,107
 1129 1319 1129 1319 1130 1319 c 2,108,-1
 1131 1319 l 1,109,-1
 1139 1319 l 2,110,111
 1164 1319 1164 1319 1221 1341 c 1,112,-1
 1225 1274 l 1,113,114
 1162 1253 1162 1253 1139 1217 c 0,115,116
 1081 1130 1081 1130 923.5 928.5 c 128,-1,117
 766 727 766 727 646 571.5 c 128,-1,118
 526 416 526 416 526 397 c 0,119,120
 526 391 526 391 521 381.5 c 128,-1,121
 516 372 516 372 506.5 360 c 128,-1,122
 497 348 497 348 487.5 336.5 c 128,-1,123
 478 325 478 325 463 309.5 c 128,-1,124
 448 294 448 294 438 284 c 128,-1,125
 428 274 428 274 412.5 259 c 128,-1,126
 397 244 397 244 391 238 c 1,127,-1
 424 219 l 1,128,-1
 422 217 l 1,129,-1
 430 213 l 1,68,-1
1438 494 m 0,130,131
 1438 432 1438 432 1389.5 364 c 128,-1,132
 1341 296 1341 296 1271 251.5 c 128,-1,133
 1201 207 1201 207 1141 207 c 0,134,135
 1017 207 1017 207 919 293 c 128,-1,136
 821 379 821 379 821 504 c 0,137,138
 821 513 821 513 852 616 c 1,139,140
 898 730 898 730 959.5 779.5 c 128,-1,141
 1021 829 1021 829 1141 829 c 0,142,143
 1223 829 1223 829 1293 778 c 128,-1,144
 1363 727 1363 727 1400.5 650 c 128,-1,145
 1438 573 1438 573 1438 494 c 0,130,131
674 1047 m 0,146,147
 674 985 674 985 628.5 918 c 128,-1,148
 583 851 583 851 515 806.5 c 128,-1,149
 447 762 447 762 385 762 c 0,150,151
 252 762 252 762 160 841.5 c 128,-1,152
 68 921 68 921 68 1055 c 0,153,154
 68 1153 68 1153 112 1228.5 c 128,-1,155
 156 1304 156 1304 233 1343 c 0,156,157
 249 1352 249 1352 258 1358.5 c 128,-1,158
 267 1365 267 1365 274 1377.5 c 128,-1,159
 281 1390 281 1390 281 1407 c 0,160,161
 281 1408 281 1408 280 1422 c 128,-1,162
 279 1436 279 1436 279 1438 c 1,163,-1
 371 1442 l 1,164,165
 375 1405 375 1405 390.5 1388.5 c 128,-1,166
 406 1372 406 1372 438 1362 c 1,167,-1
 436 1364 l 1,168,169
 469 1355 469 1355 495.5 1344 c 128,-1,170
 522 1333 522 1333 557 1308 c 128,-1,171
 592 1283 592 1283 616 1251 c 128,-1,172
 640 1219 640 1219 657 1166 c 128,-1,173
 674 1113 674 1113 674 1047 c 0,146,147
EndSplineSet
EndChar

StartChar: ampersand
Encoding: 38 38 11
Width: 1065
GlyphClass: 2
Flags: W
LayerCount: 2
Fore
SplineSet
451 322 m 1,0,1
 450 324 450 324 449 329 c 128,-1,2
 448 334 448 334 446.5 337.5 c 128,-1,3
 445 341 445 341 442 344 c 128,-1,4
 439 347 439 347 435 347 c 0,5,6
 427 347 427 347 388 339 c 1,7,-1
 386 410 l 1,8,9
 429 415 429 415 437 423 c 1,10,-1
 437 466 l 2,11,12
 437 473 437 473 438 487 c 128,-1,13
 439 501 439 501 439 509 c 0,14,15
 439 524 439 524 435 562 c 1,16,-1
 419 580 l 1,17,18
 375 580 375 580 293.5 578 c 128,-1,19
 212 576 212 576 169 576 c 1,20,-1
 169 564 l 1,21,-1
 152 564 l 1,22,-1
 124 533 l 1,23,-1
 72 560 l 1,24,25
 112 614 112 614 117 632 c 1,26,27
 104 695 104 695 50 734 c 1,28,-1
 109 818 l 1,29,30
 125 804 125 804 156 787 c 1,31,-1
 156 822 l 1,32,-1
 226 824 l 1,33,34
 229 784 229 784 236 773 c 1,35,-1
 234 773 l 1,36,37
 240 765 240 765 318 765 c 0,38,39
 343 765 343 765 360 767 c 128,-1,40
 377 769 377 769 388.5 776 c 128,-1,41
 400 783 400 783 404 785.5 c 128,-1,42
 408 788 408 788 415.5 798.5 c 128,-1,43
 423 809 423 809 423 810 c 2,44,-1
 423 808 l 1,45,-1
 435 830 l 1,46,47
 433 832 433 832 433 834 c 0,48,49
 430 872 430 872 430 915 c 1,50,-1
 424 930 l 1,51,-1
 422 944 l 1,52,-1
 421 956 l 1,53,-1
 388 979 l 1,54,55
 447 1061 447 1061 451 1157 c 1,56,-1
 548 1157 l 1,57,58
 548 1124 548 1124 553 1082 c 128,-1,59
 558 1040 558 1040 570 1040 c 0,60,61
 584 1040 584 1040 623 1057 c 1,62,-1
 644 983 l 1,63,64
 608 970 608 970 599.5 961 c 128,-1,65
 591 952 591 952 591 934 c 2,66,-1
 588 777 l 1,67,68
 610 777 610 777 654.5 779 c 128,-1,69
 699 781 699 781 718 781 c 0,70,71
 722 781 722 781 732 780 c 128,-1,72
 742 779 742 779 748 779 c 2,73,-1
 781 779 l 2,74,75
 874 779 874 779 939 832 c 1,76,-1
 1000 750 l 1,77,78
 950 711 950 711 928 650 c 1,79,80
 945 621 945 621 965 601 c 1,81,-1
 926 545 l 1,82,83
 917 552 917 552 903.5 563.5 c 128,-1,84
 890 575 890 575 885 579.5 c 128,-1,85
 880 584 880 584 871 587.5 c 128,-1,86
 862 591 862 591 853 591 c 0,87,88
 838 591 838 591 803 586.5 c 128,-1,89
 768 582 768 582 728 582 c 2,90,-1
 687 582 l 2,91,92
 682 582 682 582 667 583 c 128,-1,93
 652 584 652 584 644 584 c 0,94,95
 605 584 605 584 586 582 c 1,96,97
 586 564 586 564 585 527 c 128,-1,98
 584 490 584 490 584 472 c 2,99,-1
 584 429 l 2,100,101
 584 358 584 358 570 310 c 1,102,-1
 570 314 l 1,103,104
 568 312 568 312 568 304 c 0,105,106
 568 292 568 292 578 277 c 1,107,-1
 575 196 l 1,108,109
 572 196 572 196 567 166 c 1,110,-1
 437 163 l 1,111,112
 437 184 437 184 431 187 c 0,113,114
 431 188 431 188 424.5 201.5 c 128,-1,115
 418 215 418 215 417 222 c 1,116,-1
 449 244 l 1,117,-1
 449 296 l 1,118,-1
 451 322 l 1,0,1
EndSplineSet
EndChar

StartChar: quotesingle
Encoding: 39 39 12
Width: 532
GlyphClass: 2
Flags: W
LayerCount: 2
Fore
SplineSet
181 1022 m 1,0,1
 184 1346 184 1346 191 1669 c 1,2,3
 194 1669 194 1669 198.5 1672.5 c 128,-1,4
 203 1676 203 1676 221 1692 c 128,-1,5
 239 1708 239 1708 261 1726 c 1,6,-1
 335 1698 l 1,7,8
 361 1653 361 1653 361 1651 c 0,9,10
 361 1644 361 1644 369.5 1624.5 c 128,-1,11
 378 1605 378 1605 380 1599 c 1,12,13
 380 1585 380 1585 381 1533 c 128,-1,14
 382 1481 382 1481 382 1460 c 1,15,-1
 384 1460 l 1,16,-1
 384 1321 l 2,17,18
 384 1200 384 1200 308 1094 c 1,19,-1
 285 1073 l 1,20,21
 285 1067 285 1067 312 1024 c 1,22,-1
 269 991 l 1,23,24
 262 999 262 999 255 1008.5 c 128,-1,25
 248 1018 248 1018 244.5 1023 c 128,-1,26
 241 1028 241 1028 237 1032 c 128,-1,27
 233 1036 233 1036 230 1036 c 2,28,-1
 181 1022 l 1,0,1
EndSplineSet
EndChar

StartChar: parenleft
Encoding: 40 40 13
Width: 626
GlyphClass: 2
Flags: W
LayerCount: 2
Fore
SplineSet
353 1425 m 1,0,-1
 361 1434 l 1,1,-1
 361 1432 l 1,2,-1
 398 1491 l 1,3,4
 396 1493 396 1493 392 1495 c 1,5,-1
 364 1520 l 1,6,-1
 425 1591 l 1,7,8
 449 1567 449 1567 460 1552 c 1,9,10
 513 1595 513 1595 572 1595 c 2,11,-1
 581 1595 l 1,12,-1
 615 1620 l 1,13,-1
 644 1583 l 1,14,15
 634 1575 634 1575 626 1568 c 128,-1,16
 618 1561 618 1561 615 1558.5 c 128,-1,17
 612 1556 612 1556 611 1556 c 0,18,19
 606 1531 606 1531 577 1488 c 128,-1,20
 548 1445 548 1445 509.5 1396.5 c 128,-1,21
 471 1348 471 1348 427 1278 c 128,-1,22
 383 1208 383 1208 346.5 1134 c 128,-1,23
 310 1060 310 1060 285.5 960.5 c 128,-1,24
 261 861 261 861 261 758 c 0,25,26
 261 493 261 493 315 300.5 c 128,-1,27
 369 108 369 108 515 -66 c 0,28,29
 524 -78 524 -78 534 -78 c 0,30,31
 546 -78 546 -78 583 -63 c 1,32,-1
 609 -129 l 1,33,34
 573 -144 573 -144 563.5 -152.5 c 128,-1,35
 554 -161 554 -161 554 -174 c 2,36,-1
 554 -184 l 2,37,38
 554 -209 554 -209 595 -279 c 1,39,-1
 531 -283 l 1,40,41
 508 -242 508 -242 497 -228.5 c 128,-1,42
 486 -215 486 -215 478 -215 c 0,43,44
 471 -215 471 -215 435 -248 c 1,45,-1
 382 -195 l 1,46,47
 419 -163 419 -163 419 -152 c 0,48,49
 419 -151 419 -151 418 -149 c 128,-1,50
 417 -147 417 -147 415 -143.5 c 128,-1,51
 413 -140 413 -140 411 -137 c 0,52,53
 380 -75 380 -75 319.5 27 c 128,-1,54
 259 129 259 129 224 192.5 c 128,-1,55
 189 256 189 256 159.5 356 c 128,-1,56
 130 456 130 456 130 559 c 2,57,-1
 130 604 l 2,58,59
 130 608 130 608 110 647 c 1,60,-1
 136 653 l 1,61,-1
 136 698 l 2,62,63
 136 875 136 875 195 1066 c 128,-1,64
 254 1257 254 1257 355 1423 c 1,65,-1
 353 1425 l 1,0,-1
EndSplineSet
EndChar

StartChar: parenright
Encoding: 41 41 14
Width: 639
GlyphClass: 2
Flags: W
LayerCount: 2
Fore
SplineSet
-17 -231 m 1,0,-1
 -13 -215 l 1,1,-1
 -66 -236 l 1,2,-1
 -68 -180 l 1,3,4
 -40 -168 -40 -168 -27 -168 c 2,5,-1
 -23 -168 l 1,6,7
 -47 -152 -47 -152 -82 -135 c 1,8,-1
 -45 -76 l 1,9,10
 -3 -90 -3 -90 6 -90 c 0,11,12
 20 -90 20 -90 43 -72 c 0,13,14
 116 -13 116 -13 176 106.5 c 128,-1,15
 236 226 236 226 270.5 359 c 128,-1,16
 305 492 305 492 323.5 616 c 128,-1,17
 342 740 342 740 342 831 c 1,18,19
 343 845 343 845 340 867 c 128,-1,20
 337 889 337 889 332 920 c 128,-1,21
 327 951 327 951 325 973 c 2,22,-1
 319 1026 l 2,23,24
 318 1037 318 1037 312.5 1070 c 128,-1,25
 307 1103 307 1103 304.5 1126 c 128,-1,26
 302 1149 302 1149 303 1167 c 1,27,28
 290 1184 290 1184 277.5 1204.5 c 128,-1,29
 265 1225 265 1225 247 1257.5 c 128,-1,30
 229 1290 229 1290 223 1300 c 2,31,-1
 198 1341 l 2,32,33
 185 1362 185 1362 161 1396 c 128,-1,34
 137 1430 137 1430 123.5 1450.5 c 128,-1,35
 110 1471 110 1471 99 1500 c 128,-1,36
 88 1529 88 1529 88 1556 c 1,37,-1
 90 1581 l 2,38,39
 90 1588 90 1588 69 1636 c 1,40,-1
 110 1657 l 1,41,42
 128 1627 128 1627 140 1613 c 128,-1,43
 152 1599 152 1599 153.5 1599 c 128,-1,44
 155 1599 155 1599 161 1599 c 0,45,46
 170 1599 170 1599 202 1634 c 1,47,-1
 258 1593 l 1,48,49
 221 1555 221 1555 221 1546 c 0,50,51
 221 1541 221 1541 227 1532 c 2,52,-1
 254 1491 l 1,53,-1
 254 1493 l 1,54,55
 306 1414 306 1414 330.5 1374 c 128,-1,56
 355 1334 355 1334 392.5 1262.5 c 128,-1,57
 430 1191 430 1191 447 1136 c 128,-1,58
 464 1081 464 1081 477.5 1004 c 128,-1,59
 491 927 491 927 491 844 c 2,60,-1
 491 633 l 2,61,62
 491 629 491 629 453.5 469.5 c 128,-1,63
 416 310 416 310 413 301 c 0,64,65
 373 208 373 208 346.5 151.5 c 128,-1,66
 320 95 320 95 277.5 23.5 c 128,-1,67
 235 -48 235 -48 183 -105 c 128,-1,68
 131 -162 131 -162 65 -211 c 1,69,-1
 71 -240 l 1,70,-1
 26 -254 l 1,71,-1
 26 -250 l 2,72,73
 26 -251 26 -251 24 -256 c 128,-1,74
 22 -261 22 -261 20 -264 c 1,75,-1
 -21 -254 l 1,76,-1
 -17 -231 l 1,0,-1
EndSplineSet
EndChar

StartChar: asterisk
Encoding: 42 42 15
Width: 1052
GlyphClass: 2
Flags: W
LayerCount: 2
Fore
SplineSet
427 801 m 1,0,-1
 397 844 l 1,1,-1
 392 938 l 1,2,3
 419 939 419 939 429.5 959.5 c 128,-1,4
 440 980 440 980 442 1020 c 1,5,-1
 444 1020 l 1,6,7
 447 1053 447 1053 470 1133 c 1,8,9
 467 1136 467 1136 464 1143 c 1,10,-1
 401 1094 l 2,11,12
 325 1035 325 1035 245 1006 c 1,13,14
 237 1002 237 1002 225 948 c 1,15,-1
 165 950 l 1,16,17
 182 1008 182 1008 182 1018 c 2,18,-1
 182 1022 l 1,19,-1
 179 1022 l 2,20,21
 177 1022 177 1022 175 1026 c 1,22,-1
 165 1026 l 1,23,24
 139 1022 139 1022 110 1022 c 1,25,-1
 108 1077 l 1,26,27
 119 1079 119 1079 128 1080.5 c 128,-1,28
 137 1082 137 1082 142.5 1082.5 c 128,-1,29
 148 1083 148 1083 152.5 1084 c 128,-1,30
 157 1085 157 1085 159.5 1085.5 c 128,-1,31
 162 1086 162 1086 163.5 1086.5 c 128,-1,32
 165 1087 165 1087 166 1087 c 2,33,-1
 167 1087 l 1,34,-1
 188 1124 l 1,35,36
 204 1150 204 1150 204 1159 c 0,37,38
 204 1171 204 1171 173 1217 c 1,39,-1
 251 1260 l 1,40,41
 278 1212 278 1212 309 1212 c 0,42,43
 331 1212 331 1212 338 1212.5 c 128,-1,44
 345 1213 345 1213 359 1216 c 128,-1,45
 373 1219 373 1219 384 1227 c 128,-1,46
 395 1235 395 1235 411 1249 c 1,47,48
 403 1255 403 1255 392 1268 c 1,49,-1
 335 1290 l 1,50,-1
 337 1290 l 1,51,52
 282 1311 282 1311 266 1311 c 0,53,54
 246 1311 246 1311 206 1282 c 1,55,-1
 143 1356 l 1,56,57
 184 1388 184 1388 184 1411 c 0,58,59
 184 1428 184 1428 118 1448 c 1,60,-1
 147 1530 l 1,61,62
 180 1516 180 1516 204 1516 c 1,63,-1
 204 1569 l 1,64,-1
 276 1569 l 1,65,-1
 276 1534 l 1,66,-1
 294 1509 l 1,67,-1
 288 1503 l 1,68,-1
 304 1489 l 1,69,-1
 304 1491 l 1,70,71
 380 1451 380 1451 468 1358 c 1,72,73
 472 1394 472 1394 472 1425 c 0,74,75
 472 1430 472 1430 471 1443 c 128,-1,76
 470 1456 470 1456 470 1462 c 2,77,-1
 470 1518 l 2,78,79
 470 1523 470 1523 471 1533 c 128,-1,80
 472 1543 472 1543 472 1548 c 0,81,82
 472 1557 472 1557 421 1577 c 1,83,-1
 446 1640 l 1,84,85
 483 1624 483 1624 499 1624 c 0,86,87
 506 1624 506 1624 509 1630 c 1,88,-1
 532 1655 l 1,89,-1
 526 1663 l 1,90,-1
 526 1661 l 1,91,-1
 513 1683 l 1,92,-1
 552 1710 l 1,93,-1
 560 1696 l 1,94,-1
 573 1716 l 1,95,-1
 614 1694 l 1,96,-1
 595 1655 l 1,97,-1
 605 1636 l 2,98,99
 636 1578 636 1578 636 1544 c 0,100,101
 636 1460 636 1460 610 1337 c 1,102,103
 635 1351 635 1351 698.5 1401.5 c 128,-1,104
 762 1452 762 1452 808 1470 c 1,105,106
 817 1475 817 1475 831 1530 c 1,107,-1
 890 1528 l 1,108,109
 877 1466 877 1466 880 1460 c 1,110,111
 876 1460 876 1460 874 1462 c 2,112,-1
 890 1446 l 2,113,114
 894 1442 894 1442 909 1442 c 0,115,116
 927 1442 927 1442 968 1448 c 1,117,-1
 970 1389 l 1,118,119
 909 1379 909 1379 902 1368 c 1,120,-1
 904 1368 l 1,121,122
 886 1333 886 1333 855.5 1309.5 c 128,-1,123
 825 1286 825 1286 800.5 1276.5 c 128,-1,124
 776 1267 776 1267 732 1255 c 1,125,-1
 732 1257 l 1,126,127
 726 1255 726 1255 708.5 1249 c 128,-1,128
 691 1243 691 1243 683.5 1240.5 c 128,-1,129
 676 1238 676 1238 663 1231.5 c 128,-1,130
 650 1225 650 1225 638 1217 c 1,131,132
 691 1185 691 1185 761 1165 c 1,133,-1
 759 1167 l 1,134,135
 768 1165 768 1165 784 1158 c 128,-1,136
 800 1151 800 1151 806 1149 c 1,137,-1
 816 1149 l 2,138,139
 824 1149 824 1149 855 1186 c 1,140,-1
 913 1155 l 1,141,142
 874 1108 874 1108 874 1100 c 0,143,144
 874 1098 874 1098 880 1087 c 1,145,-1
 884 1073 l 1,146,-1
 882 1083 l 1,147,148
 889 1073 889 1073 947 1067 c 1,149,-1
 945 1006 l 1,150,-1
 904 1006 l 2,151,152
 890 1006 890 1006 882.5 1000 c 128,-1,153
 875 994 875 994 873.5 987 c 128,-1,154
 872 980 872 980 872 969 c 0,155,156
 872 956 872 956 884 909 c 1,157,-1
 810 905 l 1,158,159
 803 945 803 945 793.5 962.5 c 128,-1,160
 784 980 784 980 767 991 c 0,161,162
 733 1014 733 1014 612 1108 c 1,163,-1
 612 1106 l 1,164,-1
 585 1126 l 1,165,166
 585 1104 585 1104 593 1054.5 c 128,-1,167
 601 1005 601 1005 601 973 c 0,168,169
 601 959 601 959 600 946.5 c 128,-1,170
 599 934 599 934 595 920 c 128,-1,171
 591 906 591 906 589.5 900.5 c 128,-1,172
 588 895 588 895 582 877.5 c 128,-1,173
 576 860 576 860 575 858 c 1,174,-1
 575 860 l 1,175,176
 571 848 571 848 571 838 c 0,177,178
 571 820 571 820 589 762 c 1,179,-1
 532 758 l 1,180,181
 512 813 512 813 493 829 c 1,182,183
 497 773 497 773 497 754 c 1,184,185
 450 801 450 801 448 805 c 0,186,187
 444 813 444 813 442 815 c 1,188,-1
 427 801 l 1,0,-1
EndSplineSet
EndChar

StartChar: plus
Encoding: 43 43 16
Width: 960
GlyphClass: 2
Flags: W
LayerCount: 2
Fore
SplineSet
138 774 m 0,0,1
 148 774 148 774 171.5 777 c 128,-1,2
 195 780 195 780 209 780 c 0,3,4
 234 780 234 780 285 777 c 128,-1,5
 336 774 336 774 361 774 c 1,6,-1
 377 805 l 2,7,8
 382 815 382 815 386.5 821.5 c 128,-1,9
 391 828 391 828 392 827 c 1,10,-1
 392 918 l 2,11,12
 392 950 392 950 324 963 c 1,13,-1
 338 1044 l 1,14,15
 346 1042 346 1042 359 1042 c 0,16,17
 394 1042 394 1042 407 1060 c 128,-1,18
 420 1078 420 1078 420 1135 c 1,19,-1
 484 1135 l 1,20,21
 484 1098 484 1098 486 1085 c 1,22,-1
 492 1081 l 1,23,-1
 488 1075 l 1,24,25
 494 1044 494 1044 508 1030 c 1,26,-1
 516 1014 l 1,27,28
 528 999 528 999 531 999 c 1,29,-1
 529 1001 l 1,30,31
 529 1004 529 1004 590 1024 c 1,32,-1
 594 963 l 1,33,34
 562 952 562 952 554.5 948.5 c 128,-1,35
 547 945 547 945 547 940 c 2,36,-1
 547 776 l 1,37,-1
 684 776 l 2,38,39
 705 776 705 776 715 778 c 1,40,-1
 693 793 l 1,41,-1
 719 831 l 1,42,43
 803 778 803 778 848 778 c 0,44,45
 870 778 870 778 902 793 c 1,46,-1
 951 694 l 1,47,48
 906 671 906 671 891 645 c 1,49,50
 898 629 898 629 930 600 c 1,51,-1
 879 547 l 1,52,53
 838 588 838 588 807 588 c 0,54,55
 781 588 781 588 722.5 581.5 c 128,-1,56
 664 575 664 575 648 575 c 0,57,58
 582 575 582 575 547 580 c 1,59,-1
 547 575 l 2,60,61
 547 552 547 552 548 513 c 128,-1,62
 549 474 549 474 549 451 c 2,63,-1
 549 422 l 2,64,65
 549 326 549 326 600 258 c 1,66,-1
 529 205 l 1,67,68
 498 243 498 243 451 266 c 1,69,70
 439 260 439 260 404 233 c 1,71,-1
 357 281 l 1,72,73
 379 303 379 303 385 313 c 1,74,-1
 390 336 l 1,75,-1
 398 334 l 1,76,77
 402 342 402 342 402 358 c 0,78,79
 402 362 402 362 401 371 c 128,-1,80
 400 380 400 380 400 383 c 2,81,-1
 402 561 l 1,82,83
 395 563 395 563 377 573.5 c 128,-1,84
 359 584 359 584 336 584 c 2,85,-1
 187 584 l 2,86,87
 182 584 182 584 170 587 c 128,-1,88
 158 590 158 590 151 588.5 c 128,-1,89
 144 587 144 587 128 573.5 c 128,-1,90
 112 560 112 560 90 532 c 1,91,-1
 37 563 l 1,92,93
 70 614 70 614 70 629 c 0,94,95
 70 630 70 630 69 633 c 128,-1,96
 68 636 68 636 68 637 c 0,97,98
 67 639 67 639 66 642 c 128,-1,99
 65 645 65 645 65 645.5 c 128,-1,100
 65 646 65 646 63.5 647.5 c 128,-1,101
 62 649 62 649 60.5 649.5 c 128,-1,102
 59 650 59 650 55.5 650.5 c 128,-1,103
 52 651 52 651 48 651 c 128,-1,104
 44 651 44 651 37 651 c 2,105,-1
 4 651 l 1,106,-1
 4 709 l 1,107,108
 49 712 49 712 52 713 c 1,109,110
 43 739 43 739 17 766 c 1,111,-1
 68 817 l 1,112,113
 93 790 93 790 107 782 c 128,-1,114
 121 774 121 774 138 774 c 0,0,1
EndSplineSet
EndChar

StartChar: comma
Encoding: 44 44 17
Width: 725
GlyphClass: 2
Flags: W
LayerCount: 2
Fore
SplineSet
156 -86 m 1,0,-1
 158 -84 l 2,1,2
 157 -84 157 -84 154.5 -83 c 128,-1,3
 152 -82 152 -82 150 -82 c 0,4,5
 144 -82 144 -82 78 -96 c 1,6,-1
 76 -39 l 1,7,8
 138 -25 138 -25 142 -20 c 0,9,10
 147 -12 147 -12 155.5 -3.5 c 128,-1,11
 164 5 164 5 171 11.5 c 128,-1,12
 178 18 178 18 190.5 26.5 c 128,-1,13
 203 35 203 35 209.5 39 c 128,-1,14
 216 43 216 43 230 52 c 128,-1,15
 244 61 244 61 248 63 c 0,16,17
 299 96 299 96 320.5 118.5 c 128,-1,18
 342 141 342 141 381 211 c 1,19,-1
 381 213 l 1,20,21
 376 226 376 226 361 242 c 1,22,23
 334 241 334 241 317.5 230.5 c 128,-1,24
 301 220 301 220 281 197 c 1,25,-1
 189 272 l 1,26,27
 217 299 217 299 228 326 c 1,28,29
 203 339 203 339 172 342 c 1,30,-1
 174 438 l 1,31,-1
 183 438 l 2,32,33
 215 438 215 438 234 455 c 1,34,-1
 207 492 l 1,35,-1
 254 535 l 1,36,-1
 275 512 l 1,37,38
 275 516 275 516 277 518 c 1,39,-1
 320 500 l 1,40,-1
 316 494 l 1,41,42
 321 494 321 494 342 502 c 0,43,44
 349 505 349 505 351 559 c 1,45,-1
 412 559 l 1,46,47
 412 518 412 518 413 508.5 c 128,-1,48
 414 499 414 499 418 498 c 0,49,50
 436 493 436 493 465.5 476 c 128,-1,51
 495 459 495 459 508 459 c 0,52,53
 528 459 528 459 560 481 c 1,54,-1
 607 414 l 1,55,56
 564 382 564 382 564 360 c 0,57,58
 564 350 564 350 570 338 c 1,59,-1
 570 326 l 1,60,61
 574 311 574 311 574 301 c 0,62,63
 574 228 574 228 533 143.5 c 128,-1,64
 492 59 492 59 435 8 c 0,65,66
 376 -44 376 -44 338.5 -61.5 c 128,-1,67
 301 -79 301 -79 232 -92 c 1,68,69
 217 -92 217 -92 211 -94 c 1,70,-1
 211 -98 l 2,71,72
 211 -117 211 -117 205 -147 c 1,73,-1
 148 -145 l 1,74,75
 156 -93 156 -93 156 -88 c 2,76,-1
 156 -86 l 1,0,-1
EndSplineSet
EndChar

StartChar: hyphen
Encoding: 45 45 18
Width: 906
GlyphClass: 2
Flags: W
LayerCount: 2
Fore
SplineSet
175 610 m 2,0,-1
 173 616 l 1,1,-1
 157 616 l 1,2,-1
 157 659 l 1,3,4
 152 653 152 653 138 653 c 2,5,-1
 130 653 l 1,6,-1
 130 700 l 1,7,-1
 144 700 l 2,8,9
 153 700 153 700 157 692 c 1,10,-1
 157 705 l 2,11,12
 157 710 157 710 148.5 716.5 c 128,-1,13
 140 723 140 723 105 743 c 1,14,-1
 132 793 l 1,15,16
 179 765 179 765 179 762 c 2,17,-1
 179 760 l 1,18,19
 234 791 234 791 251 791 c 0,20,21
 284 791 284 791 347 787.5 c 128,-1,22
 410 784 410 784 441 784 c 2,23,-1
 527 784 l 2,24,25
 566 784 566 784 592 799 c 128,-1,26
 618 814 618 814 636 850 c 1,27,-1
 726 803 l 1,28,29
 712 777 712 777 712 764 c 1,30,-1
 744 776 l 1,31,-1
 744 717 l 1,32,-1
 716 709 l 1,33,34
 721 696 721 696 734 676 c 1,35,-1
 699 651 l 1,36,-1
 742 627 l 1,37,-1
 738 563 l 1,38,-1
 679 590 l 1,39,-1
 679 582 l 2,40,41
 679 564 679 564 689 537 c 1,42,-1
 617 518 l 1,43,44
 611 541 611 541 600 556 c 128,-1,45
 589 571 589 571 578 578.5 c 128,-1,46
 567 586 567 586 550.5 589 c 128,-1,47
 534 592 534 592 523 592 c 128,-1,48
 512 592 512 592 493.5 591 c 128,-1,49
 475 590 475 590 468 590 c 0,50,51
 426 590 426 590 340.5 586 c 128,-1,52
 255 582 255 582 208 582 c 1,53,54
 210 580 210 580 210 578 c 128,-1,55
 210 576 210 576 212 577 c 2,56,-1
 206 570 l 2,57,58
 196 559 196 559 187 549 c 1,59,-1
 152 575 l 1,60,61
 168 599 168 599 174 608 c 0,62,63
 175 609 175 609 175 610 c 2,0,-1
EndSplineSet
EndChar

StartChar: period
Encoding: 46 46 19
Width: 616
GlyphClass: 2
Flags: W
LayerCount: 2
Fore
SplineSet
277 180 m 1,0,1
 277 217 277 217 273 227 c 1,2,3
 252 222 252 222 234 197 c 1,4,-1
 156 262 l 1,5,6
 174 284 174 284 178 293 c 1,7,8
 166 295 166 295 133 295 c 1,9,-1
 131 381 l 1,10,11
 168 381 168 381 193 399 c 1,12,13
 190 424 190 424 166 455 c 1,14,-1
 238 516 l 1,15,16
 272 479 272 479 299 479 c 1,17,18
 318 498 318 498 328 537 c 1,19,-1
 397 520 l 1,20,21
 385 484 385 484 385 465 c 0,22,23
 385 443 385 443 402 424 c 1,24,-1
 416 403 l 1,25,26
 420 412 420 412 426 429.5 c 128,-1,27
 432 447 432 447 436 455 c 1,28,-1
 479 438 l 1,29,30
 449 363 449 363 449 328 c 0,31,32
 449 306 449 306 483 276 c 1,33,-1
 402 193 l 1,34,35
 376 217 376 217 357 225 c 1,36,37
 352 215 352 215 352 180 c 1,38,-1
 277 180 l 1,0,1
EndSplineSet
EndChar

StartChar: slash
Encoding: 47 47 20
Width: 765
GlyphClass: 2
Flags: W
LayerCount: 2
Fore
SplineSet
-24 -143 m 1,0,1
 -37 -124 -37 -124 -44.5 -121.5 c 128,-1,2
 -52 -119 -52 -119 -104 -119 c 1,3,-1
 -104 -59 l 1,4,5
 -40 -59 -40 -59 -37 -51 c 1,6,7
 6 13 6 13 61.5 157.5 c 128,-1,8
 117 302 117 302 171.5 455 c 128,-1,9
 226 608 226 608 256 668 c 1,10,11
 266 721 266 721 418 1049 c 128,-1,12
 570 1377 570 1377 596 1477 c 1,13,14
 596 1491 596 1491 555 1516 c 1,15,-1
 580 1577 l 1,16,17
 626 1552 626 1552 631 1552 c 0,18,19
 635 1552 635 1552 635 1554 c 1,20,-1
 637 1552 l 1,21,22
 641 1560 641 1560 641 1579 c 0,23,24
 641 1584 641 1584 640 1600.5 c 128,-1,25
 639 1617 639 1617 639 1628 c 1,26,-1
 699 1628 l 1,27,28
 703 1566 703 1566 713 1546 c 1,29,30
 729 1534 729 1534 746 1534 c 0,31,32
 772 1534 772 1534 807 1546 c 1,33,-1
 811 1475 l 1,34,35
 753 1462 753 1462 750 1444 c 1,36,37
 741 1411 741 1411 728 1376.5 c 128,-1,38
 715 1342 715 1342 694 1296.5 c 128,-1,39
 673 1251 673 1251 662.5 1229 c 128,-1,40
 652 1207 652 1207 622.5 1148 c 128,-1,41
 593 1089 593 1089 588 1079 c 0,42,43
 467 837 467 837 334 494 c 0,44,45
 319 455 319 455 278 344 c 128,-1,46
 237 233 237 233 214.5 177.5 c 128,-1,47
 192 122 192 122 149 39 c 128,-1,48
 106 -44 106 -44 60 -106 c 1,49,-1
 74 -113 l 1,50,-1
 60 -156 l 1,51,-1
 29 -145 l 1,52,-1
 23 -193 l 1,53,-1
 -24 -190 l 1,54,55
 -24 -178 -24 -178 -23 -165.5 c 128,-1,56
 -22 -153 -22 -153 -22 -152 c 0,57,58
 -22 -148 -22 -148 -23 -146 c 2,59,-1
 -24 -143 l 1,0,1
EndSplineSet
EndChar

StartChar: zero
Encoding: 48 48 21
Width: 1189
GlyphClass: 2
Flags: W
LayerCount: 2
Fore
SplineSet
791 650 m 1,0,1
 797 655 797 655 799.5 685 c 128,-1,2
 802 715 802 715 812 722 c 1,3,4
 819 736 819 736 824.5 774 c 128,-1,5
 830 812 830 812 843 830 c 0,6,7
 849 839 849 839 849 845 c 2,8,-1
 859 942 l 1,9,10
 859 1067 859 1067 793 1067 c 0,11,12
 771 1067 771 1067 756 1065 c 1,13,-1
 752 1090 l 1,14,15
 799 1097 799 1097 812.5 1106.5 c 128,-1,16
 826 1116 826 1116 828 1135 c 1,17,18
 826 1140 826 1140 814.5 1153 c 128,-1,19
 803 1166 803 1166 803 1184 c 0,20,21
 803 1187 803 1187 804 1197.5 c 128,-1,22
 805 1208 805 1208 805 1212 c 0,23,24
 805 1221 805 1221 799 1227 c 0,25,26
 774 1254 774 1254 741.5 1320.5 c 128,-1,27
 709 1387 709 1387 685 1415 c 1,28,29
 663 1403 663 1403 658 1348 c 1,30,-1
 615 1352 l 1,31,32
 617 1362 617 1362 617 1384 c 0,33,34
 617 1448 617 1448 537 1448 c 0,35,36
 528 1448 528 1448 486.5 1431.5 c 128,-1,37
 445 1415 445 1415 441 1411 c 0,38,39
 440 1409 440 1409 431 1393 c 128,-1,40
 422 1377 422 1377 417.5 1369 c 128,-1,41
 413 1361 413 1361 408.5 1347.5 c 128,-1,42
 404 1334 404 1334 404 1325 c 0,43,44
 404 1314 404 1314 416.5 1302.5 c 128,-1,45
 429 1291 429 1291 463 1272 c 1,46,-1
 453 1255 l 1,47,48
 403 1282 403 1282 390 1282 c 0,49,50
 374 1282 374 1282 361.5 1263.5 c 128,-1,51
 349 1245 349 1245 341.5 1222.5 c 128,-1,52
 334 1200 334 1200 322 1177.5 c 128,-1,53
 310 1155 310 1155 296 1149 c 1,54,55
 288 1149 288 1149 282.5 1141.5 c 128,-1,56
 277 1134 277 1134 277 1124 c 2,57,-1
 277 1034 l 2,58,59
 277 1010 277 1010 310 946 c 128,-1,60
 343 882 343 882 377.5 808 c 128,-1,61
 412 734 412 734 415 687 c 0,62,63
 415 679 415 679 419 673 c 2,64,-1
 441 644 l 1,65,66
 456 622 456 622 474 622 c 0,67,68
 497 622 497 622 533 644 c 1,69,-1
 552 617 l 1,70,71
 499 586 499 586 499 562 c 0,72,73
 499 549 499 549 507 536 c 0,74,75
 508 534 508 534 510 528 c 128,-1,76
 512 522 512 522 512.5 519.5 c 128,-1,77
 513 517 513 517 515.5 513 c 128,-1,78
 518 509 518 509 521 507.5 c 128,-1,79
 524 506 524 506 528.5 504.5 c 128,-1,80
 533 503 533 503 539 503 c 2,81,-1
 552 503 l 2,82,83
 574 503 574 503 589 490.5 c 128,-1,84
 604 478 604 478 607 478 c 2,85,-1
 662 478 l 2,86,87
 671 478 671 478 673 480 c 2,88,-1
 705 497 l 2,89,90
 707 498 707 498 721 526.5 c 128,-1,91
 735 555 735 555 755 593 c 128,-1,92
 775 631 775 631 791 650 c 1,0,1
455 1530 m 1,93,94
 531 1563 531 1563 566 1563 c 0,95,96
 661 1563 661 1563 763 1521.5 c 128,-1,97
 865 1480 865 1480 908 1423 c 1,98,99
 916 1393 916 1393 934 1365 c 128,-1,100
 952 1337 952 1337 968.5 1318.5 c 128,-1,101
 985 1300 985 1300 997.5 1267.5 c 128,-1,102
 1010 1235 1010 1235 1010 1194 c 0,103,104
 1010 1165 1010 1165 1026 1135.5 c 128,-1,105
 1042 1106 1042 1106 1067 1106 c 0,106,107
 1095 1106 1095 1106 1127 1118 c 1,108,-1
 1135 1094 l 1,109,110
 1090 1079 1090 1079 1076.5 1067.5 c 128,-1,111
 1063 1056 1063 1056 1063 1038 c 0,112,113
 1063 1024 1063 1024 1067.5 997.5 c 128,-1,114
 1072 971 1072 971 1072 957 c 0,115,116
 1072 892 1072 892 1027.5 781.5 c 128,-1,117
 983 671 983 671 976 626 c 1,118,119
 974 620 974 620 974 611 c 0,120,121
 974 596 974 596 987 583 c 128,-1,122
 1000 570 1000 570 1039 552 c 1,123,-1
 1029 531 l 1,124,125
 983 552 983 552 961 552 c 0,126,127
 945 552 945 552 933 536 c 1,128,129
 922 518 922 518 888 463 c 128,-1,130
 854 408 854 408 831 372 c 128,-1,131
 808 336 808 336 785 304 c 1,132,133
 769 292 769 292 769 275 c 0,134,135
 769 254 769 254 785 210 c 1,136,-1
 765 202 l 1,137,138
 748 251 748 251 736 263 c 128,-1,139
 724 275 724 275 703 275 c 2,140,-1
 697 275 l 2,141,142
 669 275 669 275 652.5 261.5 c 128,-1,143
 636 248 636 248 619 200 c 1,144,-1
 589 212 l 1,145,146
 603 253 603 253 603 273 c 0,147,148
 603 303 603 303 580 316 c 128,-1,149
 557 329 557 329 528 331 c 128,-1,150
 499 333 499 333 466.5 347.5 c 128,-1,151
 434 362 434 362 419 392 c 0,152,153
 418 394 418 394 407.5 423 c 128,-1,154
 397 452 397 452 386 466 c 0,155,156
 365 493 365 493 345.5 502.5 c 128,-1,157
 326 512 326 512 295 513.5 c 128,-1,158
 264 515 264 515 248 519 c 1,159,-1
 252 531 l 1,160,-1
 292 529 l 2,161,162
 309 529 309 529 322 541 c 128,-1,163
 335 553 335 553 335 568 c 0,164,165
 335 592 335 592 299.5 628.5 c 128,-1,166
 264 665 264 665 245 665 c 0,167,168
 234 665 234 665 177 644 c 1,169,-1
 169 660 l 1,170,171
 210 679 210 679 224.5 690 c 128,-1,172
 239 701 239 701 241 714 c 1,173,174
 238 722 238 722 226 734 c 1,175,176
 171 776 171 776 167 878 c 0,177,178
 167 886 167 886 161 894 c 1,179,180
 127 928 127 928 127 1024 c 0,181,182
 127 1136 127 1136 94 1210 c 128,-1,183
 61 1284 61 1284 12 1317 c 1,184,-1
 38 1358 l 1,185,186
 71 1332 71 1332 136 1332 c 0,187,188
 178 1332 178 1332 207 1370 c 1,189,190
 208 1405 208 1405 224.5 1429.5 c 128,-1,191
 241 1454 241 1454 270 1467.5 c 128,-1,192
 299 1481 299 1481 329 1489 c 128,-1,193
 359 1497 359 1497 395.5 1507.5 c 128,-1,194
 432 1518 432 1518 455 1530 c 1,93,94
EndSplineSet
EndChar

StartChar: one
Encoding: 49 49 22
Width: 804
GlyphClass: 2
Flags: W
LayerCount: 2
Fore
SplineSet
160 242 m 1,0,-1
 145 252 l 1,1,-1
 110 240 l 1,2,-1
 96 285 l 1,3,-1
 125 295 l 1,4,-1
 127 293 l 1,5,6
 135 299 135 299 146.5 306.5 c 128,-1,7
 158 314 158 314 158 313 c 1,8,9
 198 341 198 341 217 347 c 0,10,11
 231 352 231 352 262 358 c 1,12,13
 303 443 303 443 303 561 c 0,14,15
 303 610 303 610 299 700 c 0,16,17
 298 701 298 701 294 701.5 c 128,-1,18
 290 702 290 702 276.5 704 c 128,-1,19
 263 706 263 706 248 709 c 1,20,-1
 250 772 l 1,21,22
 266 769 266 769 278 764 c 128,-1,23
 290 759 290 759 295 756.5 c 128,-1,24
 300 754 300 754 301 754 c 2,25,-1
 303 756 l 1,26,-1
 295 791 l 1,27,28
 285 821 285 821 285 838 c 0,29,30
 285 914 285 914 295 1022 c 1,31,32
 286 1028 286 1028 267 1042 c 128,-1,33
 248 1056 248 1056 239 1061 c 128,-1,34
 230 1066 230 1066 209.5 1074 c 128,-1,35
 189 1082 189 1082 162 1086.5 c 128,-1,36
 135 1091 135 1091 96 1094 c 1,37,-1
 96 1155 l 1,38,39
 169 1155 169 1155 197 1164 c 128,-1,40
 225 1173 225 1173 225 1204 c 0,41,42
 225 1225 225 1225 223 1241 c 1,43,-1
 299 1245 l 1,44,45
 300 1208 300 1208 305.5 1196.5 c 128,-1,46
 311 1185 311 1185 323 1182 c 2,47,-1
 364 1171 l 1,48,-1
 362 1174 l 1,49,50
 421 1157 421 1157 444 1157 c 0,51,52
 489 1157 489 1157 541 1167 c 0,53,54
 549 1169 549 1169 553 1178 c 128,-1,55
 557 1187 557 1187 563 1221 c 1,56,-1
 631 1217 l 1,57,58
 624 1177 624 1177 624 1169 c 0,59,60
 624 1154 624 1154 633 1148.5 c 128,-1,61
 642 1143 642 1143 663 1143 c 0,62,63
 682 1143 682 1143 729 1149 c 1,64,-1
 731 1087 l 1,65,66
 684 1082 684 1082 656 1072 c 128,-1,67
 628 1062 628 1062 620 1052.5 c 128,-1,68
 612 1043 612 1043 596 1033.5 c 128,-1,69
 580 1024 580 1024 555 1020 c 1,70,71
 520 896 520 896 520 694 c 0,72,73
 520 655 520 655 514 581.5 c 128,-1,74
 508 508 508 508 508 475 c 0,75,76
 508 462 508 462 512 422 c 1,77,-1
 518 393 l 1,78,79
 518 403 518 403 524 403 c 0,80,81
 526 403 526 403 529 402.5 c 128,-1,82
 532 402 532 402 538 401 c 128,-1,83
 544 400 544 400 549 399 c 1,84,-1
 545 362 l 1,85,86
 547 361 547 361 557.5 352 c 128,-1,87
 568 343 568 343 571 341 c 128,-1,88
 574 339 574 339 584 332 c 128,-1,89
 594 325 594 325 601 322.5 c 128,-1,90
 608 320 608 320 620 315.5 c 128,-1,91
 632 311 632 311 646 308.5 c 128,-1,92
 660 306 660 306 678 303 c 1,93,-1
 676 256 l 1,94,95
 632 256 632 256 612 248 c 1,96,97
 612 244 612 244 622 188 c 1,98,-1
 563 186 l 1,99,100
 559 213 559 213 553.5 226.5 c 128,-1,101
 548 240 548 240 544.5 241.5 c 128,-1,102
 541 243 541 243 533.5 240.5 c 128,-1,103
 526 238 526 238 524 238 c 1,104,-1
 516 211 l 1,105,-1
 471 223 l 1,106,-1
 473 236 l 1,107,108
 441 236 441 236 376 223.5 c 128,-1,109
 311 211 311 211 274 211 c 0,110,111
 246 211 246 211 233 213 c 1,112,113
 224 213 224 213 205 160 c 1,114,-1
 147 188 l 1,115,116
 162 221 162 221 162 236 c 0,117,118
 162 242 162 242 160 242 c 1,0,-1
EndSplineSet
EndChar

StartChar: two
Encoding: 50 50 23
Width: 1109
GlyphClass: 2
Flags: W
LayerCount: 2
Fore
SplineSet
799 178 m 1,0,1
 798 182 798 182 796 192.5 c 128,-1,2
 794 203 794 203 792 208 c 128,-1,3
 790 213 790 213 787 220 c 128,-1,4
 784 227 784 227 779.5 230 c 128,-1,5
 775 233 775 233 768 233 c 2,6,-1
 711 233 l 2,7,8
 625 233 625 233 584 236 c 1,9,-1
 358 236 l 1,10,-1
 264 231 l 1,11,12
 245 212 245 212 242 176 c 1,13,-1
 145 180 l 1,14,-1
 145 193 l 2,15,16
 145 223 145 223 137 234.5 c 128,-1,17
 129 246 129 246 100 246 c 0,18,19
 94 246 94 246 80.5 245 c 128,-1,20
 67 244 67 244 59 244 c 1,21,-1
 57 305 l 1,22,-1
 102 311 l 1,23,-1
 106 319 l 1,24,-1
 115 315 l 1,25,26
 136 319 136 319 160 336 c 1,27,-1
 160 334 l 1,28,29
 197 363 197 363 257 397.5 c 128,-1,30
 317 432 317 432 371.5 459.5 c 128,-1,31
 426 487 426 487 484.5 524 c 128,-1,32
 543 561 543 561 585 597.5 c 128,-1,33
 627 634 627 634 654.5 684.5 c 128,-1,34
 682 735 682 735 682 791 c 0,35,36
 682 808 682 808 670 838 c 1,37,-1
 670 836 l 1,38,-1
 657 879 l 1,39,-1
 594 942 l 1,40,-1
 508 948 l 2,41,42
 442 952 442 952 438 954 c 1,43,-1
 418 936 l 1,44,45
 361 887 361 887 340 874 c 1,46,47
 336 865 336 865 313 823 c 128,-1,48
 290 781 290 781 281.5 761.5 c 128,-1,49
 273 742 273 742 262.5 705.5 c 128,-1,50
 252 669 252 669 252 637 c 1,51,-1
 174 637 l 1,52,53
 174 640 174 640 174 645 c 0,54,55
 174 666 174 666 173.5 677 c 128,-1,56
 173 688 173 688 169 704 c 128,-1,57
 165 720 165 720 154.5 727.5 c 128,-1,58
 144 735 144 735 127 735 c 2,59,-1
 98 735 l 1,60,-1
 96 813 l 1,61,62
 133 817 133 817 148.5 829 c 128,-1,63
 164 841 164 841 174 866 c 0,64,65
 286 1155 286 1155 586 1155 c 0,66,67
 665 1155 665 1155 763 1074.5 c 128,-1,68
 861 994 861 994 874 932 c 1,69,-1
 874 928 l 1,70,71
 874 928 874 928 873 928 c 1,72,73
 877 919 877 919 880 916 c 0,74,75
 884 912 884 912 897.5 908.5 c 128,-1,76
 911 905 911 905 936 905 c 1,77,-1
 936 834 l 1,78,79
 902 834 902 834 891.5 830.5 c 128,-1,80
 881 827 881 827 879 819 c 0,81,82
 862 761 862 761 860 733 c 1,83,84
 865 733 865 733 893 725 c 1,85,-1
 883 678 l 1,86,87
 848 685 848 685 848 686 c 1,88,89
 826 656 826 656 794 626 c 128,-1,90
 762 596 762 596 740.5 580 c 128,-1,91
 719 564 719 564 674 532 c 1,92,-1
 602 483 l 1,93,94
 768 479 768 479 833 467 c 1,95,96
 885 492 885 492 924 524 c 1,97,-1
 876 578 l 1,98,-1
 911 610 l 1,99,100
 941 571 941 571 962 557 c 128,-1,101
 983 543 983 543 1008 543 c 0,102,103
 1016 543 1016 543 1044 547 c 1,104,-1
 1057 455 l 1,105,106
 1017 450 1017 450 998.5 443 c 128,-1,107
 980 436 980 436 973 420 c 1,108,109
 973 404 973 404 960.5 376 c 128,-1,110
 948 348 948 348 948 340 c 0,111,112
 948 322 948 322 983 289 c 1,113,-1
 911 207 l 1,114,115
 883 228 883 228 864 233 c 1,116,117
 864 219 864 219 870 195 c 1,118,-1
 799 178 l 1,0,1
EndSplineSet
EndChar

StartChar: three
Encoding: 51 51 24
Width: 816
GlyphClass: 2
Flags: W
LayerCount: 2
Fore
SplineSet
394 -137 m 0,0,1
 367 -153 367 -153 350 -143 c 1,2,-1
 116 -50 l 1,3,-1
 146 22 l 1,4,-1
 338 -44 l 1,5,-1
 393 21 l 1,6,7
 417 45 417 45 431.5 104 c 128,-1,8
 446 163 446 163 458 187 c 1,9,10
 418 295 418 295 366 351 c 128,-1,11
 314 407 314 407 213 430 c 1,12,13
 185 430 185 430 118 406 c 1,14,-1
 116 463 l 1,15,16
 192 486 192 486 192 498 c 0,17,18
 192 500 192 500 168 549 c 1,19,-1
 223 578 l 1,20,21
 244 538 244 538 250 533 c 1,22,23
 268 564 268 564 286 582 c 128,-1,24
 304 600 304 600 328 618.5 c 128,-1,25
 352 637 352 637 368 653 c 1,26,27
 364 649 364 649 362 649 c 0,28,29
 357 649 357 649 346 658 c 1,30,-1
 372 698 l 1,31,-1
 397 680 l 1,32,-1
 397 682 l 1,33,34
 473 760 473 760 485 920 c 1,35,36
 480 927 480 927 475 948 c 1,37,-1
 448 1006 l 1,38,39
 438 1010 438 1010 404 1025.5 c 128,-1,40
 370 1041 370 1041 350 1047 c 1,41,42
 322 1036 322 1036 293 1030 c 1,43,-1
 293 998 l 1,44,-1
 245 998 l 1,45,-1
 245 1002 l 1,46,47
 237 997 237 997 212 981.5 c 128,-1,48
 187 966 187 966 175 957.5 c 128,-1,49
 163 949 163 949 142 930 c 128,-1,50
 121 911 121 911 102 887 c 1,51,-1
 51 918 l 1,52,53
 118 1004 118 1004 118 1047 c 0,54,55
 118 1065 118 1065 75 1092 c 1,56,-1
 112 1159 l 1,57,58
 150 1133 150 1133 168 1133 c 0,59,60
 176 1133 176 1133 182 1139 c 0,61,62
 272 1217 272 1217 329 1217 c 2,63,-1
 465 1217 l 2,64,65
 524 1217 524 1217 606 1131 c 0,66,67
 615 1122 615 1122 624 1122 c 128,-1,68
 633 1122 633 1122 676 1141 c 1,69,-1
 710 1071 l 1,70,71
 665 1047 665 1047 665 1030 c 0,72,73
 665 1019 665 1019 669.5 997 c 128,-1,74
 674 975 674 975 674 963 c 0,75,76
 674 900 674 900 657 846.5 c 128,-1,77
 640 793 640 793 605.5 746.5 c 128,-1,78
 571 700 571 700 536.5 666 c 128,-1,79
 502 632 502 632 448 588 c 1,80,-1
 448 567 l 2,81,82
 448 562 448 562 447 558 c 128,-1,83
 446 554 446 554 446 553 c 0,84,85
 446 551 446 551 448 547 c 1,86,87
 518 497 518 497 565 416.5 c 128,-1,88
 612 336 612 336 612 254 c 0,89,90
 612 180 612 180 535.5 40.5 c 128,-1,91
 459 -99 459 -99 394 -137 c 0,0,1
EndSplineSet
EndChar

StartChar: four
Encoding: 52 52 25
Width: 1171
GlyphClass: 2
Flags: W
LayerCount: 2
Fore
SplineSet
520 584 m 0,0,1
 520 650 520 650 487 776 c 1,2,3
 468 752 468 752 404 679.5 c 128,-1,4
 340 607 340 607 295 550 c 128,-1,5
 250 493 250 493 237 459 c 1,6,-1
 260 434 l 1,7,-1
 456 434 l 1,8,-1
 491 453 l 1,9,-1
 504 502 l 1,10,11
 520 571 520 571 520 584 c 0,0,1
514 -229 m 1,12,-1
 495 -174 l 1,13,14
 495 -188 495 -188 491.5 -190.5 c 128,-1,15
 488 -193 488 -193 469 -193 c 1,16,-1
 471 -145 l 1,17,-1
 456 -141 l 1,18,-1
 459 -72 l 1,19,20
 488 -80 488 -80 502 -80 c 128,-1,21
 516 -80 516 -80 516 51 c 2,22,-1
 516 115 l 2,23,24
 516 131 516 131 515 157 c 128,-1,25
 514 183 514 183 514 195 c 0,26,27
 514 201 514 201 515 213.5 c 128,-1,28
 516 226 516 226 516 233 c 1,29,-1
 502 242 l 1,30,-1
 178 242 l 2,31,32
 163 242 163 242 122 254 c 128,-1,33
 81 266 81 266 59 266 c 0,34,35
 30 266 30 266 -13 254 c 1,36,-1
 -33 315 l 1,37,38
 37 334 37 334 65 373 c 2,39,-1
 108 434 l 1,40,41
 273 672 273 672 325 715 c 1,42,-1
 323 715 l 1,43,44
 340 752 340 752 441 877.5 c 128,-1,45
 542 1003 542 1003 622 1092 c 1,46,47
 650 1121 650 1121 665 1196 c 1,48,-1
 733 1192 l 1,49,50
 719 1140 719 1140 719 1108 c 0,51,52
 719 1087 719 1087 729 1056 c 128,-1,53
 739 1025 739 1025 739 1008 c 0,54,55
 739 959 739 959 727 861 c 128,-1,56
 715 763 715 763 715 719 c 2,57,-1
 715 512 l 2,58,59
 715 486 715 486 737 449 c 1,60,61
 741 449 741 449 755 450 c 128,-1,62
 769 451 769 451 778 451 c 0,63,64
 833 451 833 451 965.5 442.5 c 128,-1,65
 1098 434 1098 434 1118 434 c 2,66,-1
 1138 434 l 1,67,68
 1142 435 1142 435 1184 461 c 1,69,-1
 1214 424 l 1,70,71
 1194 407 1194 407 1181 388.5 c 128,-1,72
 1168 370 1168 370 1163 358 c 128,-1,73
 1158 346 1158 346 1151 322.5 c 128,-1,74
 1144 299 1144 299 1140 287 c 1,75,76
 1144 287 1144 287 1151 286 c 128,-1,77
 1158 285 1158 285 1161 285 c 0,78,79
 1162 285 1162 285 1165 286 c 128,-1,80
 1168 287 1168 287 1169 287 c 2,81,-1
 1149 260 l 1,82,83
 1132 271 1132 271 1132 272 c 2,84,-1
 1112 236 l 1,85,-1
 1114 236 l 1,86,87
 1095 196 1095 196 1095 141 c 2,88,-1
 1095 121 l 1,89,-1
 1032 121 l 1,90,91
 1027 201 1027 201 1007 236 c 1,92,-1
 1007 233 l 1,93,-1
 1003 240 l 1,94,-1
 712 240 l 1,95,-1
 708 236 l 1,96,-1
 708 -76 l 2,97,98
 708 -81 708 -81 706.5 -104 c 128,-1,99
 705 -127 705 -127 706.5 -140 c 128,-1,100
 708 -153 708 -153 713 -174 c 128,-1,101
 718 -195 718 -195 733 -214.5 c 128,-1,102
 748 -234 748 -234 772 -252 c 1,103,-1
 731 -307 l 1,104,105
 682 -268 682 -268 647 -268 c 2,106,-1
 639 -268 l 1,107,108
 631 -270 631 -270 606 -270 c 1,109,-1
 575 -272 l 2,110,111
 564 -272 564 -272 526 -326 c 1,112,-1
 483 -285 l 1,113,114
 514 -239 514 -239 514 -229 c 1,12,-1
1169 287 m 1,115,116
 1169 287 1169 287 1177 299 c 1,117,-1
 1181 291 l 1,118,119
 1181 287 1181 287 1169 287 c 1,115,116
EndSplineSet
EndChar

StartChar: five
Encoding: 53 53 26
Width: 931
GlyphClass: 2
Flags: W
LayerCount: 2
Fore
SplineSet
159 12 m 1,0,1
 105 20 105 20 77 20 c 0,2,3
 42 20 42 20 20 18 c 1,4,-1
 18 76 l 1,5,6
 111 82 111 82 202 146 c 128,-1,7
 293 210 293 210 350 307 c 128,-1,8
 407 404 407 404 407 500 c 0,9,10
 407 555 407 555 362 616 c 128,-1,11
 317 677 317 677 262 720 c 128,-1,12
 207 763 207 763 141 803 c 1,13,-1
 141 801 l 1,14,15
 121 813 121 813 89 813 c 0,16,17
 66 813 66 813 32 807 c 1,18,-1
 30 874 l 1,19,20
 124 888 124 888 149 938 c 1,21,-1
 163 956 l 1,22,23
 193 992 193 992 260 1035 c 128,-1,24
 327 1078 327 1078 373 1113.5 c 128,-1,25
 419 1149 419 1149 419 1182 c 0,26,27
 419 1206 419 1206 415 1225 c 1,28,-1
 485 1243 l 1,29,30
 494 1203 494 1203 502.5 1189 c 128,-1,31
 511 1175 511 1175 526 1171 c 0,32,33
 636 1135 636 1135 720 1135 c 2,34,-1
 743 1135 l 1,35,-1
 755 1147 l 2,36,37
 756 1149 756 1149 764.5 1154 c 128,-1,38
 773 1159 773 1159 780.5 1165.5 c 128,-1,39
 788 1172 788 1172 797 1194 c 128,-1,40
 806 1216 806 1216 812 1249 c 1,41,-1
 859 1245 l 1,42,43
 857 1219 857 1219 857 1208 c 1,44,-1
 859 1204 l 2,45,46
 860 1204 860 1204 872.5 1205 c 128,-1,47
 885 1206 885 1206 894 1206 c 1,48,-1
 896 1159 l 1,49,-1
 868 1155 l 2,50,51
 861 1155 861 1155 861 1159 c 1,52,-1
 829 1071 l 2,53,54
 825 1059 825 1059 825 1057 c 0,55,56
 825 1037 825 1037 866 1012 c 1,57,-1
 818 948 l 1,58,59
 786 967 786 967 773 967 c 0,60,61
 764 967 764 967 749 954 c 1,62,-1
 749 956 l 1,63,64
 720 928 720 928 716 922 c 1,65,-1
 732 889 l 1,66,-1
 692 868 l 1,67,68
 687 871 687 871 687 874 c 1,69,-1
 653 874 l 1,70,71
 653 885 653 885 655.5 890 c 128,-1,72
 658 895 658 895 661 896 c 128,-1,73
 664 897 664 897 669 897 c 1,74,75
 608 907 608 907 384 965 c 1,76,-1
 360 946 l 1,77,-1
 388 922 l 1,78,79
 417 899 417 899 437 884.5 c 128,-1,80
 457 870 457 870 464 870 c 0,81,82
 474 870 474 870 513 903 c 1,83,-1
 556 846 l 1,84,85
 524 818 524 818 524 803 c 0,86,87
 524 797 524 797 526 795 c 1,88,-1
 524 795 l 1,89,90
 562 727 562 727 588 641.5 c 128,-1,91
 614 556 614 556 614 496 c 0,92,93
 614 454 614 454 565.5 356.5 c 128,-1,94
 517 259 517 259 517 242 c 0,95,96
 517 230 517 230 562 205 c 1,97,-1
 524 145 l 1,98,99
 487 168 487 168 476 168 c 0,100,101
 470 168 470 168 466 164 c 0,102,103
 318 12 318 12 159 12 c 1,0,1
EndSplineSet
EndChar

StartChar: six
Encoding: 54 54 27
Width: 1100
GlyphClass: 2
Flags: W
LayerCount: 2
Fore
SplineSet
406 950 m 1,0,1
 355 874 355 874 318 827 c 1,2,-1
 312 770 l 2,3,4
 310 758 310 758 309.5 744 c 128,-1,5
 309 730 309 730 308 725 c 1,6,-1
 310 725 l 1,7,-1
 300 680 l 1,8,9
 303 612 303 612 327.5 543 c 128,-1,10
 352 474 352 474 382 471 c 1,11,-1
 376 424 l 1,12,13
 435 374 435 374 484 346 c 1,14,15
 562 367 562 367 591 392.5 c 128,-1,16
 620 418 620 418 658 494 c 1,17,-1
 658 504 l 2,18,19
 658 545 658 545 663.5 621 c 128,-1,20
 669 697 669 697 677 731 c 1,21,-1
 648 786 l 1,22,-1
 648 784 l 1,23,24
 621 835 621 835 605.5 860 c 128,-1,25
 590 885 590 885 559 918 c 128,-1,26
 528 951 528 951 486 977 c 1,27,28
 465 965 465 965 406 950 c 1,0,1
500 217 m 1,29,30
 500 219 500 219 499 222.5 c 128,-1,31
 498 226 498 226 498 227 c 0,32,33
 498 239 498 239 505 242 c 1,34,-1
 488 240 l 1,35,-1
 492 236 l 1,36,-1
 457 203 l 1,37,-1
 433 231 l 1,38,39
 259 263 259 263 172 391 c 128,-1,40
 85 519 85 519 85 707 c 0,41,42
 85 864 85 864 177 1024 c 128,-1,43
 269 1184 269 1184 415 1295.5 c 128,-1,44
 561 1407 561 1407 715 1436 c 1,45,-1
 703 1448 l 1,46,-1
 738 1477 l 1,47,-1
 761 1454 l 1,48,49
 776 1459 776 1459 800.5 1466 c 128,-1,50
 825 1473 825 1473 838.5 1476.5 c 128,-1,51
 852 1480 852 1480 869.5 1488 c 128,-1,52
 887 1496 887 1496 897 1504.5 c 128,-1,53
 907 1513 907 1513 915 1527.5 c 128,-1,54
 923 1542 923 1542 926 1561 c 1,55,-1
 1037 1542 l 1,56,57
 1035 1534 1035 1534 1035 1518 c 0,58,59
 1035 1475 1035 1475 1057.5 1463.5 c 128,-1,60
 1080 1452 1080 1452 1137 1448 c 1,61,-1
 1137 1386 l 1,62,-1
 1113 1386 l 2,63,64
 1049 1386 1049 1386 1012 1370 c 1,65,66
 959 1344 959 1344 876.5 1313.5 c 128,-1,67
 794 1283 794 1283 732 1261 c 128,-1,68
 670 1239 670 1239 596 1199 c 128,-1,69
 522 1159 522 1159 466 1110 c 1,70,71
 466 1103 466 1103 465 1091.5 c 128,-1,72
 464 1080 464 1080 464 1073 c 2,73,-1
 464 1067 l 1,74,75
 667 1061 667 1061 783.5 959.5 c 128,-1,76
 900 858 900 858 900 651 c 0,77,78
 900 562 900 562 846.5 460 c 128,-1,79
 793 358 793 358 720 303 c 0,80,81
 693 283 693 283 669.5 272.5 c 128,-1,82
 646 262 646 262 632 259 c 128,-1,83
 618 256 618 256 586.5 252 c 128,-1,84
 555 248 555 248 533 244 c 1,85,86
 544 244 544 244 546 240.5 c 128,-1,87
 548 237 548 237 548 217 c 1,88,-1
 500 217 l 1,29,30
EndSplineSet
EndChar

StartChar: seven
Encoding: 55 55 28
Width: 996
GlyphClass: 2
Flags: W
LayerCount: 2
Fore
SplineSet
297 -100 m 1,0,-1
 281 -94 l 1,1,-1
 277 -94 l 2,2,3
 260 -94 260 -94 207 -111 c 1,4,-1
 205 -51 l 1,5,6
 263 -38 263 -38 266 -25 c 1,7,8
 320 94 320 94 470.5 442 c 128,-1,9
 621 790 621 790 649 866 c 1,10,11
 643 874 643 874 628.5 890.5 c 128,-1,12
 614 907 614 907 608 915 c 1,13,-1
 385 915 l 1,14,-1
 385 913 l 2,15,16
 385 909 385 909 367 881 c 1,17,-1
 328 903 l 1,18,-1
 338 922 l 1,19,-1
 242 924 l 1,20,21
 159 924 159 924 80 874 c 1,22,-1
 80 872 l 2,23,24
 80 871 80 871 79.5 868 c 128,-1,25
 79 865 79 865 78 856.5 c 128,-1,26
 77 848 77 848 76 838 c 1,27,-1
 29 844 l 1,28,29
 30 850 30 850 31 857.5 c 128,-1,30
 32 865 32 865 32.5 868.5 c 128,-1,31
 33 872 33 872 33 874 c 1,32,33
 31 874 31 874 27.5 873.5 c 128,-1,34
 24 873 24 873 17.5 872 c 128,-1,35
 11 871 11 871 4 870 c 1,36,-1
 -6 918 l 1,37,38
 25 924 25 924 29 924 c 1,39,40
 62 1039 62 1039 139 1128 c 0,41,42
 158 1150 158 1150 158 1176 c 0,43,44
 158 1199 158 1199 150 1227 c 1,45,-1
 227 1245 l 1,46,47
 246 1179 246 1179 283 1169 c 1,48,-1
 281 1169 l 1,49,50
 283 1167 283 1167 302 1159 c 128,-1,51
 321 1151 321 1151 324 1151 c 1,52,-1
 324 1153 l 1,53,54
 380 1159 380 1159 447 1159 c 0,55,56
 482 1159 482 1159 551 1157 c 128,-1,57
 620 1155 620 1155 655 1155 c 0,58,59
 711 1155 711 1155 739 1157 c 1,60,-1
 739 1171 l 1,61,62
 853 1171 853 1171 930 1223 c 1,63,-1
 977 1149 l 1,64,65
 929 1117 929 1117 894.5 1062 c 128,-1,66
 860 1007 860 1007 826 923 c 128,-1,67
 792 839 792 839 780 817 c 0,68,69
 746 752 746 752 691 626 c 128,-1,70
 636 500 636 500 602 440 c 1,71,-1
 604 440 l 1,72,-1
 561 362 l 1,73,-1
 561 365 l 1,74,75
 527 302 527 302 487 186.5 c 128,-1,76
 447 71 447 71 440 55 c 1,77,-1
 440 57 l 1,78,-1
 434 37 l 1,79,80
 413 -14 413 -14 398.5 -36.5 c 128,-1,81
 384 -59 384 -59 348 -92 c 1,82,-1
 348 -90 l 1,83,84
 344 -94 344 -94 344 -121 c 0,85,86
 344 -124 344 -124 345 -137 c 128,-1,87
 346 -150 346 -150 346 -160 c 1,88,-1
 293 -160 l 1,89,90
 287 -100 287 -100 283 -96 c 1,91,-1
 297 -100 l 1,0,-1
EndSplineSet
EndChar

StartChar: eight
Encoding: 56 56 29
Width: 1093
GlyphClass: 2
Flags: W
LayerCount: 2
Fore
SplineSet
467 774 m 1,0,-1
 439 784 l 1,1,2
 390 710 390 710 363 575 c 1,3,4
 375 530 375 530 382.5 507.5 c 128,-1,5
 390 485 390 485 395 476 c 128,-1,6
 400 467 400 467 417.5 443.5 c 128,-1,7
 435 420 435 420 451 395 c 1,8,-1
 463 391 l 1,9,-1
 461 393 l 1,10,11
 557 367 557 367 570 367 c 0,12,13
 597 367 597 367 625 395 c 1,14,-1
 623 395 l 1,15,16
 683 458 683 458 702 496 c 128,-1,17
 721 534 721 534 721 608 c 0,18,19
 721 640 721 640 706.5 669.5 c 128,-1,20
 692 699 692 699 661.5 726.5 c 128,-1,21
 631 754 631 754 608.5 770.5 c 128,-1,22
 586 787 586 787 547 813 c 1,23,-1
 549 813 l 1,24,25
 524 826 524 826 500 846 c 1,26,27
 497 844 497 844 484 836 c 128,-1,28
 471 828 471 828 465 823 c 1,29,-1
 482 817 l 1,30,-1
 467 774 l 1,0,-1
392 1298 m 1,31,-1
 418 1194 l 1,32,-1
 416 1196 l 1,33,34
 450 1142 450 1142 506 1086 c 128,-1,35
 562 1030 562 1030 603 1026 c 1,36,-1
 619 1044 l 2,37,38
 657 1088 657 1088 672.5 1107 c 128,-1,39
 688 1126 688 1126 712.5 1163 c 128,-1,40
 737 1200 737 1200 746.5 1235.5 c 128,-1,41
 756 1271 756 1271 756 1313 c 0,42,43
 756 1366 756 1366 740 1403 c 1,44,45
 721 1403 721 1403 705 1405 c 1,46,-1
 709 1448 l 1,47,48
 634 1534 634 1534 557 1534 c 0,49,50
 510 1534 510 1534 471 1492.5 c 128,-1,51
 432 1451 432 1451 412.5 1398 c 128,-1,52
 393 1345 393 1345 392 1298 c 1,31,-1
895 442 m 1,53,-1
 881 451 l 1,54,55
 856 385 856 385 821.5 343.5 c 128,-1,56
 787 302 787 302 739.5 282.5 c 128,-1,57
 692 263 692 263 648.5 257.5 c 128,-1,58
 605 252 605 252 537 252 c 2,59,-1
 445 252 l 2,60,61
 387 252 387 252 319 305.5 c 128,-1,62
 251 359 251 359 205.5 432 c 128,-1,63
 160 505 160 505 160 559 c 0,64,65
 160 642 160 642 173 695.5 c 128,-1,66
 186 749 186 749 212.5 779 c 128,-1,67
 239 809 239 809 266.5 825.5 c 128,-1,68
 294 842 294 842 337.5 866.5 c 128,-1,69
 381 891 381 891 412 918 c 1,70,-1
 408 920 l 1,71,-1
 408 918 l 1,72,73
 356 964 356 964 331.5 987 c 128,-1,74
 307 1010 307 1010 270 1053 c 128,-1,75
 233 1096 233 1096 216 1131.5 c 128,-1,76
 199 1167 199 1167 185.5 1219 c 128,-1,77
 172 1271 172 1271 172 1331 c 0,78,79
 172 1403 172 1403 207.5 1464.5 c 128,-1,80
 243 1526 243 1526 299.5 1565 c 128,-1,81
 356 1604 356 1604 423.5 1625.5 c 128,-1,82
 491 1647 491 1647 557 1647 c 2,83,-1
 670 1647 l 2,84,85
 690 1647 690 1647 762 1605.5 c 128,-1,86
 834 1564 834 1564 875 1534 c 1,87,-1
 904 1548 l 1,88,-1
 924 1505 l 1,89,90
 940 1508 940 1508 969 1520 c 1,91,-1
 994 1454 l 1,92,93
 947 1432 947 1432 947 1403 c 1,94,95
 955 1349 955 1349 955 1307 c 0,96,97
 955 1251 955 1251 935 1201.5 c 128,-1,98
 915 1152 915 1152 875 1109 c 128,-1,99
 835 1066 835 1066 801 1038.5 c 128,-1,100
 767 1011 767 1011 713 973 c 1,101,102
 715 973 715 973 719 965 c 1,103,-1
 756 924 l 2,104,105
 836 836 836 836 860 801 c 0,106,107
 917 714 917 714 916 614 c 0,108,109
 916 555 916 555 897 492 c 1,110,-1
 899 492 l 2,111,112
 900 492 900 492 902 490.5 c 128,-1,113
 904 489 904 489 910 485 c 128,-1,114
 916 481 916 481 922 477 c 1,115,-1
 895 442 l 1,53,-1
EndSplineSet
EndChar

StartChar: nine
Encoding: 57 57 30
Width: 1113
GlyphClass: 2
Flags: W
LayerCount: 2
Fore
SplineSet
449 965 m 1,0,-1
 449 967 l 1,1,2
 397 886 397 886 391 793 c 1,3,4
 392 793 392 793 416 768 c 1,5,-1
 397 750 l 1,6,-1
 410 686 l 2,7,8
 411 683 411 683 414.5 662 c 128,-1,9
 418 641 418 641 419 638 c 128,-1,10
 420 635 420 635 424 616.5 c 128,-1,11
 428 598 428 598 430 593.5 c 128,-1,12
 432 589 432 589 437 572.5 c 128,-1,13
 442 556 442 556 446 549 c 128,-1,14
 450 542 450 542 457 527.5 c 128,-1,15
 464 513 464 513 471.5 502 c 128,-1,16
 479 491 479 491 488.5 477 c 128,-1,17
 498 463 498 463 510 449 c 1,18,-1
 602 418 l 1,19,-1
 625 426 l 1,20,-1
 623 424 l 1,21,-1
 670 444 l 1,22,23
 699 469 699 469 723.5 542.5 c 128,-1,24
 748 616 748 616 748 662 c 2,25,-1
 748 788 l 2,26,27
 748 835 748 835 702 919 c 128,-1,28
 656 1003 656 1003 617 1014 c 1,29,-1
 541 1040 l 1,30,31
 519 1040 519 1040 500.5 1027.5 c 128,-1,32
 482 1015 482 1015 473.5 1003.5 c 128,-1,33
 465 992 465 992 449 965 c 1,0,-1
-35 -92 m 1,34,-1
 -39 -86 l 2,35,36
 -38 -89 -38 -89 -46 -90 c 0,37,38
 -56 -92 -56 -92 -110 -92 c 1,39,40
 48 7 48 7 205 57 c 0,41,42
 215 60 215 60 251.5 72 c 128,-1,43
 288 84 288 84 300 88.5 c 128,-1,44
 312 93 312 93 345 105 c 128,-1,45
 378 117 378 117 392 123.5 c 128,-1,46
 406 130 406 130 435 144 c 128,-1,47
 464 158 464 158 479.5 169 c 128,-1,48
 495 180 495 180 518.5 196.5 c 128,-1,49
 542 213 542 213 558 229.5 c 128,-1,50
 574 246 574 246 591.5 267.5 c 128,-1,51
 609 289 609 289 623 313 c 1,52,-1
 598 313 l 2,53,54
 532 313 532 313 488 322 c 1,55,56
 480 315 480 315 473 297 c 1,57,-1
 430 317 l 1,58,59
 433 324 433 324 437.5 325 c 128,-1,60
 442 326 442 326 465 326 c 1,61,62
 404 344 404 344 368 359.5 c 128,-1,63
 332 375 332 375 307.5 398 c 128,-1,64
 283 421 283 421 272.5 439.5 c 128,-1,65
 262 458 262 458 242 500 c 1,66,-1
 242 498 l 1,67,68
 241 498 241 498 209 557 c 1,69,-1
 211 557 l 1,70,71
 207 561 207 561 203 561 c 0,72,73
 190 561 190 561 158 553 c 1,74,-1
 129 612 l 1,75,-1
 146 616 l 1,76,-1
 129 647 l 1,77,78
 168 670 168 670 168 672 c 0,79,80
 186 723 186 723 186 786 c 2,81,-1
 186 834 l 2,82,83
 186 878 186 878 199 916 c 128,-1,84
 212 954 212 954 252 1006 c 0,85,86
 264 1021 264 1021 264 1034 c 0,87,88
 264 1051 264 1051 244 1085 c 1,89,-1
 313 1130 l 1,90,91
 341 1090 341 1090 361 1090 c 0,92,93
 367 1090 367 1090 379 1094 c 0,94,95
 407 1102 407 1102 465 1122.5 c 128,-1,96
 523 1143 523 1143 566 1155 c 128,-1,97
 609 1167 609 1167 635 1167 c 0,98,99
 665 1167 665 1167 706 1151.5 c 128,-1,100
 747 1136 747 1136 782 1130 c 1,101,-1
 778 1116 l 1,102,103
 879 1058 879 1058 935 969 c 128,-1,104
 991 880 991 880 991 762 c 0,105,106
 991 684 991 684 981.5 610 c 128,-1,107
 972 536 972 536 950 459.5 c 128,-1,108
 928 383 928 383 887 315 c 128,-1,109
 846 247 846 247 789 199 c 0,110,111
 665 96 665 96 506.5 3 c 128,-1,112
 348 -90 348 -90 211 -119 c 1,113,-1
 211 -131 l 1,114,115
 132 -131 132 -131 112 -140 c 128,-1,116
 92 -149 92 -149 84 -188 c 1,117,-1
 -18 -166 l 1,118,119
 -14 -128 -14 -128 -14 -125 c 0,120,121
 -14 -103 -14 -103 -35 -92 c 1,34,-1
EndSplineSet
EndChar

StartChar: colon
Encoding: 58 58 31
Width: 640
GlyphClass: 2
Flags: W
LayerCount: 2
Fore
SplineSet
151 330 m 1,0,-1
 149 334 l 1,1,-1
 137 322 l 1,2,-1
 106 358 l 1,3,4
 140 386 140 386 152 402 c 128,-1,5
 164 418 164 418 164 442 c 0,6,7
 164 463 164 463 137 500 c 1,8,-1
 196 543 l 1,9,10
 218 515 218 515 229.5 505.5 c 128,-1,11
 241 496 241 496 254 496 c 0,12,13
 260 496 260 496 273 499 c 128,-1,14
 286 502 286 502 291 502 c 0,15,16
 294 502 294 502 300 501 c 128,-1,17
 306 500 306 500 309 500 c 1,18,19
 310 501 310 501 312.5 502 c 128,-1,20
 315 503 315 503 317.5 505.5 c 128,-1,21
 320 508 320 508 328 519 c 128,-1,22
 336 530 336 530 348 551 c 1,23,-1
 405 522 l 1,24,25
 383 486 383 486 383 461 c 0,26,27
 383 441 383 441 395 426 c 1,28,-1
 395 428 l 1,29,30
 403 415 403 415 413 409 c 128,-1,31
 423 403 423 403 444 403 c 128,-1,32
 465 403 465 403 479 406 c 1,33,-1
 481 334 l 1,34,35
 465 330 465 330 461 330 c 1,36,-1
 475 295 l 1,37,38
 403 268 403 268 380.5 244 c 128,-1,39
 358 220 358 220 358 178 c 1,40,-1
 233 174 l 1,41,42
 230 217 230 217 209 236 c 1,43,44
 195 232 195 232 168 205 c 1,45,-1
 117 258 l 1,46,47
 151 293 151 293 151 315 c 0,48,49
 151 326 151 326 149 332 c 1,50,-1
 151 330 l 1,0,-1
209 831 m 1,51,-1
 153 883 l 1,52,53
 186 915 186 915 186 938 c 0,54,55
 186 942 186 942 182 954 c 1,56,-1
 184 954 l 1,57,-1
 176 963 l 1,58,-1
 112 932 l 1,59,-1
 94 975 l 1,60,-1
 334 1098 l 1,61,-1
 280 1085 l 1,62,-1
 272 1130 l 1,63,64
 297 1137 297 1137 299 1198 c 1,65,-1
 385 1198 l 1,66,67
 385 1179 385 1179 389 1159 c 1,68,69
 393 1162 393 1162 397 1165.5 c 128,-1,70
 401 1169 401 1169 406.5 1174.5 c 128,-1,71
 412 1180 412 1180 416 1184 c 1,72,-1
 438 1167 l 1,73,74
 443 1172 443 1172 447.5 1179.5 c 128,-1,75
 452 1187 452 1187 454 1192 c 1,76,-1
 455 1198 l 1,77,-1
 502 1159 l 1,78,-1
 473 1137 l 1,79,-1
 481 1130 l 1,80,81
 448 1087 448 1087 448 1071 c 2,82,-1
 448 1067 l 1,83,84
 462 1051 462 1051 498 1051 c 2,85,-1
 510 1051 l 1,86,-1
 512 958 l 1,87,88
 489 958 489 958 465 950 c 1,89,90
 476 928 476 928 498 911 c 1,91,-1
 438 840 l 1,92,93
 415 857 415 857 395 864 c 1,94,95
 389 846 389 846 389 825 c 0,96,97
 389 823 389 823 390 817.5 c 128,-1,98
 391 812 391 812 391 809 c 1,99,-1
 293 805 l 1,100,101
 287 847 287 847 252 870 c 1,102,103
 237 863 237 863 209 831 c 1,51,-1
EndSplineSet
EndChar

StartChar: semicolon
Encoding: 59 59 32
Width: 627
GlyphClass: 2
Flags: W
LayerCount: 2
Fore
SplineSet
200 -106 m 1,0,1
 175 -119 175 -119 153 -135 c 1,2,-1
 128 -94 l 1,3,-1
 133 -90 l 1,4,-1
 126 -76 l 1,5,-1
 149 -66 l 1,6,-1
 147 -66 l 1,7,8
 206 -40 206 -40 264 43.5 c 128,-1,9
 322 127 322 127 335 207 c 1,10,11
 324 224 324 224 308 241 c 128,-1,12
 292 258 292 258 280 258 c 0,13,14
 260 258 260 258 227 221 c 1,15,-1
 171 274 l 1,16,-1
 188 291 l 1,17,-1
 145 309 l 1,18,19
 174 377 174 377 174 410 c 0,20,21
 174 437 174 437 143 471 c 1,22,-1
 231 549 l 1,23,24
 264 511 264 511 294 508 c 1,25,26
 305 520 305 520 317 565 c 1,27,-1
 391 551 l 1,28,29
 384 518 384 518 384 508 c 0,30,31
 384 479 384 479 407 463 c 1,32,-1
 405 463 l 1,33,34
 505 383 505 383 505 270 c 0,35,36
 505 233 505 233 499 203 c 1,37,38
 499 138 499 138 430.5 39.5 c 128,-1,39
 362 -59 362 -59 301 -86 c 1,40,41
 255 -99 255 -99 231 -102 c 2,42,-1
 200 -106 l 1,0,1
167 934 m 2,43,44
 167 932 167 932 163 932 c 0,45,46
 160 932 160 932 128 938 c 1,47,-1
 137 985 l 1,48,-1
 161 979 l 1,49,50
 159 993 159 993 147.5 1004.5 c 128,-1,51
 136 1016 136 1016 106 1032 c 1,52,-1
 141 1098 l 1,53,54
 180 1077 180 1077 200 1077 c 0,55,56
 207 1077 207 1077 223 1085 c 1,57,-1
 221 1085 l 1,58,-1
 223 1087 l 1,59,-1
 180 1098 l 1,60,-1
 192 1145 l 1,61,62
 266 1124 266 1124 301 1124 c 0,63,64
 332 1124 332 1124 368 1163 c 1,65,-1
 458 1085 l 1,66,67
 423 1050 423 1050 423 1026 c 1,68,69
 441 1022 441 1022 473 1022 c 1,70,-1
 473 948 l 1,71,-1
 458 948 l 1,72,-1
 464 932 l 1,73,74
 408 901 408 901 387 878 c 128,-1,75
 366 855 366 855 366 823 c 0,76,77
 366 821 366 821 367 815.5 c 128,-1,78
 368 810 368 810 368 807 c 1,79,-1
 251 795 l 1,80,81
 251 830 251 830 237 850 c 1,82,83
 221 834 221 834 208 815 c 1,84,-1
 147 858 l 1,85,86
 174 897 174 897 174 913 c 1,87,-1
 167 934 l 2,43,44
188 291 m 1,88,89
 204 310 204 310 204 324 c 2,90,-1
 204 330 l 1,91,-1
 188 291 l 1,88,89
EndSplineSet
EndChar

StartChar: less
Encoding: 60 60 33
Width: 953
GlyphClass: 2
Flags: W
LayerCount: 2
Fore
SplineSet
875 92 m 2,0,-1
 843 53 l 1,1,-1
 843 49 l 1,2,3
 836 27 836 27 812 27 c 0,4,5
 768 27 768 27 456.5 273.5 c 128,-1,6
 145 520 145 520 44 621 c 1,7,-1
 21 604 l 1,8,-1
 -9 639 l 1,9,-1
 -17 641 l 1,10,-1
 -15 686 l 1,11,-1
 -3 686 l 2,12,13
 17 686 17 686 17 676 c 1,14,-1
 21 686 l 1,15,16
 16 686 16 686 -15 709 c 1,17,-1
 -11 774 l 1,18,-1
 52 725 l 1,19,20
 52 727 52 727 54 729 c 0,21,22
 102 764 102 764 212 861 c 128,-1,23
 322 958 322 958 380 997 c 1,24,-1
 404 1012 l 1,25,26
 635 1168 635 1168 732 1251 c 1,27,-1
 732 1253 l 2,28,29
 732 1262 732 1262 716 1317 c 1,30,-1
 777 1321 l 1,31,32
 793 1273 793 1273 802 1270 c 1,33,34
 829 1275 829 1275 890 1307 c 1,35,-1
 892 1249 l 1,36,37
 839 1217 839 1217 834 1210 c 2,38,-1
 814 1174 l 1,39,40
 803 1159 803 1159 688.5 1072 c 128,-1,41
 574 985 574 985 444 888.5 c 128,-1,42
 314 792 314 792 288 770 c 1,43,-1
 271 754 l 2,44,45
 267 751 267 751 258 741 c 128,-1,46
 249 731 249 731 242.5 726 c 128,-1,47
 236 721 236 721 230 719 c 1,48,49
 680 359 680 359 867 193 c 0,50,51
 885 178 885 178 906 178 c 2,52,-1
 916 178 l 2,53,54
 918 178 918 178 935 179 c 128,-1,55
 952 180 952 180 955 180 c 1,56,-1
 957 117 l 1,57,58
 889 110 889 110 875 92 c 2,0,-1
EndSplineSet
EndChar

StartChar: equal
Encoding: 61 61 34
Width: 925
GlyphClass: 2
Flags: W
LayerCount: 2
Fore
SplineSet
696 639 m 1,0,1
 692 641 692 641 692 643 c 2,2,-1
 692 629 l 1,3,-1
 696 639 l 1,0,1
739 559 m 1,4,-1
 723 547 l 1,5,-1
 725 545 l 1,6,-1
 739 559 l 1,4,-1
348 739 m 0,7,8
 307 739 307 739 278 725 c 1,9,10
 286 700 286 700 296.5 685.5 c 128,-1,11
 307 671 307 671 321.5 666.5 c 128,-1,12
 336 662 336 662 347 661 c 128,-1,13
 358 660 358 660 377.5 662 c 128,-1,14
 397 664 397 664 405 664 c 2,15,-1
 546 664 l 2,16,17
 610 664 610 664 641 709 c 1,18,19
 619 735 619 735 589 735 c 2,20,-1
 534 735 l 2,21,22
 504 735 504 735 441 737 c 128,-1,23
 378 739 378 739 348 739 c 0,7,8
135 741 m 1,24,25
 148 757 148 757 157 780 c 1,26,-1
 149 786 l 1,27,-1
 161 801 l 1,28,29
 158 831 158 831 129 891 c 1,30,-1
 153 940 l 1,31,32
 208 909 208 909 211 909 c 0,33,34
 213 909 213 909 221 918 c 1,35,-1
 223 918 l 2,36,37
 225 918 225 918 225 920 c 0,38,39
 225 929 225 929 211 981 c 1,40,-1
 274 985 l 1,41,42
 282 953 282 953 287 945.5 c 128,-1,43
 292 938 292 938 299 938 c 2,44,-1
 491 938 l 2,45,46
 517 938 517 938 564.5 934 c 128,-1,47
 612 930 612 930 634 930 c 2,48,-1
 651 930 l 1,49,50
 653 934 653 934 675 973 c 1,51,-1
 737 971 l 1,52,-1
 704 911 l 1,53,54
 706 912 706 912 724 917 c 128,-1,55
 742 922 742 922 755 928 c 1,56,-1
 759 870 l 1,57,58
 714 853 714 853 714 852 c 0,59,60
 714 847 714 847 716 838.5 c 128,-1,61
 718 830 718 830 718 817 c 1,62,-1
 716 805 l 1,63,-1
 721 805 l 2,64,65
 730 805 730 805 764 795 c 1,66,-1
 761 745 l 1,67,68
 744 749 744 749 733 752 c 128,-1,69
 722 755 722 755 716 757 c 128,-1,70
 710 759 710 759 708 760 c 2,71,-1
 710 758 l 1,72,-1
 708 758 l 1,73,74
 712 739 712 739 729 709 c 1,75,-1
 710 700 l 1,76,-1
 745 684 l 1,77,-1
 727 647 l 1,78,-1
 759 655 l 1,79,-1
 764 594 l 1,80,-1
 737 590 l 1,81,-1
 749 567 l 1,82,-1
 747 565 l 1,83,-1
 751 561 l 1,84,-1
 733 543 l 1,85,-1
 761 530 l 1,86,-1
 757 467 l 1,87,88
 746 472 746 472 734 476.5 c 128,-1,89
 722 481 722 481 712.5 484.5 c 128,-1,90
 703 488 703 488 700 489 c 1,91,92
 700 484 700 484 710 442 c 1,93,-1
 645 418 l 1,94,95
 639 439 639 439 627.5 453.5 c 128,-1,96
 616 468 616 468 605.5 475 c 128,-1,97
 595 482 595 482 578.5 485.5 c 128,-1,98
 562 489 562 489 552 489 c 128,-1,99
 542 489 542 489 524.5 488 c 128,-1,100
 507 487 507 487 501 487 c 2,101,-1
 450 487 l 2,102,103
 422 487 422 487 348.5 484 c 128,-1,104
 275 481 275 481 239 481 c 2,105,-1
 233 481 l 1,106,-1
 233 479 l 2,107,108
 233 474 233 474 213 449 c 1,109,-1
 174 475 l 1,110,111
 180 486 180 486 184.5 492.5 c 128,-1,112
 189 499 189 499 190 500.5 c 128,-1,113
 191 502 191 502 191.5 503 c 128,-1,114
 192 504 192 504 192 506 c 2,115,-1
 176 543 l 1,116,-1
 176 582 l 2,117,118
 176 591 176 591 159 600 c 1,119,-1
 137 600 l 1,120,121
 148 605 148 605 149 608 c 1,122,-1
 122 623 l 1,123,-1
 151 678 l 1,124,125
 196 650 196 650 206 647 c 1,126,127
 219 656 219 656 219 662 c 0,128,129
 219 672 219 672 215 684 c 1,130,-1
 135 741 l 1,24,25
EndSplineSet
EndChar

StartChar: greater
Encoding: 62 62 35
Width: 963
GlyphClass: 2
Flags: W
LayerCount: 2
Fore
SplineSet
265 1278 m 1,0,-1
 253 1247 l 1,1,2
 278 1227 278 1227 481.5 1079.5 c 128,-1,3
 685 932 685 932 824.5 817.5 c 128,-1,4
 964 703 964 703 964 666 c 128,-1,5
 964 629 964 629 857.5 541.5 c 128,-1,6
 751 454 751 454 590.5 338.5 c 128,-1,7
 430 223 430 223 374 174 c 1,8,-1
 374 131 l 1,9,-1
 366 166 l 1,10,11
 345 150 345 150 333 135 c 1,12,-1
 345 115 l 1,13,14
 275 79 275 79 249 47 c 128,-1,15
 223 15 223 15 216 -27 c 1,16,-1
 97 -6 l 1,17,-1
 97 23 l 2,18,19
 97 25 97 25 98 30 c 128,-1,20
 99 35 99 35 99 37 c 0,21,22
 99 58 99 58 98 65.5 c 128,-1,23
 97 73 97 73 89.5 84 c 128,-1,24
 82 95 82 95 63 98.5 c 128,-1,25
 44 102 44 102 11 102 c 1,26,-1
 11 172 l 1,27,28
 57 174 57 174 80 180 c 128,-1,29
 103 186 103 186 118 201 c 0,30,31
 227 307 227 307 453.5 481 c 128,-1,32
 680 655 680 655 751 717 c 1,33,34
 700 768 700 768 310 1051 c 1,35,-1
 274 1079 l 2,36,37
 226 1116 226 1116 190 1120 c 1,38,39
 171 1120 171 1120 138 1100 c 1,40,-1
 85 1198 l 1,41,42
 137 1226 137 1226 140 1266 c 1,43,44
 138 1271 138 1271 127.5 1290.5 c 128,-1,45
 117 1310 117 1310 110 1325 c 1,46,-1
 157 1368 l 1,47,48
 160 1353 160 1353 177 1323 c 1,49,-1
 188 1323 l 1,50,-1
 188 1307 l 1,51,52
 203 1283 203 1283 214 1276 c 1,53,-1
 222 1294 l 1,54,-1
 265 1278 l 1,0,-1
EndSplineSet
EndChar

StartChar: question
Encoding: 63 63 36
Width: 746
GlyphClass: 2
Flags: W
LayerCount: 2
Fore
SplineSet
469 342 m 1,0,-1
 459 336 l 1,1,-1
 473 336 l 1,2,3
 473 338 473 338 469 342 c 1,0,-1
269 528 m 1,4,-1
 275 524 l 1,5,-1
 275 500 l 1,6,-1
 285 522 l 1,7,8
 321 506 321 506 359 502 c 1,9,10
 379 502 379 502 412 535 c 1,11,-1
 492 455 l 1,12,13
 459 419 459 419 459 395 c 1,14,15
 479 393 479 393 512 391 c 1,16,-1
 510 319 l 1,17,-1
 475 319 l 2,18,19
 463 319 463 319 457 317 c 1,20,-1
 469 295 l 1,21,22
 419 270 419 270 401 253.5 c 128,-1,23
 383 237 383 237 383 219 c 0,24,25
 383 215 383 215 400 184 c 1,26,-1
 271 172 l 1,27,28
 263 222 263 222 256 229 c 1,29,30
 244 222 244 222 217 193 c 1,31,-1
 168 242 l 1,32,-1
 193 272 l 1,33,34
 193 277 193 277 199 283 c 1,35,-1
 199 281 l 1,36,37
 203 293 203 293 203 301 c 2,38,-1
 203 313 l 1,39,-1
 193 344 l 1,40,-1
 193 342 l 1,41,42
 192 342 192 342 168 371 c 1,43,-1
 203 401 l 1,44,-1
 211 391 l 1,45,-1
 211 403 l 2,46,47
 211 417 211 417 166 459 c 1,48,-1
 217 514 l 1,49,50
 244 488 244 488 262 481 c 1,51,-1
 269 528 l 1,4,-1
215 1053 m 1,52,53
 218 1055 218 1055 228.5 1059.5 c 128,-1,54
 239 1064 239 1064 247.5 1068.5 c 128,-1,55
 256 1073 256 1073 265 1078.5 c 128,-1,56
 274 1084 274 1084 279.5 1089 c 128,-1,57
 285 1094 285 1094 285 1098 c 0,58,59
 285 1104 285 1104 273 1147 c 1,60,-1
 348 1165 l 1,61,62
 354 1140 354 1140 360.5 1127.5 c 128,-1,63
 367 1115 367 1115 372 1112.5 c 128,-1,64
 377 1110 377 1110 387 1110 c 0,65,66
 435 1112 435 1112 527 1130 c 1,67,-1
 543 1147 l 1,68,69
 552 1160 552 1160 580 1194 c 1,70,71
 571 1234 571 1234 554 1263.5 c 128,-1,72
 537 1293 537 1293 518.5 1311 c 128,-1,73
 500 1329 500 1329 470.5 1344 c 128,-1,74
 441 1359 441 1359 418 1366.5 c 128,-1,75
 395 1374 395 1374 358 1386 c 128,-1,76
 321 1398 321 1398 297 1407 c 1,77,-1
 314 1376 l 1,78,-1
 271 1354 l 1,79,80
 240 1409 240 1409 212 1430.5 c 128,-1,81
 184 1452 184 1452 144 1452 c 1,82,-1
 144 1567 l 1,83,84
 196 1567 196 1567 219 1593 c 1,85,86
 213 1605 213 1605 185 1645 c 1,87,-1
 248 1688 l 1,88,89
 271 1653 271 1653 289 1642 c 1,90,-1
 322 1649 l 2,91,92
 328 1651 328 1651 344 1651 c 1,93,94
 346 1653 346 1653 365 1645 c 128,-1,95
 384 1637 384 1637 408.5 1628.5 c 128,-1,96
 433 1620 433 1620 445 1620 c 0,97,98
 456 1620 456 1620 486 1661 c 1,99,-1
 551 1614 l 1,100,101
 520 1577 520 1577 520 1567 c 0,102,103
 520 1564 520 1564 522 1561 c 128,-1,104
 524 1558 524 1558 527 1553.5 c 128,-1,105
 530 1549 530 1549 531 1546 c 1,106,-1
 590 1473 l 2,107,108
 608 1450 608 1450 615 1450 c 0,109,110
 628 1450 628 1450 664 1470 c 1,111,-1
 697 1393 l 1,112,113
 651 1374 651 1374 651 1358 c 1,114,115
 652 1347 652 1347 661.5 1300.5 c 128,-1,116
 671 1254 671 1254 672 1233 c 2,117,-1
 676 1163 l 2,118,119
 676 1155 676 1155 645 1088 c 128,-1,120
 614 1021 614 1021 606 1008 c 0,121,122
 552 924 552 924 529.5 906 c 128,-1,123
 507 888 507 888 443 881 c 2,124,-1
 410 877 l 1,125,-1
 398 854 l 2,126,127
 397 852 397 852 388 834.5 c 128,-1,128
 379 817 379 817 373 809 c 1,129,130
 373 803 373 803 371 792 c 128,-1,131
 369 781 369 781 370 775.5 c 128,-1,132
 371 770 371 770 375.5 762 c 128,-1,133
 380 754 380 754 393.5 748 c 128,-1,134
 407 742 407 742 430 737 c 1,135,-1
 426 672 l 1,136,137
 391 678 391 678 373 678 c 0,138,139
 348 678 348 678 344 561 c 1,140,-1
 283 561 l 1,141,-1
 283 596 l 2,142,143
 283 598 283 598 284 602 c 128,-1,144
 285 606 285 606 285 608 c 0,145,146
 285 636 285 636 273 688 c 1,147,148
 227 801 227 801 221 1038 c 1,149,-1
 215 1053 l 1,52,53
EndSplineSet
EndChar

StartChar: at
Encoding: 64 64 37
Width: 1568
GlyphClass: 2
Flags: W
LayerCount: 2
Fore
SplineSet
606 678 m 1,0,1
 608 676 608 676 612 676 c 1,2,-1
 614 707 l 1,3,-1
 606 678 l 1,0,1
377 662 m 1,4,-1
 397 616 l 1,5,6
 412 630 412 630 412 633 c 0,7,8
 412 639 412 639 409 645 c 1,9,-1
 407 662 l 1,10,-1
 407 657 l 1,11,12
 402 662 402 662 389 662 c 2,13,-1
 377 662 l 1,4,-1
637 715 m 1,14,-1
 637 686 l 1,15,-1
 641 682 l 1,16,17
 680 693 680 693 702 705 c 1,18,19
 745 722 745 722 856 863.5 c 128,-1,20
 967 1005 967 1005 967 1047 c 0,21,22
 967 1070 967 1070 954 1133 c 1,23,-1
 954 1143 l 1,24,-1
 913 1133 l 1,25,26
 813 1066 813 1066 728.5 949 c 128,-1,27
 644 832 644 832 620 717 c 1,28,-1
 637 715 l 1,14,-1
1309 1087 m 0,29,30
 1309 1183 1309 1183 1204 1325 c 1,31,32
 1196 1298 1196 1298 1196 1290 c 0,33,34
 1196 1278 1196 1278 1204 1253 c 128,-1,35
 1212 1228 1212 1228 1212 1227 c 0,36,37
 1212 1166 1212 1166 1170.5 1072 c 128,-1,38
 1129 978 1129 978 1074.5 872.5 c 128,-1,39
 1020 767 1020 767 1003 707 c 1,40,-1
 1003 705 l 1,41,42
 1150 732 1150 732 1229.5 830 c 128,-1,43
 1309 928 1309 928 1309 1087 c 0,29,30
334 872 m 0,44,45
 334 790 334 790 354 723 c 1,46,-1
 403 725 l 1,47,48
 422 839 422 839 525.5 969 c 128,-1,49
 629 1099 629 1099 765 1185.5 c 128,-1,50
 901 1272 901 1272 1007 1272 c 0,51,52
 1036 1272 1036 1272 1051.5 1274 c 128,-1,53
 1067 1276 1067 1276 1087 1285.5 c 128,-1,54
 1107 1295 1107 1295 1121 1317 c 128,-1,55
 1135 1339 1135 1339 1145 1376 c 1,56,-1
 1167 1368 l 1,57,58
 1072 1474 1072 1474 977 1516 c 1,59,60
 977 1508 977 1508 956 1475 c 1,61,-1
 897 1479 l 1,62,63
 904 1492 904 1492 911.5 1503.5 c 128,-1,64
 919 1515 919 1515 924.5 1523 c 128,-1,65
 930 1531 930 1531 932 1534 c 1,66,67
 924 1530 924 1530 905 1530 c 0,68,69
 790 1530 790 1530 682 1469 c 128,-1,70
 574 1408 574 1408 499 1313 c 128,-1,71
 424 1218 424 1218 379 1101 c 128,-1,72
 334 984 334 984 334 872 c 0,44,45
1466 987 m 1,73,-1
 1466 985 l 1,74,75
 1411 860 1411 860 1301.5 763.5 c 128,-1,76
 1192 667 1192 667 1040 580 c 1,77,78
 991 550 991 550 991 524 c 0,79,80
 991 514 991 514 999 485 c 1,81,-1
 903 471 l 1,82,83
 894 518 894 518 870 528 c 1,84,85
 818 528 818 528 760 494 c 1,86,-1
 719 565 l 1,87,88
 785 603 785 603 821 680 c 1,89,90
 754 621 754 621 674.5 580 c 128,-1,91
 595 539 595 539 528 539 c 0,92,93
 523 539 523 539 495 556 c 128,-1,94
 467 573 467 573 457 573 c 0,95,96
 450 573 450 573 430 559 c 1,97,98
 502 453 502 453 609.5 389.5 c 128,-1,99
 717 326 717 326 842 326 c 0,100,101
 903 326 903 326 959 339 c 128,-1,102
 1015 352 1015 352 1042.5 363.5 c 128,-1,103
 1070 375 1070 375 1134 406 c 1,104,-1
 1239 455 l 1,105,-1
 1249 457 l 1,106,107
 1233 457 1233 457 1233 463 c 1,108,-1
 1243 487 l 1,109,-1
 1288 473 l 1,110,-1
 1284 459 l 1,111,-1
 1298 463 l 1,112,-1
 1311 418 l 1,113,114
 1305 416 1305 416 1299 414 c 128,-1,115
 1293 412 1293 412 1290.5 411 c 128,-1,116
 1288 410 1288 410 1286 410 c 0,117,118
 1282 410 1282 410 1282 422 c 1,119,120
 1278 381 1278 381 1228.5 337.5 c 128,-1,121
 1179 294 1179 294 1113 263.5 c 128,-1,122
 1047 233 1047 233 983 213 c 128,-1,123
 919 193 919 193 883 193 c 0,124,125
 760 193 760 193 646 220 c 128,-1,126
 532 247 532 247 433 303.5 c 128,-1,127
 334 360 334 360 260 439.5 c 128,-1,128
 186 519 186 519 144 631 c 128,-1,129
 102 743 102 743 102 874 c 0,130,131
 102 1118 102 1118 204.5 1282.5 c 128,-1,132
 307 1447 307 1447 524 1556 c 1,133,134
 716 1655 716 1655 794 1655 c 2,135,-1
 997 1655 l 2,136,137
 1057 1655 1057 1655 1120.5 1626.5 c 128,-1,138
 1184 1598 1184 1598 1237.5 1551.5 c 128,-1,139
 1291 1505 1291 1505 1334.5 1453 c 128,-1,140
 1378 1401 1378 1401 1409 1348 c 1,141,-1
 1419 1360 l 1,142,-1
 1452 1329 l 1,143,-1
 1442 1319 l 1,144,-1
 1444 1319 l 1,145,-1
 1431 1305 l 1,146,147
 1450 1305 1450 1305 1493 1319 c 1,148,-1
 1495 1262 l 1,149,-1
 1448 1249 l 1,150,151
 1451 1186 1451 1186 1472 1100 c 0,152,153
 1474 1089 1474 1089 1486 1083.5 c 128,-1,154
 1498 1078 1498 1078 1536 1077 c 1,155,-1
 1534 1004 l 1,156,-1
 1497 1004 l 2,157,158
 1469 1004 1469 1004 1466 987 c 1,73,-1
EndSplineSet
EndChar

StartChar: A
Encoding: 65 65 38
Width: 1144
GlyphClass: 2
Flags: W
LayerCount: 2
Fore
SplineSet
496 979 m 1,0,1
 522 965 522 965 522 956 c 0,2,3
 522 952 522 952 514 952 c 128,-1,4
 506 952 506 952 483 957.5 c 128,-1,5
 460 963 460 963 455 963 c 0,6,7
 452 963 452 963 445 959.5 c 128,-1,8
 438 956 438 956 427 947 c 128,-1,9
 416 938 416 938 406.5 925 c 128,-1,10
 397 912 397 912 390 890 c 128,-1,11
 383 868 383 868 383 842 c 0,12,13
 383 825 383 825 385 817 c 1,14,-1
 430 801 l 1,15,16
 472 801 472 801 497.5 806 c 128,-1,17
 523 811 523 811 548 820.5 c 128,-1,18
 573 830 573 830 594 834 c 1,19,-1
 627 844 l 1,20,21
 598 905 598 905 598 926 c 0,22,23
 598 966 598 966 570.5 1105 c 128,-1,24
 543 1244 543 1244 528 1292 c 1,25,-1
 440 1092 l 1,26,-1
 440 1071 l 1,27,28
 445 1066 445 1066 449 1030 c 1,29,-1
 449 1022 l 1,30,31
 451 1009 451 1009 460 999.5 c 128,-1,32
 469 990 469 990 496 979 c 1,0,1
741 352 m 1,33,-1
 729 532 l 1,34,35
 694 558 694 558 675.5 610 c 128,-1,36
 657 662 657 662 657 711 c 0,37,38
 657 713 657 713 658.5 717 c 128,-1,39
 660 721 660 721 660 723 c 1,40,-1
 629 680 l 2,41,42
 621 669 621 669 621 653 c 0,43,44
 621 652 621 652 630 630.5 c 128,-1,45
 639 609 639 609 639 592 c 0,46,47
 639 577 639 577 633 571 c 1,48,49
 604 619 604 619 590.5 631 c 128,-1,50
 577 643 577 643 557 643 c 2,51,-1
 334 643 l 1,52,-1
 348 588 l 2,53,54
 351 575 351 575 387.5 548.5 c 128,-1,55
 424 522 424 522 426 506 c 1,56,57
 382 522 382 522 356 522 c 0,58,59
 344 522 344 522 328 510 c 1,60,-1
 309 483 l 1,61,-1
 309 289 l 1,62,-1
 385 293 l 2,63,64
 396 293 396 293 416.5 288 c 128,-1,65
 437 283 437 283 447 283 c 0,66,67
 451 283 451 283 473.5 293 c 128,-1,68
 496 303 496 303 516 303 c 0,69,70
 524 303 524 303 528 301 c 1,71,72
 489 277 489 277 476.5 264.5 c 128,-1,73
 464 252 464 252 461 238 c 1,74,-1
 461 215 l 2,75,76
 461 214 461 214 460 212 c 128,-1,77
 459 210 459 210 459 209 c 0,78,79
 459 201 459 201 465.5 197.5 c 128,-1,80
 472 194 472 194 481 193 c 128,-1,81
 490 192 490 192 501.5 184.5 c 128,-1,82
 513 177 513 177 520 162 c 1,83,84
 475 176 475 176 461 176 c 0,85,86
 449 176 449 176 449 160 c 1,87,88
 452 137 452 137 494 84 c 1,89,90
 530 124 530 124 543 154 c 0,91,92
 547 165 547 165 570.5 208 c 128,-1,93
 594 251 594 251 594 264 c 0,94,95
 594 267 594 267 579.5 292.5 c 128,-1,96
 565 318 565 318 565 332 c 0,97,98
 565 339 565 339 574 346 c 1,99,100
 616 283 616 283 641 283 c 0,101,102
 643 283 643 283 647 284 c 128,-1,103
 651 285 651 285 653 285 c 2,104,-1
 684 289 l 1,105,-1
 741 352 l 1,33,-1
47 510 m 1,106,-1
 53 541 l 1,107,108
 84 530 84 530 88 530 c 0,109,110
 107 530 107 530 138.5 582.5 c 128,-1,111
 170 635 170 635 188 647 c 1,112,113
 186 668 186 668 186 705 c 0,114,115
 186 727 186 727 191.5 771.5 c 128,-1,116
 197 816 197 816 197 840 c 0,117,118
 197 849 197 849 167.5 870 c 128,-1,119
 138 891 138 891 137 905 c 1,120,-1
 137 909 l 1,121,122
 179 891 179 891 201 891 c 0,123,124
 219 891 219 891 240.5 936.5 c 128,-1,125
 262 982 262 982 262 1006 c 0,126,127
 262 1016 262 1016 238.5 1038 c 128,-1,128
 215 1060 215 1060 213 1073 c 0,129,130
 213 1079 213 1079 215 1083 c 1,131,132
 265 1053 265 1053 281 1053 c 0,133,134
 291 1053 291 1053 305 1067 c 1,135,136
 303 1075 303 1075 303 1092 c 0,137,138
 303 1140 303 1140 338 1229 c 128,-1,139
 373 1318 373 1318 373 1368 c 0,140,141
 373 1372 373 1372 372 1380 c 128,-1,142
 371 1388 371 1388 371 1393 c 0,143,144
 371 1399 371 1399 338 1425 c 1,145,-1
 348 1454 l 1,146,147
 378 1440 378 1440 381 1440 c 0,148,149
 404 1440 404 1440 445.5 1476.5 c 128,-1,150
 487 1513 487 1513 536 1564.5 c 128,-1,151
 585 1616 585 1616 606 1632 c 1,152,153
 606 1652 606 1652 621 1692 c 1,154,-1
 645 1692 l 1,155,156
 643 1680 643 1680 643 1640 c 0,157,158
 643 1626 643 1626 647 1620 c 1,159,160
 667 1558 667 1558 704.5 1482.5 c 128,-1,161
 742 1407 742 1407 773.5 1350 c 128,-1,162
 805 1293 805 1293 834 1216.5 c 128,-1,163
 863 1140 863 1140 873 1069 c 0,164,165
 879 1024 879 1024 892 991 c 128,-1,166
 905 958 905 958 918.5 939.5 c 128,-1,167
 932 921 932 921 945 903.5 c 128,-1,168
 958 886 958 886 966.5 860.5 c 128,-1,169
 975 835 975 835 975 799 c 1,170,171
 976 788 976 788 973.5 762 c 128,-1,172
 971 736 971 736 971 719 c 2,173,-1
 971 655 l 1,174,175
 1032 571 1032 571 1051 446 c 1,176,177
 1057 416 1057 416 1098 377 c 0,178,179
 1110 365 1110 365 1110 350 c 1,180,-1
 1112 344 l 1,181,182
 1072 378 1072 378 1052 388.5 c 128,-1,183
 1032 399 1032 399 1014 399 c 2,184,-1
 997 399 l 1,185,-1
 1008 297 l 1,186,187
 1036 285 1036 285 1053.5 264.5 c 128,-1,188
 1071 244 1071 244 1078 226.5 c 128,-1,189
 1085 209 1085 209 1101 195.5 c 128,-1,190
 1117 182 1117 182 1143 182 c 0,191,192
 1145 182 1145 182 1204 228 c 128,-1,193
 1263 274 1263 274 1282 274 c 1,194,195
 1271 260 1271 260 1244.5 233.5 c 128,-1,196
 1218 207 1218 207 1198 186.5 c 128,-1,197
 1178 166 1178 166 1178 162 c 0,198,199
 1178 157 1178 157 1182 147 c 1,200,-1
 1182 145 l 1,201,202
 1186 139 1186 139 1207 133 c 128,-1,203
 1228 127 1228 127 1249 123 c 2,204,-1
 1270 119 l 1,205,206
 1270 114 1270 114 1237 111 c 0,207,208
 1222 110 1222 110 1213 107 c 128,-1,209
 1204 104 1204 104 1201 101 c 128,-1,210
 1198 98 1198 98 1195 94.5 c 128,-1,211
 1192 91 1192 91 1188 90 c 0,212,213
 1165 80 1165 80 1152.5 61 c 128,-1,214
 1140 42 1140 42 1138.5 25.5 c 128,-1,215
 1137 9 1137 9 1133 -3.5 c 128,-1,216
 1129 -16 1129 -16 1120 -16 c 0,217,218
 1101 -16 1101 -16 1067 23 c 128,-1,219
 1033 62 1033 62 1010 102 c 1,220,-1
 961 74 l 1,221,222
 950 69 950 69 942 3.5 c 128,-1,223
 934 -62 934 -62 932 -117 c 0,224,225
 932 -138 932 -138 913 -145 c 1,226,227
 913 -79 913 -79 873 -8.5 c 128,-1,228
 833 62 833 62 780.5 104.5 c 128,-1,229
 728 147 728 147 690 147 c 0,230,231
 670 147 670 147 600 143 c 1,232,-1
 567 129 l 2,233,234
 566 129 566 129 528.5 98.5 c 128,-1,235
 491 68 491 68 477 68 c 1,236,-1
 485 76 l 1,237,-1
 483 76 l 2,238,239
 479 76 479 76 445 105.5 c 128,-1,240
 411 135 411 135 399 135 c 2,241,-1
 254 127 l 1,242,243
 223 101 223 101 162 90 c 1,244,245
 147 64 147 64 95.5 52 c 128,-1,246
 44 40 44 40 -21 30.5 c 128,-1,247
 -86 21 -86 21 -117 4 c 0,248,249
 -125 0 -125 0 -133 0 c 0,250,251
 -139 0 -139 0 -143 2 c 1,252,253
 -84 37 -84 37 -59 66 c 1,254,-1
 -22 119 l 2,255,256
 -14 130 -14 130 -8 174 c 1,257,258
 -8 186 -8 186 -2 193 c 1,259,260
 -6 156 -6 156 -6 127 c 0,261,262
 -6 119 -6 119 -2 115 c 1,263,-1
 -2 135 l 2,264,265
 -2 199 -2 199 43 201 c 1,266,267
 43 273 43 273 123 297 c 1,268,-1
 100 463 l 2,269,270
 97 481 97 481 47 510 c 1,106,-1
EndSplineSet
EndChar

StartChar: B
Encoding: 66 66 39
Width: 1456
GlyphClass: 2
Flags: W
LayerCount: 2
Fore
SplineSet
734 756 m 2,0,-1
 734 639 l 2,1,2
 734 623 734 623 737 615 c 128,-1,3
 740 607 740 607 757 598.5 c 128,-1,4
 774 590 774 590 809 582 c 1,5,-1
 803 557 l 1,6,7
 773 563 773 563 754 563 c 0,8,9
 727 563 727 563 717 545.5 c 128,-1,10
 707 528 707 528 707 492 c 2,11,-1
 707 440 l 2,12,13
 707 427 707 427 731.5 410 c 128,-1,14
 756 393 756 393 775 393 c 0,15,16
 785 393 785 393 795 410 c 128,-1,17
 805 427 805 427 805 442 c 0,18,19
 805 464 805 464 760 512 c 1,20,-1
 775 526 l 1,21,22
 821 479 821 479 842 479 c 0,23,24
 875 479 875 479 898 503 c 128,-1,25
 921 527 921 527 931 567.5 c 128,-1,26
 941 608 941 608 945 644 c 128,-1,27
 949 680 949 680 949 719 c 0,28,29
 949 744 949 744 868.5 818.5 c 128,-1,30
 788 893 788 893 766 893 c 2,31,-1
 752 893 l 2,32,33
 734 893 734 893 727 874 c 2,34,-1
 707 825 l 1,35,-1
 695 840 l 1,36,37
 714 811 714 811 734 811 c 0,38,39
 750 811 750 811 799 829 c 1,40,-1
 805 811 l 1,41,42
 758 793 758 793 746 783 c 128,-1,43
 734 773 734 773 734 756 c 2,0,-1
789 1485 m 1,44,-1
 738 1255 l 1,45,46
 738 1143 738 1143 719 1110 c 1,47,-1
 715 1102 l 1,48,-1
 718 1096 l 2,49,50
 720 1091 720 1091 725 1082 c 128,-1,51
 730 1073 730 1073 736 1064 c 128,-1,52
 742 1055 742 1055 749.5 1048.5 c 128,-1,53
 757 1042 757 1042 764 1042 c 2,54,-1
 777 1042 l 2,55,56
 780 1042 780 1042 853.5 1079 c 128,-1,57
 927 1116 927 1116 943 1116 c 0,58,59
 945 1116 945 1116 949 1112 c 1,60,61
 949 1131 949 1131 936.5 1145.5 c 128,-1,62
 924 1160 924 1160 879 1186 c 1,63,-1
 889 1202 l 1,64,65
 944 1171 944 1171 963 1171 c 0,66,67
 968 1171 968 1171 988 1180 c 2,68,-1
 1008 1190 l 2,69,70
 1010 1192 1010 1192 1057 1269 c 1,71,-1
 1063 1278 l 1,72,73
 1063 1291 1063 1291 1047 1300 c 128,-1,74
 1031 1309 1031 1309 1018 1309 c 0,75,76
 993 1309 993 1309 949 1260 c 1,77,-1
 928 1278 l 1,78,79
 969 1322 969 1322 969 1348 c 0,80,81
 969 1359 969 1359 959 1376 c 2,82,-1
 930 1430 l 2,83,84
 931 1428 931 1428 912 1442.5 c 128,-1,85
 893 1457 893 1457 864 1475.5 c 128,-1,86
 835 1494 835 1494 818 1499 c 1,87,88
 797 1499 797 1499 789 1485 c 1,44,-1
464 276 m 1,89,-1
 472 301 l 1,90,91
 522 283 522 283 525 283 c 0,92,93
 546 283 546 283 571.5 323 c 128,-1,94
 597 363 597 363 597 385 c 0,95,96
 597 408 597 408 580.5 449.5 c 128,-1,97
 564 491 564 491 564 516 c 0,98,99
 564 533 564 533 554 543 c 0,100,101
 480 609 480 609 480 944 c 2,102,-1
 480 1024 l 2,103,104
 480 1051 480 1051 460.5 1096.5 c 128,-1,105
 441 1142 441 1142 437 1157 c 0,106,107
 425 1209 425 1209 425 1257 c 0,108,109
 425 1284 425 1284 428 1339 c 128,-1,110
 431 1394 431 1394 431 1423 c 1,111,112
 427 1450 427 1450 409 1450 c 0,113,114
 399 1450 399 1450 385.5 1446 c 128,-1,115
 372 1442 372 1442 370 1442 c 0,116,117
 335 1442 335 1442 273 1472.5 c 128,-1,118
 211 1503 211 1503 177 1503 c 0,119,120
 167 1503 167 1503 155 1499 c 1,121,-1
 204 1440 l 1,122,-1
 151 1495 l 1,123,124
 133 1488 133 1488 108 1452 c 1,125,-1
 75 1475 l 1,126,127
 101 1511 101 1511 101 1540 c 1,128,129
 33 1595 33 1595 -15 1618 c 1,130,-1
 3 1659 l 1,131,132
 59 1631 59 1631 140.5 1616.5 c 128,-1,133
 222 1602 222 1602 284 1602 c 0,134,135
 336 1602 336 1602 434 1631.5 c 128,-1,136
 532 1661 532 1661 585 1661 c 0,137,138
 614 1661 614 1661 663.5 1638.5 c 128,-1,139
 713 1616 713 1616 744 1616 c 0,140,141
 761 1616 761 1616 773 1627.5 c 128,-1,142
 785 1639 785 1639 785 1653 c 0,143,144
 785 1670 785 1670 760 1724 c 1,145,-1
 773 1731 l 1,146,147
 795 1685 795 1685 806.5 1673 c 128,-1,148
 818 1661 818 1661 832 1661 c 2,149,-1
 838 1661 l 2,150,151
 866 1661 866 1661 880.5 1674 c 128,-1,152
 895 1687 895 1687 910 1737 c 1,153,-1
 938 1729 l 1,154,155
 930 1696 930 1696 930 1675 c 128,-1,156
 930 1654 930 1654 945 1636 c 128,-1,157
 960 1618 960 1618 981 1618 c 0,158,159
 987 1618 987 1618 990.5 1619 c 128,-1,160
 994 1620 994 1620 998 1627 c 128,-1,161
 1002 1634 1002 1634 1002 1647 c 0,162,163
 1002 1673 1002 1673 986 1724 c 1,164,-1
 1002 1729 l 1,165,166
 1008 1709 1008 1709 1015.5 1692.5 c 128,-1,167
 1023 1676 1023 1676 1029 1664 c 128,-1,168
 1035 1652 1035 1652 1045.5 1642.5 c 128,-1,169
 1056 1633 1056 1633 1062 1626.5 c 128,-1,170
 1068 1620 1068 1620 1081.5 1615.5 c 128,-1,171
 1095 1611 1095 1611 1099.5 1609 c 128,-1,172
 1104 1607 1104 1607 1119.5 1605.5 c 128,-1,173
 1135 1604 1135 1604 1138 1604 c 128,-1,174
 1141 1604 1141 1604 1158 1604 c 128,-1,175
 1175 1604 1175 1604 1176 1604 c 0,176,177
 1192 1604 1192 1604 1213 1616 c 1,178,-1
 1252 1651 l 1,179,-1
 1264 1628 l 1,180,181
 1256 1621 1256 1621 1249 1614 c 128,-1,182
 1242 1607 1242 1607 1238 1602.5 c 128,-1,183
 1234 1598 1234 1598 1230 1594 c 2,184,-1
 1227 1591 l 1,185,186
 1219 1581 1219 1581 1215 1565 c 1,187,188
 1221 1545 1221 1545 1239 1542 c 1,189,190
 1278 1523 1278 1523 1297.5 1409 c 128,-1,191
 1317 1295 1317 1295 1317 1202 c 0,192,193
 1317 1118 1317 1118 1229 1030 c 0,194,195
 1224 1024 1224 1024 1220 1014 c 1,196,197
 1216 994 1216 994 1195.5 981.5 c 128,-1,198
 1175 969 1175 969 1153.5 964.5 c 128,-1,199
 1132 960 1132 960 1114 950 c 128,-1,200
 1096 940 1096 940 1096 924 c 1,201,202
 1097 918 1097 918 1101.5 889.5 c 128,-1,203
 1106 861 1106 861 1110.5 843.5 c 128,-1,204
 1115 826 1115 826 1120 817 c 1,205,206
 1157 780 1157 780 1157 696 c 0,207,208
 1157 634 1157 634 1132 511.5 c 128,-1,209
 1107 389 1107 389 1071 377 c 1,210,211
 1064 377 1064 377 1026.5 287 c 128,-1,212
 989 197 989 197 977 197 c 0,213,214
 968 197 968 197 949 199 c 128,-1,215
 930 201 930 201 920 201 c 0,216,217
 908 201 908 201 895.5 189 c 128,-1,218
 883 177 883 177 859 139 c 1,219,-1
 844 147 l 1,220,221
 879 198 879 198 879 219 c 0,222,223
 879 235 879 235 866.5 246.5 c 128,-1,224
 854 258 854 258 834 263 c 128,-1,225
 814 268 814 268 797.5 270 c 128,-1,226
 781 272 781 272 764 272 c 0,227,228
 737 272 737 272 724 262.5 c 128,-1,229
 711 253 711 253 709 240.5 c 128,-1,230
 707 228 707 228 698.5 214.5 c 128,-1,231
 690 201 690 201 673 195 c 1,232,233
 657 188 657 188 647.5 167.5 c 128,-1,234
 638 147 638 147 624 131 c 128,-1,235
 610 115 610 115 579 115 c 0,236,237
 555 115 555 115 539 146 c 128,-1,238
 523 177 523 177 523 197 c 2,239,-1
 523 229 l 2,240,241
 523 249 523 249 505 260 c 1,242,243
 502 260 502 260 464 276 c 1,89,-1
EndSplineSet
EndChar

StartChar: C
Encoding: 67 67 40
Width: 1176
GlyphClass: 2
Flags: W
LayerCount: 2
Fore
SplineSet
387 127 m 1,0,1
 377 113 377 113 372.5 95.5 c 128,-1,2
 368 78 368 78 367 27 c 1,3,-1
 355 27 l 1,4,-1
 355 51 l 2,5,6
 355 90 355 90 350.5 104.5 c 128,-1,7
 346 119 346 119 336 129 c 0,8,9
 324 141 324 141 311 141 c 0,10,11
 279 141 279 141 244 123 c 1,12,-1
 240 139 l 1,13,14
 288 156 288 156 301 166 c 128,-1,15
 314 176 314 176 314 190 c 2,16,-1
 316 223 l 2,17,18
 316 227 316 227 312.5 232 c 128,-1,19
 309 237 309 237 307 240 c 0,20,21
 184 383 184 383 127 605 c 128,-1,22
 70 827 70 827 70 1085 c 0,23,24
 70 1094 70 1094 71 1114 c 128,-1,25
 72 1134 72 1134 72 1143 c 2,26,-1
 78 1243 l 2,27,28
 78 1257 78 1257 75 1264 c 128,-1,29
 72 1271 72 1271 56 1281 c 128,-1,30
 40 1291 40 1291 6 1303 c 1,31,-1
 15 1321 l 1,32,33
 63 1305 63 1305 76 1305 c 0,34,35
 90 1305 90 1305 207.5 1425 c 128,-1,36
 325 1545 325 1545 332 1548 c 0,37,38
 340 1552 340 1552 345 1557 c 128,-1,39
 350 1562 350 1562 358 1581.5 c 128,-1,40
 366 1601 366 1601 373 1634 c 1,41,-1
 385 1632 l 1,42,43
 375 1577 375 1577 375 1565 c 0,44,45
 375 1519 375 1519 438 1513 c 1,46,47
 447 1529 447 1529 447 1536 c 0,48,49
 447 1560 447 1560 410 1614 c 1,50,-1
 426 1624 l 1,51,52
 455 1581 455 1581 470 1568.5 c 128,-1,53
 485 1556 485 1556 504 1556 c 2,54,-1
 672 1556 l 2,55,56
 694 1556 694 1556 706 1568.5 c 128,-1,57
 718 1581 718 1581 733 1630 c 1,58,-1
 758 1622 l 1,59,60
 744 1581 744 1581 744 1561 c 0,61,62
 744 1537 744 1537 779 1514 c 128,-1,63
 814 1491 814 1491 840 1491 c 0,64,65
 851 1491 851 1491 860 1501 c 128,-1,66
 869 1511 869 1511 869 1524 c 2,67,-1
 869 1532 l 2,68,69
 869 1548 869 1548 858 1566.5 c 128,-1,70
 847 1585 847 1585 811 1622 c 1,71,-1
 821 1632 l 1,72,73
 859 1596 859 1596 877 1585.5 c 128,-1,74
 895 1575 895 1575 912 1575 c 2,75,-1
 959 1575 l 2,76,77
 984 1575 984 1575 998.5 1540.5 c 128,-1,78
 1013 1506 1013 1506 1020 1464.5 c 128,-1,79
 1027 1423 1027 1423 1032 1417 c 0,80,81
 1047 1398 1047 1398 1063 1350.5 c 128,-1,82
 1079 1303 1079 1303 1086 1296 c 0,83,84
 1094 1288 1094 1288 1096.5 1285.5 c 128,-1,85
 1099 1283 1099 1283 1106.5 1278 c 128,-1,86
 1114 1273 1114 1273 1122.5 1271.5 c 128,-1,87
 1131 1270 1131 1270 1143 1270 c 0,88,89
 1159 1270 1159 1270 1198 1276 c 1,90,-1
 1200 1255 l 1,91,92
 1137 1247 1137 1247 1117.5 1230.5 c 128,-1,93
 1098 1214 1098 1214 1098 1180 c 0,94,95
 1098 1148 1098 1148 1147 1104 c 1,96,-1
 1131 1090 l 1,97,98
 1081 1139 1081 1139 1055 1139 c 0,99,100
 1045 1139 1045 1139 1041 1137 c 1,101,-1
 1039 1137 l 1,102,103
 1024 1132 1024 1132 1020 1120 c 128,-1,104
 1016 1108 1016 1108 1016 1079 c 0,105,106
 1016 1068 1016 1068 1020 1020 c 1,107,-1
 1012 1020 l 1,108,109
 1007 1075 1007 1075 999 1105.5 c 128,-1,110
 991 1136 991 1136 984 1141.5 c 128,-1,111
 977 1147 977 1147 969.5 1157 c 128,-1,112
 962 1167 962 1167 959 1186 c 0,113,114
 959 1192 959 1192 923.5 1224.5 c 128,-1,115
 888 1257 888 1257 845 1298 c 128,-1,116
 802 1339 802 1339 789 1362 c 0,117,118
 781 1376 781 1376 764 1376 c 2,119,-1
 545 1376 l 2,120,121
 532 1376 532 1376 521.5 1361.5 c 128,-1,122
 511 1347 511 1347 498.5 1330.5 c 128,-1,123
 486 1314 486 1314 471 1311 c 1,124,125
 449 1305 449 1305 431.5 1263.5 c 128,-1,126
 414 1222 414 1222 394.5 1165 c 128,-1,127
 375 1108 375 1108 355 1081 c 1,128,129
 359 1035 359 1035 360.5 910 c 128,-1,130
 362 785 362 785 365 772 c 1,131,132
 391 744 391 744 411 691 c 128,-1,133
 431 638 431 638 461 573 c 128,-1,134
 491 508 491 508 539 453 c 0,135,136
 544 448 544 448 552 440 c 128,-1,137
 560 432 560 432 564 427.5 c 128,-1,138
 568 423 568 423 574.5 417 c 128,-1,139
 581 411 581 411 584 408.5 c 128,-1,140
 587 406 587 406 592 402 c 128,-1,141
 597 398 597 398 599.5 396 c 128,-1,142
 602 394 602 394 606 392 c 128,-1,143
 610 390 610 390 613 389.5 c 128,-1,144
 616 389 616 389 619 389 c 128,-1,145
 622 389 622 389 626 390.5 c 128,-1,146
 630 392 630 392 633 393.5 c 128,-1,147
 636 395 636 395 641 399 c 128,-1,148
 646 403 646 403 649 406 c 0,149,150
 652 410 652 410 659 416 c 2,151,-1
 617 375 l 1,152,153
 719 375 719 375 772 354 c 1,154,155
 781 354 781 354 787 360 c 1,156,-1
 862 416 l 1,157,158
 868 422 868 422 881 447.5 c 128,-1,159
 894 473 894 473 903 483 c 0,160,161
 977 561 977 561 1022 592 c 1,162,163
 1028 616 1028 616 1041.5 647 c 128,-1,164
 1055 678 1055 678 1065.5 697.5 c 128,-1,165
 1076 717 1076 717 1077 717 c 1,166,167
 1075 713 1075 713 1075 705 c 2,168,-1
 1075 612 l 1,169,-1
 1079 612 l 2,170,171
 1093 612 1093 612 1110 602 c 1,172,-1
 1075 553 l 1,173,-1
 1075 442 l 2,174,175
 1075 419 1075 419 1065 392.5 c 128,-1,176
 1055 366 1055 366 1039.5 335.5 c 128,-1,177
 1024 305 1024 305 1018 287 c 1,178,179
 1018 262 1018 262 1065 223 c 1,180,-1
 1049 205 l 1,181,182
 1007 244 1007 244 985 244 c 0,183,184
 974 244 974 244 961 233 c 1,185,-1
 959 233 l 2,186,187
 956 233 956 233 953.5 227.5 c 128,-1,188
 951 222 951 222 950 216 c 1,189,-1
 948 211 l 1,190,-1
 948 -16 l 1,191,-1
 922 -16 l 1,192,-1
 922 39 l 2,193,194
 922 106 922 106 895.5 134 c 128,-1,195
 869 162 869 162 807 162 c 2,196,-1
 785 162 l 1,197,-1
 592 133 l 2,198,199
 590 132 590 132 586.5 130 c 128,-1,200
 583 128 583 128 582 127.5 c 128,-1,201
 581 127 581 127 578.5 125 c 128,-1,202
 576 123 576 123 575.5 121.5 c 128,-1,203
 575 120 575 120 574 117.5 c 128,-1,204
 573 115 573 115 572.5 111.5 c 128,-1,205
 572 108 572 108 572 104 c 2,206,-1
 574 27 l 1,207,-1
 559 25 l 1,208,-1
 557 98 l 2,209,210
 557 109 557 109 548.5 118 c 128,-1,211
 540 127 540 127 529 127 c 2,212,-1
 459 129 l 2,213,214
 443 129 443 129 400 68 c 1,215,-1
 391 74 l 1,216,217
 430 129 430 129 430 141 c 1,218,219
 424 147 424 147 416 147 c 0,220,221
 398 147 398 147 387 127 c 1,0,1
EndSplineSet
EndChar

StartChar: D
Encoding: 68 68 41
Width: 1377
GlyphClass: 2
Flags: W
LayerCount: 2
Fore
SplineSet
489 346 m 1,0,-1
 496 350 l 1,1,2
 526 350 526 350 534.5 370.5 c 128,-1,3
 543 391 543 391 543 444 c 1,4,-1
 565 444 l 1,5,6
 569 376 569 376 592 365 c 1,7,8
 604 365 604 365 625 378 c 128,-1,9
 646 391 646 391 661 391 c 0,10,11
 669 391 669 391 686 387 c 128,-1,12
 703 383 703 383 709 383 c 0,13,14
 727 383 727 383 737 403 c 128,-1,15
 747 423 747 423 775.5 445 c 128,-1,16
 804 467 804 467 831 482 c 128,-1,17
 858 497 858 497 879.5 517.5 c 128,-1,18
 901 538 901 538 901 557 c 128,-1,19
 901 576 901 576 860 616 c 1,20,-1
 881 639 l 1,21,22
 919 600 919 600 940 600 c 0,23,24
 953 600 953 600 971 616 c 2,25,-1
 989 633 l 2,26,27
 994 638 994 638 997 647 c 1,28,29
 998 654 998 654 1000.5 667.5 c 128,-1,30
 1003 681 1003 681 1004 685 c 128,-1,31
 1005 689 1005 689 1008 697.5 c 128,-1,32
 1011 706 1011 706 1013.5 708.5 c 128,-1,33
 1016 711 1016 711 1021.5 716.5 c 128,-1,34
 1027 722 1027 722 1034.5 725.5 c 128,-1,35
 1042 729 1042 729 1053 733 c 1,36,37
 1064 739 1064 739 1067 754 c 2,38,-1
 1079 817 l 1,39,40
 1079 827 1079 827 1077 834 c 1,41,42
 1070 846 1070 846 1063.5 885 c 128,-1,43
 1057 924 1057 924 1047.5 952.5 c 128,-1,44
 1038 981 1038 981 1020 981 c 0,45,46
 1016 981 1016 981 1007.5 978 c 128,-1,47
 999 975 999 975 981 969 c 128,-1,48
 963 963 963 963 944 958 c 1,49,-1
 926 1028 l 1,50,51
 931 1029 931 1029 941.5 1031.5 c 128,-1,52
 952 1034 952 1034 956 1035 c 128,-1,53
 960 1036 960 1036 967.5 1039 c 128,-1,54
 975 1042 975 1042 978.5 1044.5 c 128,-1,55
 982 1047 982 1047 986.5 1051 c 128,-1,56
 991 1055 991 1055 994.5 1061 c 128,-1,57
 998 1067 998 1067 1001 1075 c 1,58,-1
 1001 1077 l 1,59,60
 945 1187 945 1187 838.5 1274.5 c 128,-1,61
 732 1362 732 1362 631 1362 c 0,62,63
 604 1362 604 1362 604 1343 c 1,64,-1
 608 1315 l 1,65,66
 608 1290 608 1290 569 1124 c 1,67,68
 567 1120 567 1120 567 1112 c 0,69,70
 567 1101 567 1101 579.5 1089 c 128,-1,71
 592 1077 592 1077 629 1059 c 1,72,-1
 618 1042 l 1,73,74
 573 1067 573 1067 553 1067 c 0,75,76
 535 1067 535 1067 521.5 1043.5 c 128,-1,77
 508 1020 508 1020 508 1001 c 0,78,79
 508 989 508 989 510 981 c 128,-1,80
 512 973 512 973 523 964.5 c 128,-1,81
 534 956 534 956 555 956 c 0,82,83
 580 956 580 956 600 958 c 1,84,-1
 602 946 l 1,85,86
 550 940 550 940 537 935 c 128,-1,87
 524 930 524 930 522 918 c 2,88,-1
 481 741 l 2,89,90
 481 740 481 740 480 738 c 128,-1,91
 479 736 479 736 479 735 c 0,92,93
 479 731 479 731 487.5 710 c 128,-1,94
 496 689 496 689 496 678 c 0,95,96
 496 661 496 661 486.5 630.5 c 128,-1,97
 477 600 477 600 477 584 c 0,98,99
 477 563 477 563 483 522.5 c 128,-1,100
 489 482 489 482 489 459 c 0,101,102
 489 452 489 452 482 423 c 128,-1,103
 475 394 475 394 475 389 c 0,104,105
 475 346 475 346 489 346 c 1,0,-1
209 43 m 1,106,-1
 186 51 l 1,107,-1
 203 117 l 1,108,109
 203 137 203 137 217 175 c 128,-1,110
 231 213 231 213 231 231 c 0,111,112
 231 243 231 243 219 254.5 c 128,-1,113
 207 266 207 266 172 285 c 1,114,-1
 184 303 l 1,115,116
 228 279 228 279 248 279 c 0,117,118
 258 279 258 279 272 293 c 1,119,-1
 293 322 l 2,120,121
 297 326 297 326 297 336 c 0,122,123
 297 344 297 344 295 348 c 0,124,125
 254 443 254 443 254 621 c 0,126,127
 254 633 254 633 249 656 c 128,-1,128
 244 679 244 679 244 692 c 0,129,130
 244 694 244 694 245 700.5 c 128,-1,131
 246 707 246 707 246 709 c 0,132,133
 246 715 246 715 242 723 c 1,134,135
 211 770 211 770 211 838 c 0,136,137
 211 866 211 866 216.5 899 c 128,-1,138
 222 932 222 932 227.5 954.5 c 128,-1,139
 233 977 233 977 244.5 1015.5 c 128,-1,140
 256 1054 256 1054 260 1071 c 1,141,142
 260 1083 260 1083 258 1090 c 1,143,-1
 248 1108 l 2,144,145
 234 1133 234 1133 201 1133 c 0,146,147
 195 1133 195 1133 188 1132 c 128,-1,148
 181 1131 181 1131 171 1130 c 128,-1,149
 161 1129 161 1129 154 1128 c 1,150,-1
 151 1151 l 1,151,152
 200 1158 200 1158 215 1167.5 c 128,-1,153
 230 1177 230 1177 235 1196 c 1,154,155
 246 1251 246 1251 246 1298 c 128,-1,156
 246 1345 246 1345 226.5 1402.5 c 128,-1,157
 207 1460 207 1460 176 1460 c 0,158,159
 168 1460 168 1460 164 1458 c 2,160,-1
 76 1421 l 2,161,162
 41 1406 41 1406 -14 1343 c 1,163,-1
 -23 1352 l 1,164,165
 37 1415 37 1415 45 1450 c 1,166,167
 55 1482 55 1482 103 1532.5 c 128,-1,168
 151 1583 151 1583 151 1602 c 0,169,170
 151 1623 151 1623 137 1669 c 1,171,-1
 156 1675 l 1,172,173
 173 1626 173 1626 184.5 1612.5 c 128,-1,174
 196 1599 196 1599 215 1597 c 0,175,176
 227 1596 227 1596 253.5 1593.5 c 128,-1,177
 280 1591 280 1591 296 1589 c 128,-1,178
 312 1587 312 1587 336 1582.5 c 128,-1,179
 360 1578 360 1578 381 1571 c 1,180,181
 437 1556 437 1556 541 1530.5 c 128,-1,182
 645 1505 645 1505 707 1488.5 c 128,-1,183
 769 1472 769 1472 852.5 1445.5 c 128,-1,184
 936 1419 936 1419 1009 1385.5 c 128,-1,185
 1082 1352 1082 1352 1151 1309 c 0,186,187
 1160 1303 1160 1303 1171 1303 c 0,188,189
 1195 1303 1195 1303 1243 1335 c 1,190,-1
 1253 1319 l 1,191,192
 1215 1294 1215 1294 1202.5 1282 c 128,-1,193
 1190 1270 1190 1270 1190 1257 c 0,194,195
 1190 1242 1190 1242 1223.5 1213.5 c 128,-1,196
 1257 1185 1257 1185 1264 1169 c 1,197,198
 1270 1150 1270 1150 1306 1132 c 128,-1,199
 1342 1114 1342 1114 1378 1114 c 0,200,201
 1398 1114 1398 1114 1442 1120 c 1,202,-1
 1444 1108 l 1,203,204
 1405 1103 1405 1103 1383.5 1097 c 128,-1,205
 1362 1091 1362 1091 1354 1085.5 c 128,-1,206
 1346 1080 1346 1080 1333 1067 c 0,207,208
 1325 1059 1325 1059 1325 1047 c 0,209,210
 1325 1038 1325 1038 1329 1030 c 0,211,212
 1378 942 1378 942 1378 780 c 0,213,214
 1378 707 1378 707 1349.5 635 c 128,-1,215
 1321 563 1321 563 1278 507.5 c 128,-1,216
 1235 452 1235 452 1184.5 390 c 128,-1,217
 1134 328 1134 328 1091 274.5 c 128,-1,218
 1048 221 1048 221 1019.5 153 c 128,-1,219
 991 85 991 85 991 18 c 1,220,-1
 975 20 l 1,221,-1
 979 88 l 1,222,223
 979 154 979 154 970 188.5 c 128,-1,224
 961 223 961 223 932 223 c 1,225,-1
 868 211 l 1,226,227
 853 206 853 206 772.5 195.5 c 128,-1,228
 692 185 692 185 657 154 c 1,229,-1
 651 129 l 1,230,231
 651 141 651 141 649 147 c 1,232,233
 643 143 643 143 631.5 131 c 128,-1,234
 620 119 620 119 614 113 c 1,235,-1
 606 119 l 1,236,237
 634 149 634 149 643 162 c 1,238,239
 639 169 639 169 634 176 c 128,-1,240
 629 183 629 183 626 186 c 2,241,-1
 623 190 l 1,242,243
 614 189 614 189 609 185.5 c 128,-1,244
 604 182 604 182 597.5 165 c 128,-1,245
 591 148 591 148 584 113 c 1,246,-1
 569 117 l 1,247,248
 577 154 577 154 577 176 c 0,249,250
 577 200 577 200 549 210.5 c 128,-1,251
 521 221 521 221 491 221 c 0,252,253
 376 221 376 221 292.5 169 c 128,-1,254
 209 117 209 117 209 43 c 1,106,-1
EndSplineSet
EndChar

StartChar: E
Encoding: 69 69 42
Width: 1466
GlyphClass: 2
Flags: W
LayerCount: 2
Fore
SplineSet
664 1317 m 0,0,1
 664 1312 664 1312 667 1303.5 c 128,-1,2
 670 1295 670 1295 670 1294 c 0,3,4
 670 1292 670 1292 674 1288 c 1,5,6
 692 1262 692 1262 692 1200 c 0,7,8
 692 1174 692 1174 687 1122.5 c 128,-1,9
 682 1071 682 1071 682 1055 c 0,10,11
 682 1012 682 1012 695 962.5 c 128,-1,12
 708 913 708 913 731 913 c 0,13,14
 734 913 734 913 777.5 931.5 c 128,-1,15
 821 950 821 950 852 950 c 128,-1,16
 883 950 883 950 899 948 c 1,17,18
 934 948 934 948 934 981 c 2,19,-1
 934 1118 l 2,20,21
 934 1128 934 1128 931 1134 c 128,-1,22
 928 1140 928 1140 912.5 1150 c 128,-1,23
 897 1160 897 1160 864 1174 c 1,24,-1
 870 1186 l 1,25,26
 909 1161 909 1161 940 1161 c 0,27,28
 950 1161 950 1161 958 1169 c 1,29,30
 973 1181 973 1181 995 1260 c 1,31,-1
 1003 1257 l 1,32,33
 985 1197 985 1197 985 1178 c 0,34,35
 985 1149 985 1149 1013.5 1118 c 128,-1,36
 1042 1087 1042 1087 1067 1087 c 0,37,38
 1084 1087 1084 1087 1143 1114 c 1,39,-1
 1153 1096 l 1,40,41
 1107 1069 1107 1069 1095 1055 c 128,-1,42
 1083 1041 1083 1041 1083 1018 c 2,43,-1
 1083 1014 l 1,44,45
 1082 1005 1082 1005 1111 972 c 128,-1,46
 1140 939 1140 939 1139 909 c 2,47,-1
 1137 854 l 2,48,49
 1137 838 1137 838 1163 823 c 0,50,51
 1164 823 1164 823 1214 803 c 1,52,-1
 1206 774 l 1,53,54
 1192 779 1192 779 1179 784.5 c 128,-1,55
 1166 790 1166 790 1160 792.5 c 128,-1,56
 1154 795 1154 795 1153 795 c 0,57,58
 1147 797 1147 797 1139 797 c 0,59,60
 1125 797 1125 797 1108 780 c 1,61,-1
 1087 752 l 1,62,63
 1083 744 1083 744 1083 737 c 2,64,-1
 1087 698 l 1,65,66
 1087 624 1087 624 1053 590 c 0,67,68
 1039 576 1039 576 1032 554.5 c 128,-1,69
 1025 533 1025 533 1024 481 c 1,70,-1
 1008 481 l 1,71,-1
 1008 502 l 2,72,73
 1008 542 1008 542 1002 560 c 128,-1,74
 996 578 996 578 983 592 c 0,75,76
 916 661 916 661 909 803 c 1,77,78
 909 827 909 827 889 827 c 0,79,80
 875 827 875 827 844.5 820 c 128,-1,81
 814 813 814 813 799 813 c 0,82,83
 788 813 788 813 768 815 c 128,-1,84
 748 817 748 817 739 817 c 0,85,86
 717 817 717 817 699.5 771.5 c 128,-1,87
 682 726 682 726 682 694 c 2,88,-1
 682 653 l 2,89,90
 682 496 682 496 686 496 c 0,91,92
 708 496 708 496 737 504 c 1,93,-1
 745 475 l 1,94,95
 695 463 695 463 682.5 449.5 c 128,-1,96
 670 436 670 436 670 410 c 2,97,-1
 670 369 l 2,98,99
 670 355 670 355 678 346.5 c 128,-1,100
 686 338 686 338 700 338 c 2,101,-1
 856 338 l 2,102,103
 882 338 882 338 895 351 c 128,-1,104
 908 364 908 364 920 414 c 1,105,-1
 948 408 l 1,106,107
 940 377 940 377 940 356 c 0,108,109
 940 323 940 323 1001 298.5 c 128,-1,110
 1062 274 1062 274 1108 274 c 0,111,112
 1120 274 1120 274 1130 282 c 128,-1,113
 1140 290 1140 290 1141 303 c 1,114,-1
 1149 350 l 2,115,116
 1161 424 1161 424 1290 438 c 0,117,118
 1308 440 1308 440 1327 451.5 c 128,-1,119
 1346 463 1346 463 1386 498 c 1,120,-1
 1397 487 l 1,121,122
 1357 452 1357 452 1343.5 434 c 128,-1,123
 1330 416 1330 416 1327 397 c 1,124,125
 1319 363 1319 363 1301 256 c 128,-1,126
 1283 149 1283 149 1266 90 c 0,127,128
 1264 84 1264 84 1264 72 c 0,129,130
 1264 70 1264 70 1267 61 c 128,-1,131
 1270 52 1270 52 1278 30 c 128,-1,132
 1286 8 1286 8 1292 -10 c 1,133,-1
 1270 -16 l 1,134,135
 1236 72 1236 72 1241 67 c 1,136,137
 1236 74 1236 74 1230 80 c 128,-1,138
 1224 86 1224 86 1220.5 88.5 c 128,-1,139
 1217 91 1217 91 1208 93 c 128,-1,140
 1199 95 1199 95 1196 96 c 0,141,142
 1178 102 1178 102 1165 102 c 0,143,144
 1133 102 1133 102 1110 45 c 1,145,-1
 1092 53 l 1,146,147
 1101 76 1101 76 1104.5 94.5 c 128,-1,148
 1108 113 1108 113 1108 119 c 128,-1,149
 1108 125 1108 125 1110 125 c 0,150,151
 1111 125 1111 125 1112 124 c 1,152,153
 1114 124 1114 124 1116 123 c 1,154,155
 1084 138 1084 138 1028 154 c 0,156,157
 968 171 968 171 940 186 c 0,158,159
 936 188 936 188 928 188 c 2,160,-1
 471 188 l 2,161,162
 372 188 372 188 360 139 c 1,163,-1
 322 53 l 1,164,-1
 289 68 l 1,165,-1
 332 158 l 1,166,167
 342 202 342 202 342 258 c 0,168,169
 342 340 342 340 309 701.5 c 128,-1,170
 276 1063 276 1063 274 1255 c 1,171,172
 272 1275 272 1275 259.5 1287 c 128,-1,173
 247 1299 247 1299 199 1315 c 1,174,-1
 205 1335 l 1,175,176
 265 1319 265 1319 268 1319 c 0,177,178
 278 1319 278 1319 282.5 1319.5 c 128,-1,179
 287 1320 287 1320 292 1324 c 128,-1,180
 297 1328 297 1328 301 1337 c 1,181,-1
 326 1368 l 1,182,-1
 336 1395 l 2,183,184
 336 1396 336 1396 337 1399 c 128,-1,185
 338 1402 338 1402 338 1403 c 128,-1,186
 338 1404 338 1404 337 1406.5 c 128,-1,187
 336 1409 336 1409 336 1411 c 2,188,-1
 330 1434 l 1,189,190
 325 1448 325 1448 275.5 1461.5 c 128,-1,191
 226 1475 226 1475 201 1475 c 0,192,193
 175 1475 175 1475 143 1413 c 1,194,-1
 121 1425 l 1,195,196
 141 1469 141 1469 141 1487 c 0,197,198
 141 1500 141 1500 123 1520 c 1,199,-1
 72 1563 l 1,200,201
 50 1579 50 1579 35 1579 c 0,202,203
 33 1579 33 1579 -33 1563 c 1,204,-1
 -41 1583 l 1,205,206
 13 1602 13 1602 29 1620 c 128,-1,207
 45 1638 45 1638 45 1665 c 2,208,-1
 45 1688 l 2,209,210
 45 1698 45 1698 36 1711 c 128,-1,211
 27 1724 27 1724 -10 1759 c 1,212,-1
 -4 1765 l 1,213,214
 51 1710 51 1710 68 1710 c 2,215,-1
 72 1710 l 2,216,217
 79 1710 79 1710 83.5 1713 c 128,-1,218
 88 1716 88 1716 97 1731.5 c 128,-1,219
 106 1747 106 1747 121 1780 c 1,220,-1
 129 1776 l 1,221,222
 104 1722 104 1722 104 1706 c 0,223,224
 104 1698 104 1698 113 1687.5 c 128,-1,225
 122 1677 122 1677 129 1677 c 2,226,-1
 135 1677 l 1,227,228
 148 1679 148 1679 157 1694 c 128,-1,229
 166 1709 166 1709 178 1751 c 1,230,-1
 199 1745 l 1,231,232
 188 1710 188 1710 188 1686 c 0,233,234
 188 1661 188 1661 238.5 1636.5 c 128,-1,235
 289 1612 289 1612 317 1612 c 0,236,237
 329 1612 329 1612 340 1625 c 128,-1,238
 351 1638 351 1638 369 1675 c 1,239,-1
 387 1667 l 1,240,241
 362 1612 362 1612 362 1602 c 0,242,243
 362 1579 362 1579 411.5 1555.5 c 128,-1,244
 461 1532 461 1532 491 1532 c 0,245,246
 505 1532 505 1532 516 1544 c 128,-1,247
 527 1556 527 1556 545 1595 c 1,248,-1
 565 1587 l 1,249,250
 545 1543 545 1543 545 1526 c 1,251,252
 549 1538 549 1538 611.5 1547 c 128,-1,253
 674 1556 674 1556 717 1556 c 0,254,255
 734 1556 734 1556 746.5 1569.5 c 128,-1,256
 759 1583 759 1583 776 1626 c 1,257,-1
 797 1616 l 1,258,259
 776 1570 776 1570 776 1548 c 0,260,261
 776 1529 776 1529 793 1520 c 1,262,263
 806 1505 806 1505 819 1505 c 2,264,-1
 1044 1505 l 2,265,266
 1045 1505 1045 1505 1046 1506 c 0,267,268
 1048 1508 1048 1508 1049 1509 c 1,269,-1
 1053 1505 l 1,270,271
 1061 1505 1061 1505 1069 1513 c 0,272,273
 1089 1533 1089 1533 1127.5 1548 c 128,-1,274
 1166 1563 1166 1563 1201.5 1572.5 c 128,-1,275
 1237 1582 1237 1582 1279.5 1612.5 c 128,-1,276
 1322 1643 1322 1643 1352 1692 c 1,277,-1
 1362 1683 l 1,278,279
 1317 1616 1317 1616 1317 1581 c 2,280,-1
 1317 1229 l 2,281,282
 1317 1193 1317 1193 1352 1116 c 1,283,-1
 1343 1112 l 1,284,285
 1312 1182 1312 1182 1282 1212 c 1,286,-1
 1184 1296 l 1,287,288
 1176 1300 1176 1300 1173 1305 c 1,289,290
 1159 1303 1159 1303 1147 1290.5 c 128,-1,291
 1135 1278 1135 1278 1112 1239 c 1,292,-1
 1098 1247 l 1,293,294
 1126 1299 1126 1299 1126 1319 c 0,295,296
 1126 1348 1126 1348 1071 1399 c 1,297,-1
 1083 1389 l 1,298,299
 1060 1423 1060 1423 1036.5 1438.5 c 128,-1,300
 1013 1454 1013 1454 997 1454 c 2,301,-1
 700 1452 l 2,302,303
 685 1452 685 1452 674.5 1414 c 128,-1,304
 664 1376 664 1376 664 1317 c 0,0,1
EndSplineSet
EndChar

StartChar: F
Encoding: 70 70 43
Width: 1336
GlyphClass: 2
Flags: W
LayerCount: 2
Fore
SplineSet
782 1167 m 0,0,1
 770 1199 770 1199 761 1213.5 c 128,-1,2
 752 1228 752 1228 711 1276 c 1,3,-1
 717 1282 l 1,4,5
 744 1250 744 1250 766.5 1229.5 c 128,-1,6
 789 1209 789 1209 803 1198.5 c 128,-1,7
 817 1188 817 1188 837 1183.5 c 128,-1,8
 857 1179 857 1179 865.5 1178.5 c 128,-1,9
 874 1178 874 1178 899 1178 c 0,10,11
 929 1178 929 1178 987 1231 c 1,12,-1
 997 1219 l 1,13,14
 959 1182 959 1182 948.5 1164 c 128,-1,15
 938 1146 938 1146 938 1126 c 2,16,-1
 938 825 l 2,17,18
 938 804 938 804 925.5 765 c 128,-1,19
 913 726 913 726 913 709 c 0,20,21
 913 698 913 698 925 685.5 c 128,-1,22
 937 673 937 673 973 647 c 1,23,-1
 962 633 l 1,24,25
 914 670 914 670 893 670 c 0,26,27
 848 670 848 670 848 575 c 0,28,29
 848 555 848 555 865 537.5 c 128,-1,30
 882 520 882 520 932 504 c 1,31,-1
 926 485 l 1,32,33
 880 502 880 502 850 502 c 0,34,35
 837 502 837 502 828 496.5 c 128,-1,36
 819 491 819 491 805.5 463.5 c 128,-1,37
 792 436 792 436 778 383 c 1,38,-1
 768 387 l 1,39,40
 784 444 784 444 784 469 c 0,41,42
 784 501 784 501 757 543.5 c 128,-1,43
 730 586 730 586 702 586 c 0,44,45
 681 586 681 586 641 571 c 1,46,-1
 633 596 l 1,47,48
 681 613 681 613 693.5 627 c 128,-1,49
 706 641 706 641 706 664 c 2,50,-1
 706 715 l 2,51,52
 706 728 706 728 698 736.5 c 128,-1,53
 690 745 690 745 676 745 c 2,54,-1
 561 745 l 2,55,56
 547 745 547 745 538.5 736.5 c 128,-1,57
 530 728 530 728 530 715 c 2,58,-1
 530 369 l 2,59,60
 530 337 530 337 548 317.5 c 128,-1,61
 566 298 566 298 589.5 290 c 128,-1,62
 613 282 613 282 643 267 c 128,-1,63
 673 252 673 252 690 231 c 0,64,65
 701 217 701 217 720 206.5 c 128,-1,66
 739 196 739 196 790 178 c 1,67,-1
 786 166 l 1,68,69
 721 188 721 188 696 188 c 0,70,71
 685 188 685 188 662.5 182 c 128,-1,72
 640 176 640 176 629 176 c 0,73,74
 623 176 623 176 618 178 c 1,75,-1
 530 188 l 1,76,77
 468 188 468 188 400 180 c 128,-1,78
 332 172 332 172 271.5 149.5 c 128,-1,79
 211 127 211 127 211 94 c 0,80,81
 211 74 211 74 237 25 c 1,82,-1
 225 18 l 1,83,84
 195 74 195 74 182 80 c 1,85,86
 143 69 143 69 143 35 c 1,87,-1
 117 37 l 1,88,89
 216 173 216 173 311 229 c 1,90,91
 315 237 315 237 315 242 c 2,92,-1
 315 457 l 2,93,94
 315 662 315 662 289 662 c 0,95,96
 272 662 272 662 237 653 c 1,97,-1
 231 682 l 1,98,99
 275 693 275 693 288 704 c 128,-1,100
 301 715 301 715 301 733 c 1,101,-1
 293 836 l 1,102,-1
 276 1356 l 2,103,104
 276 1381 276 1381 250 1384 c 1,105,-1
 194 1399 l 2,106,107
 190 1401 190 1401 182 1401 c 0,108,109
 160 1401 160 1401 125 1343 c 1,110,-1
 108 1354 l 1,111,112
 137 1398 137 1398 137 1419 c 0,113,114
 137 1464 137 1464 57 1464 c 0,115,116
 42 1464 42 1464 -43 1432 c 1,117,-1
 -45 1438 l 1,118,119
 24 1463 24 1463 32 1472 c 0,120,121
 35 1476 35 1476 35 1481 c 0,122,123
 35 1498 35 1498 6 1546 c 1,124,-1
 27 1561 l 1,125,126
 61 1507 61 1507 82 1507 c 0,127,128
 89 1507 89 1507 99 1511.5 c 128,-1,129
 109 1516 109 1516 116 1520.5 c 128,-1,130
 123 1525 123 1525 136.5 1535 c 128,-1,131
 150 1545 150 1545 154 1548 c 0,132,133
 167 1557 167 1557 176.5 1574.5 c 128,-1,134
 186 1592 186 1592 201 1642 c 1,135,-1
 213 1638 l 1,136,137
 199 1583 199 1583 199 1563 c 0,138,139
 199 1541 199 1541 210 1527 c 128,-1,140
 221 1513 221 1513 242 1507 c 128,-1,141
 263 1501 263 1501 281 1499 c 128,-1,142
 299 1497 299 1497 327 1496.5 c 128,-1,143
 355 1496 355 1496 367 1495 c 2,144,-1
 680 1483 l 1,145,146
 717 1483 717 1483 789 1495.5 c 128,-1,147
 861 1508 861 1508 868 1516 c 1,148,-1
 885 1532 l 2,149,150
 901 1548 901 1548 901 1563 c 0,151,152
 901 1584 901 1584 870 1626 c 1,153,-1
 893 1642 l 1,154,155
 924 1591 924 1591 952 1591 c 0,156,157
 966 1591 966 1591 984.5 1602.5 c 128,-1,158
 1003 1614 1003 1614 1008 1626 c 1,159,-1
 950 1612 l 1,160,161
 974 1619 974 1619 1010 1634 c 1,162,163
 1010 1662 1010 1662 995 1698 c 1,164,-1
 1026 1708 l 1,165,166
 1040 1667 1040 1667 1053 1653 c 1,167,168
 1139 1694 1139 1694 1175 1743 c 1,169,-1
 1239 1698 l 1,170,171
 1213 1661 1213 1661 1198.5 1602.5 c 128,-1,172
 1184 1544 1184 1544 1184 1497 c 0,173,174
 1184 1486 1184 1486 1186 1466 c 128,-1,175
 1188 1446 1188 1446 1188 1434 c 2,176,-1
 1188 1227 l 2,177,178
 1188 1207 1188 1207 1198.5 1189 c 128,-1,179
 1209 1171 1209 1171 1245 1133 c 1,180,-1
 1235 1122 l 1,181,182
 1198 1159 1198 1159 1179.5 1169.5 c 128,-1,183
 1161 1180 1161 1180 1141 1180 c 2,184,-1
 1085 1180 l 2,185,186
 1064 1180 1064 1180 1050 1168 c 128,-1,187
 1036 1156 1036 1156 1012 1110 c 1,188,-1
 993 1120 l 1,189,190
 1022 1171 1022 1171 1022 1194 c 0,191,192
 1022 1201 1022 1201 1014 1219 c 1,193,-1
 915 1374 l 1,194,195
 908 1381 908 1381 899 1384 c 1,196,-1
 846 1395 l 1,197,-1
 571 1382 l 2,198,199
 559 1382 559 1382 544.5 1360.5 c 128,-1,200
 530 1339 530 1339 530 1329 c 2,201,-1
 530 1266 l 1,202,203
 532 1178 532 1178 532 1104 c 1,204,205
 537 1098 537 1098 538.5 1052.5 c 128,-1,206
 540 1007 540 1007 547 966.5 c 128,-1,207
 554 926 554 926 573 926 c 2,208,-1
 706 926 l 2,209,210
 760 926 760 926 760 1038 c 2,211,-1
 760 1079 l 2,212,213
 760 1086 760 1086 772 1118.5 c 128,-1,214
 784 1151 784 1151 784 1159 c 0,215,216
 784 1160 784 1160 783 1162.5 c 128,-1,217
 782 1165 782 1165 782 1167 c 0,0,1
950 1612 m 2,218,219
 938 1608 938 1608 934 1608 c 2,220,-1
 950 1612 l 2,218,219
EndSplineSet
EndChar

StartChar: G
Encoding: 71 71 44
Width: 1545
GlyphClass: 2
Flags: W
LayerCount: 2
Fore
SplineSet
441 1716 m 2,0,1
 457 1716 457 1716 468.5 1729 c 128,-1,2
 480 1742 480 1742 480 1759 c 0,3,4
 480 1783 480 1783 470 1817 c 1,5,-1
 490 1823 l 1,6,7
 505 1773 505 1773 515.5 1761 c 128,-1,8
 526 1749 526 1749 547 1749 c 2,9,-1
 691 1749 l 2,10,11
 712 1749 712 1749 721 1752.5 c 128,-1,12
 730 1756 730 1756 739 1772.5 c 128,-1,13
 748 1789 748 1789 754 1825 c 1,14,-1
 789 1819 l 1,15,16
 785 1800 785 1800 785 1776 c 0,17,18
 785 1718 785 1718 869 1718 c 0,19,20
 881 1718 881 1718 890 1731 c 128,-1,21
 899 1744 899 1744 914 1786 c 1,22,-1
 930 1782 l 1,23,24
 914 1738 914 1738 914 1716 c 0,25,26
 914 1703 914 1703 930 1693 c 128,-1,27
 946 1683 946 1683 973.5 1672.5 c 128,-1,28
 1001 1662 1001 1662 1031.5 1647 c 128,-1,29
 1062 1632 1062 1632 1096 1602 c 128,-1,30
 1130 1572 1130 1572 1154 1530 c 1,31,32
 1164 1516 1164 1516 1178 1516 c 2,33,-1
 1295 1516 l 2,34,35
 1314 1516 1314 1516 1326.5 1528 c 128,-1,36
 1339 1540 1339 1540 1360 1587 c 1,37,-1
 1379 1579 l 1,38,39
 1356 1529 1356 1529 1356 1509 c 0,40,41
 1356 1496 1356 1496 1373 1479 c 1,42,43
 1386 1464 1386 1464 1401 1464 c 0,44,45
 1424 1464 1424 1464 1467 1481 c 1,46,-1
 1475 1462 l 1,47,48
 1441 1449 1441 1449 1424.5 1439 c 128,-1,49
 1408 1429 1408 1429 1404 1421.5 c 128,-1,50
 1400 1414 1400 1414 1399 1401 c 2,51,-1
 1393 1180 l 2,52,53
 1393 1163 1393 1163 1404 1145 c 128,-1,54
 1415 1127 1415 1127 1449 1094 c 1,55,-1
 1436 1081 l 1,56,57
 1400 1119 1400 1119 1382 1130 c 128,-1,58
 1364 1141 1364 1141 1344 1141 c 2,59,-1
 1340 1141 l 1,60,61
 1338 1137 1338 1137 1338 1126 c 0,62,63
 1338 1104 1338 1104 1385 1067 c 1,64,-1
 1367 1042 l 1,65,66
 1324 1077 1324 1077 1303 1077 c 1,67,68
 1297 1060 1297 1060 1290.5 1047 c 128,-1,69
 1284 1034 1284 1034 1277.5 1025.5 c 128,-1,70
 1271 1017 1271 1017 1267.5 1012.5 c 128,-1,71
 1264 1008 1264 1008 1257 1002 c 128,-1,72
 1250 996 1250 996 1248 995 c 1,73,-1
 1221 1030 l 2,74,75
 1221 1031 1221 1031 1220 1032 c 128,-1,76
 1219 1033 1219 1033 1219 1034 c 0,77,78
 1215 1043 1215 1043 1204 1066 c 128,-1,79
 1193 1089 1193 1089 1187.5 1106 c 128,-1,80
 1182 1123 1182 1123 1182 1141 c 0,81,82
 1182 1161 1182 1161 1179 1185.5 c 128,-1,83
 1176 1210 1176 1210 1162 1245.5 c 128,-1,84
 1148 1281 1148 1281 1125 1296 c 1,85,86
 1121 1301 1121 1301 1107.5 1315 c 128,-1,87
 1094 1329 1094 1329 1083.5 1342 c 128,-1,88
 1073 1355 1073 1355 1066 1368 c 1,89,90
 1041 1362 1041 1362 975 1362 c 0,91,92
 960 1362 960 1362 922 1366 c 1,93,-1
 969 1366 l 2,94,95
 983 1366 983 1366 992.5 1374 c 128,-1,96
 1002 1382 1002 1382 1002 1393 c 0,97,98
 1002 1420 1002 1420 961 1456.5 c 128,-1,99
 920 1493 920 1493 902 1493 c 1,100,-1
 748 1505 l 1,101,102
 713 1505 713 1505 680.5 1492.5 c 128,-1,103
 648 1480 648 1480 628.5 1464.5 c 128,-1,104
 609 1449 609 1449 585 1434 c 128,-1,105
 561 1419 561 1419 541 1415 c 0,106,107
 527 1412 527 1412 521 1399 c 0,108,109
 514 1383 514 1383 486.5 1321 c 128,-1,110
 459 1259 459 1259 439.5 1214.5 c 128,-1,111
 420 1170 420 1170 420 1167 c 2,112,-1
 420 756 l 2,113,114
 420 702 420 702 440 650.5 c 128,-1,115
 460 599 460 599 485 564 c 128,-1,116
 510 529 510 529 543.5 480.5 c 128,-1,117
 577 432 577 432 594 393 c 0,118,119
 600 381 600 381 658 369.5 c 128,-1,120
 716 358 716 358 748 358 c 0,121,122
 763 358 763 358 776 371.5 c 128,-1,123
 789 385 789 385 812 424 c 1,124,-1
 832 412 l 1,125,126
 803 361 803 361 803 342 c 0,127,128
 803 337 803 337 806 330.5 c 128,-1,129
 809 324 809 324 812 319.5 c 128,-1,130
 815 315 815 315 820.5 308 c 128,-1,131
 826 301 826 301 828 299 c 1,132,-1
 816 276 l 1,133,134
 863 324 863 324 922.5 452.5 c 128,-1,135
 982 581 982 581 982 668 c 0,136,137
 982 688 982 688 954 696.5 c 128,-1,138
 926 705 926 705 896 705 c 0,139,140
 868 705 868 705 807 655 c 1,141,-1
 797 666 l 1,142,143
 838 700 838 700 849.5 716.5 c 128,-1,144
 861 733 861 733 863 750 c 1,145,-1
 863 752 l 2,146,147
 863 851 863 851 851 915.5 c 128,-1,148
 839 980 839 980 791 1071 c 1,149,-1
 797 1075 l 1,150,151
 827 1019 827 1019 859.5 984.5 c 128,-1,152
 892 950 892 950 921 936.5 c 128,-1,153
 950 923 950 923 977.5 915 c 128,-1,154
 1005 907 1005 907 1035 893 c 128,-1,155
 1065 879 1065 879 1088 854 c 1,156,157
 1104 860 1104 860 1145 860 c 0,158,159
 1181 860 1181 860 1225 856 c 0,160,161
 1391 842 1391 842 1391 756 c 0,162,163
 1391 709 1391 709 1399 674 c 0,164,165
 1404 652 1404 652 1418 644.5 c 128,-1,166
 1432 637 1432 637 1483 637 c 1,167,-1
 1483 616 l 1,168,169
 1432 616 1432 616 1418 610.5 c 128,-1,170
 1404 605 1404 605 1399 588 c 1,171,-1
 1399 578 l 2,172,173
 1399 554 1399 554 1442 500 c 1,174,-1
 1430 489 l 1,175,176
 1399 531 1399 531 1383.5 542 c 128,-1,177
 1368 553 1368 553 1350 553 c 2,178,-1
 1260 553 l 2,179,180
 1248 553 1248 553 1239 545 c 128,-1,181
 1230 537 1230 537 1229 524 c 0,182,183
 1221 435 1221 435 1175 310 c 128,-1,184
 1129 185 1129 185 1082 125 c 1,185,-1
 1080 133 l 1,186,187
 1080 110 1080 110 1088 90.5 c 128,-1,188
 1096 71 1096 71 1129 23 c 1,189,-1
 1121 16 l 1,190,191
 1090 63 1090 63 1058 88 c 128,-1,192
 1026 113 1026 113 1002 119 c 128,-1,193
 978 125 978 125 943 125 c 2,194,-1
 883 125 l 2,195,196
 877 125 877 125 863.5 126 c 128,-1,197
 850 127 850 127 842 127 c 0,198,199
 815 127 815 127 797 105 c 128,-1,200
 779 83 779 83 775 20 c 1,201,-1
 758 23 l 1,202,203
 760 39 760 39 760 63 c 0,204,205
 760 89 760 89 752 106 c 128,-1,206
 744 123 744 123 734 123 c 1,207,-1
 676 16 l 1,208,209
 694 55 694 55 697 90 c 1,210,211
 697 122 697 122 668 141 c 1,212,-1
 660 141 l 1,213,214
 648 137 648 137 644 131 c 2,215,-1
 629 111 l 2,216,217
 613 90 613 90 613 59 c 0,218,219
 613 40 613 40 619 2 c 1,220,-1
 603 0 l 1,221,222
 595 52 595 52 587 71 c 128,-1,223
 579 90 579 90 564 102 c 0,224,225
 513 145 513 145 455.5 181 c 128,-1,226
 398 217 398 217 363 217 c 0,227,228
 332 217 332 217 293 168 c 1,229,-1
 271 188 l 1,230,231
 306 231 306 231 306 258 c 0,232,233
 306 270 306 270 290 299.5 c 128,-1,234
 274 329 274 329 273 346 c 0,235,236
 273 353 273 353 240 385 c 128,-1,237
 207 417 207 417 199 432 c 0,238,239
 193 444 193 444 177 444 c 0,240,241
 154 444 154 444 115 434 c 1,242,-1
 111 449 l 1,243,244
 149 459 149 459 165.5 467 c 128,-1,245
 182 475 182 475 183.5 479 c 128,-1,246
 185 483 185 483 185 496 c 0,247,248
 185 537 185 537 141 619 c 128,-1,249
 97 701 97 701 97 756 c 2,250,-1
 97 1049 l 2,251,252
 97 1118 97 1118 134 1252 c 128,-1,253
 171 1386 171 1386 171 1454 c 0,254,255
 171 1469 171 1469 158 1480.5 c 128,-1,256
 145 1492 145 1492 103 1511 c 1,257,-1
 111 1530 l 1,258,259
 156 1511 156 1511 175 1511 c 0,260,261
 197 1511 197 1511 234.5 1560 c 128,-1,262
 272 1609 272 1609 299 1656 c 128,-1,263
 326 1703 326 1703 326 1706 c 0,264,265
 326 1729 326 1729 302 1778 c 1,266,-1
 320 1788 l 1,267,268
 343 1741 343 1741 356.5 1728.5 c 128,-1,269
 370 1716 370 1716 390 1716 c 2,270,-1
 441 1716 l 2,0,1
EndSplineSet
EndChar

StartChar: H
Encoding: 72 72 45
Width: 1561
GlyphClass: 2
Flags: W
LayerCount: 2
Fore
SplineSet
1365 236 m 1,0,1
 1386 229 1386 229 1396 229 c 0,2,3
 1414 229 1414 229 1484 274 c 1,4,-1
 1490 262 l 1,5,6
 1443 232 1443 232 1429 218.5 c 128,-1,7
 1415 205 1415 205 1412 190 c 1,8,-1
 1412 186 l 1,9,10
 1408 182 1408 182 1408 178 c 0,11,12
 1408 167 1408 167 1421 155 c 128,-1,13
 1434 143 1434 143 1473 115 c 1,14,-1
 1465 100 l 1,15,16
 1414 137 1414 137 1391 137 c 0,17,18
 1383 137 1383 137 1375 133 c 1,19,-1
 1350 115 l 1,20,21
 1338 108 1338 108 1338 84 c 0,22,23
 1338 80 1338 80 1339 71 c 128,-1,24
 1340 62 1340 62 1340 59 c 2,25,-1
 1342 -12 l 1,26,-1
 1307 -12 l 1,27,-1
 1307 72 l 2,28,29
 1307 105 1307 105 1239 118.5 c 128,-1,30
 1171 132 1171 132 1080 138 c 128,-1,31
 989 144 989 144 963 154 c 0,32,33
 933 165 933 165 880 195.5 c 128,-1,34
 827 226 827 226 797 236 c 1,35,-1
 806 311 l 1,36,37
 832 322 832 322 896 322 c 2,38,-1
 951 322 l 2,39,40
 986 322 986 322 986 354 c 1,41,42
 988 417 988 417 1003.5 541 c 128,-1,43
 1019 665 1019 665 1021 731 c 0,44,45
 1021 743 1021 743 1016.5 750.5 c 128,-1,46
 1012 758 1012 758 1000 760.5 c 128,-1,47
 988 763 988 763 982 763.5 c 128,-1,48
 976 764 976 764 959 764 c 0,49,50
 892 764 892 764 849 756 c 0,51,52
 828 753 828 753 819 736 c 128,-1,53
 810 719 810 719 810 664 c 1,54,-1
 785 664 l 1,55,56
 785 719 785 719 777 736 c 128,-1,57
 769 753 769 753 748 756 c 0,58,59
 714 762 714 762 632 762 c 0,60,61
 529 762 529 762 525 727 c 1,62,-1
 513 410 l 2,63,64
 511 383 511 383 535.5 347 c 128,-1,65
 560 311 560 311 585 311 c 0,66,67
 617 311 617 311 617 381 c 2,68,-1
 617 408 l 1,69,-1
 632 408 l 1,70,71
 633 353 633 353 637.5 339 c 128,-1,72
 642 325 642 325 654 322 c 2,73,-1
 677 315 l 2,74,75
 681 313 681 313 691 313 c 0,76,77
 708 313 708 313 783 344 c 1,78,-1
 787 334 l 1,79,80
 712 302 712 302 691 276 c 1,81,-1
 687 266 l 1,82,83
 677 253 677 253 677 240 c 1,84,-1
 693 248 l 1,85,-1
 689 233 l 1,86,87
 681 233 681 233 677 231 c 1,88,89
 680 206 680 206 716 162 c 1,90,-1
 695 145 l 1,91,92
 650 207 650 207 623 207 c 0,93,94
 589 207 589 207 532 183 c 128,-1,95
 475 159 475 159 410.5 126 c 128,-1,96
 346 93 346 93 320 84 c 0,97,98
 308 79 308 79 301.5 73.5 c 128,-1,99
 295 68 295 68 288 47 c 128,-1,100
 281 26 281 26 277 -12 c 1,101,-1
 257 -10 l 1,102,103
 259 12 259 12 259 41 c 0,104,105
 259 63 259 63 256 72.5 c 128,-1,106
 253 82 253 82 242 82 c 0,107,108
 229 82 229 82 218.5 70.5 c 128,-1,109
 208 59 208 59 208 43 c 2,110,-1
 208 16 l 2,111,112
 208 -2 208 -2 194.5 -29 c 128,-1,113
 181 -56 181 -56 181 -115 c 2,114,-1
 181 -150 l 1,115,-1
 175 -150 l 1,116,117
 172 -91 172 -91 169.5 -73 c 128,-1,118
 167 -55 167 -55 161 -47 c 1,119,-1
 156 -35 l 1,120,121
 148 -27 148 -27 136 -27 c 0,122,123
 113 -27 113 -27 64 -37 c 1,124,-1
 62 -27 l 1,125,126
 99 -18 99 -18 117.5 -11 c 128,-1,127
 136 -4 136 -4 139.5 0.5 c 128,-1,128
 143 5 143 5 144 12 c 0,129,130
 144 15 144 15 163 69 c 128,-1,131
 182 123 182 123 181 125 c 2,132,-1
 144 188 l 1,133,134
 136 204 136 204 117.5 212.5 c 128,-1,135
 99 221 99 221 42 231 c 1,136,-1
 44 250 l 1,137,138
 83 242 83 242 109 242 c 0,139,140
 145 242 145 242 180.5 269.5 c 128,-1,141
 216 297 216 297 216 311 c 2,142,-1
 216 653 l 2,143,144
 216 670 216 670 199.5 707 c 128,-1,145
 183 744 183 744 183 762 c 2,146,-1
 183 1073 l 2,147,148
 183 1081 183 1081 122 1114 c 1,149,-1
 140 1155 l 1,150,151
 148 1153 148 1153 155.5 1150 c 128,-1,152
 163 1147 163 1147 166.5 1146 c 128,-1,153
 170 1145 170 1145 171 1145 c 0,154,155
 190 1145 190 1145 203 1158.5 c 128,-1,156
 216 1172 216 1172 216 1190 c 1,157,-1
 202 1366 l 2,158,159
 202 1371 202 1371 191 1382 c 2,160,-1
 113 1452 l 2,161,162
 92 1470 92 1470 48 1470 c 0,163,164
 17 1470 17 1470 -5 1468 c 1,165,-1
 -5 1489 l 1,166,167
 50 1493 50 1493 71.5 1501.5 c 128,-1,168
 93 1510 93 1510 107 1526 c 1,169,-1
 152 1587 l 2,170,171
 177 1622 177 1622 181 1708 c 1,172,-1
 193 1708 l 1,173,174
 191 1690 191 1690 191 1663 c 0,175,176
 191 1604 191 1604 208 1583 c 1,177,178
 223 1571 223 1571 334 1556.5 c 128,-1,179
 445 1542 445 1542 498 1542 c 0,180,181
 512 1542 512 1542 524.5 1555.5 c 128,-1,182
 537 1569 537 1569 562 1614 c 1,183,-1
 576 1606 l 1,184,185
 546 1552 546 1552 546 1526 c 0,186,187
 546 1477 546 1477 671 1477 c 0,188,189
 703 1477 703 1477 785 1511 c 1,190,-1
 789 1499 l 1,191,192
 715 1468 715 1468 691 1444 c 1,193,-1
 711 1448 l 1,194,-1
 699 1403 l 1,195,196
 692 1403 692 1403 678 1404 c 128,-1,197
 664 1405 664 1405 658 1405 c 1,198,199
 654 1401 654 1401 654 1397 c 0,200,201
 654 1375 654 1375 664 1353 c 128,-1,202
 674 1331 674 1331 707 1284 c 1,203,-1
 695 1276 l 1,204,205
 660 1323 660 1323 642.5 1338 c 128,-1,206
 625 1353 625 1353 605 1358 c 1,207,-1
 572 1368 l 1,208,-1
 562 1368 l 2,209,210
 540 1368 540 1368 526.5 1337 c 128,-1,211
 513 1306 513 1306 513 1290 c 2,212,-1
 513 961 l 2,213,214
 513 926 513 926 546 926 c 2,215,-1
 711 926 l 2,216,217
 732 926 732 926 767 944.5 c 128,-1,218
 802 963 802 963 822 963 c 0,219,220
 845 963 845 963 887.5 946.5 c 128,-1,221
 930 930 930 930 951 930 c 0,222,223
 965 930 965 930 975.5 940.5 c 128,-1,224
 986 951 986 951 986 967 c 2,225,-1
 986 1323 l 2,226,227
 986 1361 986 1361 841 1389 c 1,228,-1
 812 1462 l 1,229,230
 837 1462 837 1462 855 1456 c 1,231,232
 868 1456 868 1456 877 1467 c 128,-1,233
 886 1478 886 1478 886 1495 c 0,234,235
 886 1521 886 1521 875 1561 c 1,236,-1
 898 1567 l 1,237,238
 913 1514 913 1514 925.5 1500.5 c 128,-1,239
 938 1487 938 1487 961 1487 c 2,240,-1
 970 1487 l 2,241,242
 980 1487 980 1487 1011 1513.5 c 128,-1,243
 1042 1540 1042 1540 1072 1540 c 1,244,245
 1082 1545 1082 1545 1086 1555 c 128,-1,246
 1090 1565 1090 1565 1090 1595 c 2,247,-1
 1090 1636 l 1,248,-1
 1107 1636 l 1,249,250
 1108 1619 1108 1619 1109 1608.5 c 128,-1,251
 1110 1598 1110 1598 1111.5 1587.5 c 128,-1,252
 1113 1577 1113 1577 1113.5 1572 c 128,-1,253
 1114 1567 1114 1567 1117 1561.5 c 128,-1,254
 1120 1556 1120 1556 1120.5 1554 c 128,-1,255
 1121 1552 1121 1552 1126.5 1549.5 c 128,-1,256
 1132 1547 1132 1547 1133.5 1546.5 c 128,-1,257
 1135 1546 1135 1546 1143 1544.5 c 128,-1,258
 1151 1543 1151 1543 1154 1542 c 1,259,260
 1156 1540 1156 1540 1162 1540 c 0,261,262
 1188 1542 1188 1542 1241 1562 c 128,-1,263
 1294 1582 1294 1582 1326 1604 c 1,264,265
 1338 1611 1338 1611 1344.5 1629 c 128,-1,266
 1351 1647 1351 1647 1357 1704 c 1,267,-1
 1371 1702 l 1,268,269
 1367 1671 1367 1671 1367 1638 c 0,270,271
 1367 1608 1367 1608 1376.5 1596.5 c 128,-1,272
 1386 1585 1386 1585 1416 1585 c 0,273,274
 1434 1585 1434 1585 1479 1591 c 1,275,-1
 1484 1575 l 1,276,277
 1429 1568 1429 1568 1411.5 1560.5 c 128,-1,278
 1394 1553 1394 1553 1385 1538 c 1,279,-1
 1371 1503 l 2,280,281
 1367 1491 1367 1491 1367 1485 c 0,282,283
 1367 1458 1367 1458 1420 1415 c 1,284,-1
 1404 1395 l 1,285,286
 1349 1440 1349 1440 1330 1440 c 0,287,288
 1318 1440 1318 1440 1299 1423 c 1,289,290
 1287 1418 1287 1418 1287 1407 c 0,291,292
 1287 1403 1287 1403 1301 1389 c 1,293,294
 1328 1354 1328 1354 1339 1270 c 128,-1,295
 1350 1186 1350 1186 1350 1126 c 1,296,-1
 1340 668 l 1,297,298
 1338 651 1338 651 1336 622.5 c 128,-1,299
 1334 594 1334 594 1332 581.5 c 128,-1,300
 1330 569 1330 569 1324.5 550.5 c 128,-1,301
 1319 532 1319 532 1308.5 519 c 128,-1,302
 1298 506 1298 506 1281 494 c 1,303,304
 1269 484 1269 484 1269 469 c 2,305,-1
 1269 324 l 2,306,307
 1269 315 1269 315 1315 275.5 c 128,-1,308
 1361 236 1361 236 1365 236 c 1,0,1
EndSplineSet
EndChar

StartChar: I
Encoding: 73 73 46
Width: 808
GlyphClass: 2
Flags: W
LayerCount: 2
Fore
SplineSet
580 1376 m 0,0,1
 570 1366 570 1366 570 1329 c 0,2,3
 570 1275 570 1275 577 1172 c 128,-1,4
 584 1069 584 1069 584 1016 c 0,5,6
 584 917 584 917 573 725 c 0,7,8
 560 498 560 498 560 457 c 0,9,10
 560 436 560 436 571 421 c 128,-1,11
 582 406 582 406 625 377 c 1,12,-1
 615 360 l 1,13,14
 562 395 562 395 537 395 c 0,15,16
 504 395 504 395 504 367 c 2,17,-1
 504 279 l 2,18,19
 504 264 504 264 524.5 252.5 c 128,-1,20
 545 241 545 241 570 234.5 c 128,-1,21
 595 228 595 228 615.5 216 c 128,-1,22
 636 204 636 204 636 188 c 0,23,24
 636 187 636 187 634.5 184 c 128,-1,25
 633 181 633 181 633 180 c 0,26,27
 633 171 633 171 648 143 c 128,-1,28
 663 115 663 115 666 106 c 0,29,30
 677 65 677 65 732 10 c 1,31,-1
 724 0 l 1,32,33
 686 38 686 38 666.5 52.5 c 128,-1,34
 647 67 647 67 627 72 c 1,35,-1
 625 72 l 2,36,37
 624 72 624 72 622 73 c 128,-1,38
 620 74 620 74 619 74 c 0,39,40
 596 74 596 74 587 40 c 128,-1,41
 578 6 578 6 578 -25 c 1,42,-1
 554 -23 l 1,43,44
 554 16 554 16 537.5 52 c 128,-1,45
 521 88 521 88 488 96 c 1,46,-1
 468 59 l 1,47,48
 474 73 474 73 474 84 c 0,49,50
 474 86 474 86 473 91 c 128,-1,51
 472 96 472 96 472 98 c 1,52,53
 466 98 466 98 420 94 c 1,54,-1
 420 104 l 1,55,-1
 466 109 l 1,56,57
 449 131 449 131 427 131 c 2,58,-1
 316 131 l 2,59,60
 300 131 300 131 234.5 85.5 c 128,-1,61
 169 40 169 40 169 14 c 1,62,-1
 152 -45 l 1,63,-1
 124 -37 l 1,64,-1
 144 18 l 1,65,66
 144 50 144 50 173 94.5 c 128,-1,67
 202 139 202 139 230 177 c 0,68,69
 259 215 259 215 259 231 c 2,70,-1
 244 1425 l 2,71,72
 244 1442 244 1442 214 1457 c 128,-1,73
 184 1472 184 1472 181 1489 c 0,74,75
 178 1505 178 1505 148.5 1517.5 c 128,-1,76
 119 1530 119 1530 105 1530 c 0,77,78
 84 1530 84 1530 44 1479 c 1,79,-1
 27 1491 l 1,80,81
 64 1534 64 1534 64 1565 c 0,82,83
 64 1591 64 1591 -38 1638 c 1,84,-1
 -36 1642 l 1,85,86
 35 1610 35 1610 62 1610 c 2,87,-1
 142 1610 l 2,88,89
 168 1610 168 1610 184 1623 c 128,-1,90
 200 1636 200 1636 220 1683 c 1,91,-1
 246 1673 l 1,92,93
 228 1626 228 1626 228 1606 c 0,94,95
 228 1575 228 1575 260.5 1556.5 c 128,-1,96
 293 1538 293 1538 330 1538 c 2,97,-1
 480 1538 l 1,98,-1
 521 1595 l 1,99,-1
 535 1581 l 1,100,101
 541 1587 541 1587 541 1599 c 0,102,103
 541 1622 541 1622 517 1671 c 1,104,-1
 537 1681 l 1,105,106
 560 1634 560 1634 573 1622 c 128,-1,107
 586 1610 586 1610 607 1610 c 2,108,-1
 646 1610 l 2,109,110
 654 1610 654 1610 688 1645.5 c 128,-1,111
 722 1681 722 1681 722 1690 c 0,112,113
 722 1703 722 1703 705 1755 c 1,114,-1
 715 1759 l 1,115,116
 731 1711 731 1711 738.5 1699.5 c 128,-1,117
 746 1688 746 1688 756 1688 c 2,118,-1
 762 1688 l 2,119,120
 782 1688 782 1688 855 1716 c 1,121,-1
 857 1712 l 1,122,123
 786 1686 786 1686 769 1671 c 2,124,-1
 742 1647 l 1,125,126
 734 1638 734 1638 734 1626 c 0,127,128
 733 1600 733 1600 727 1582.5 c 128,-1,129
 721 1565 721 1565 709 1557 c 128,-1,130
 697 1549 697 1549 690 1546 c 128,-1,131
 683 1543 683 1543 668 1540 c 0,132,133
 651 1537 651 1537 615.5 1526 c 128,-1,134
 580 1515 580 1515 566 1511 c 1,135,-1
 572 1473 l 2,136,137
 575 1453 575 1453 589 1447 c 0,138,139
 604 1440 604 1440 646 1440 c 1,140,-1
 646 1393 l 1,141,142
 597 1393 597 1393 580 1376 c 0,0,1
EndSplineSet
EndChar

StartChar: J
Encoding: 74 74 47
Width: 1205
GlyphClass: 2
Flags: W
LayerCount: 2
Fore
SplineSet
70 1692 m 1,0,1
 85 1720 85 1720 85 1729 c 0,2,3
 85 1749 85 1749 54 1802 c 1,4,-1
 70 1810 l 1,5,6
 96 1766 96 1766 110.5 1754.5 c 128,-1,7
 125 1743 125 1743 144 1743 c 2,8,-1
 330 1743 l 2,9,10
 358 1743 358 1743 373 1756 c 128,-1,11
 388 1769 388 1769 400 1819 c 1,12,-1
 433 1810 l 1,13,14
 423 1780 423 1780 423 1755 c 0,15,16
 423 1719 423 1719 464.5 1702.5 c 128,-1,17
 506 1686 506 1686 550 1688 c 2,18,-1
 634 1692 l 1,19,20
 652 1696 652 1696 652 1700 c 1,21,22
 703 1767 703 1767 986 1767 c 2,23,-1
 1232 1767 l 2,24,25
 1264 1767 1264 1767 1342 1810 c 1,26,-1
 1348 1798 l 1,27,28
 1303 1773 1303 1773 1277 1751 c 128,-1,29
 1251 1729 1251 1729 1245 1717 c 128,-1,30
 1239 1705 1239 1705 1229 1692 c 128,-1,31
 1219 1679 1219 1679 1201 1669 c 0,32,33
 1193 1665 1193 1665 1191 1661 c 2,34,-1
 1178 1642 l 1,35,36
 1170 1626 1170 1626 1170 1616 c 0,37,38
 1170 1592 1170 1592 1205 1544 c 1,39,-1
 1184 1532 l 1,40,41
 1145 1587 1145 1587 1119 1587 c 0,42,43
 1088 1587 1088 1587 1056.5 1569.5 c 128,-1,44
 1025 1552 1025 1552 1025 1526 c 0,45,46
 1025 1505 1025 1505 1033 1473 c 1,47,-1
 1017 1468 l 1,48,49
 1010 1503 1010 1503 1003 1520.5 c 128,-1,50
 996 1538 996 1538 991 1541.5 c 128,-1,51
 986 1545 986 1545 976 1546 c 1,52,-1
 974 1546 l 2,53,54
 867 1546 867 1546 867 1503 c 2,55,-1
 867 1270 l 2,56,57
 867 1256 867 1256 883 1242.5 c 128,-1,58
 899 1229 899 1229 914 1229 c 0,59,60
 932 1229 932 1229 982 1249 c 1,61,-1
 990 1229 l 1,62,63
 942 1209 942 1209 930 1196.5 c 128,-1,64
 918 1184 918 1184 918 1163 c 2,65,-1
 918 1104 l 2,66,67
 918 1080 918 1080 931 1067.5 c 128,-1,68
 944 1055 944 1055 994 1042 c 1,69,-1
 986 1016 l 1,70,71
 953 1024 953 1024 933 1024 c 0,72,73
 908 1024 908 1024 890.5 998.5 c 128,-1,74
 873 973 873 973 864.5 930.5 c 128,-1,75
 856 888 856 888 852.5 846 c 128,-1,76
 849 804 849 804 849 758 c 0,77,78
 849 687 849 687 858 560.5 c 128,-1,79
 867 434 867 434 867 397 c 0,80,81
 867 311 867 311 849 276 c 1,82,83
 843 267 843 267 836 260 c 128,-1,84
 829 253 829 253 824.5 250 c 128,-1,85
 820 247 820 247 820 246 c 1,86,87
 857 246 857 246 931 285 c 1,88,-1
 935 274 l 1,89,90
 860 238 860 238 840 207 c 0,91,92
 838 204 838 204 825.5 185 c 128,-1,93
 813 166 813 166 809 160.5 c 128,-1,94
 805 155 805 155 794 137 c 128,-1,95
 783 119 783 119 778.5 110 c 128,-1,96
 774 101 774 101 766 84.5 c 128,-1,97
 758 68 758 68 755 56.5 c 128,-1,98
 752 45 752 45 749 31 c 128,-1,99
 746 17 746 17 746 4 c 128,-1,100
 746 -9 746 -9 758 -23 c 128,-1,101
 770 -37 770 -37 806 -61 c 1,102,-1
 795 -76 l 1,103,104
 740 -37 740 -37 724 -37 c 0,105,106
 696 -37 696 -37 658.5 -83 c 128,-1,107
 621 -129 621 -129 621 -154 c 0,108,109
 621 -171 621 -171 668 -219 c 1,110,-1
 656 -233 l 1,111,112
 608 -186 608 -186 589 -186 c 0,113,114
 556 -186 556 -186 536.5 -220 c 128,-1,115
 517 -254 517 -254 517 -287 c 0,116,117
 517 -321 517 -321 566 -375 c 1,118,-1
 548 -389 l 1,119,120
 516 -354 516 -354 496 -342 c 128,-1,121
 476 -330 476 -330 455 -330 c 2,122,-1
 447 -330 l 2,123,124
 438 -330 438 -330 415 -327 c 128,-1,125
 392 -324 392 -324 378 -324 c 1,126,127
 376 -326 376 -326 373 -326 c 2,128,-1
 369 -326 l 1,129,130
 354 -329 354 -329 342 -344 c 128,-1,131
 330 -359 330 -359 310 -406 c 1,132,-1
 296 -399 l 1,133,134
 318 -343 318 -343 318 -324 c 0,135,136
 318 -313 318 -313 299.5 -260 c 128,-1,137
 281 -207 281 -207 279 -174 c 0,138,139
 279 -163 279 -163 275.5 -156.5 c 128,-1,140
 272 -150 272 -150 255.5 -139 c 128,-1,141
 239 -128 239 -128 206 -115 c 1,142,-1
 214 -98 l 1,143,144
 264 -121 264 -121 283 -121 c 0,145,146
 308 -121 308 -121 330.5 -86 c 128,-1,147
 353 -51 353 -51 353 -31 c 0,148,149
 353 -6 353 -6 318 47 c 1,150,-1
 335 59 l 1,151,152
 364 16 364 16 380 4 c 128,-1,153
 396 -8 396 -8 416 -8 c 2,154,-1
 490 -8 l 2,155,156
 501 -8 501 -8 509 -1.5 c 128,-1,157
 517 5 517 5 519 16 c 2,158,-1
 527 66 l 2,159,160
 527 68 527 68 526 72.5 c 128,-1,161
 525 77 525 77 525 80 c 0,162,163
 525 90 525 90 532 115 c 128,-1,164
 539 140 539 140 539 145 c 2,165,-1
 539 207 l 2,166,167
 539 213 539 213 535 221 c 1,168,169
 509 259 509 259 509 317 c 0,170,171
 509 327 509 327 510 338.5 c 128,-1,172
 511 350 511 350 512.5 363.5 c 128,-1,173
 514 377 514 377 515 385 c 0,174,175
 515 391 515 391 488.5 436 c 128,-1,176
 462 481 462 481 455 504 c 1,177,178
 452 524 452 524 425 524 c 0,179,180
 411 524 411 524 373 518 c 1,181,-1
 371 537 l 1,182,183
 407 543 407 543 423 549 c 128,-1,184
 439 555 439 555 442 559.5 c 128,-1,185
 445 564 445 564 445 575 c 0,186,187
 444 599 444 599 430 814 c 128,-1,188
 416 1029 416 1029 416 1274 c 0,189,190
 416 1323 416 1323 418.5 1396 c 128,-1,191
 421 1469 421 1469 421 1489 c 0,192,193
 421 1501 421 1501 411.5 1509.5 c 128,-1,194
 402 1518 402 1518 390 1518 c 0,195,196
 335 1520 335 1520 226 1530 c 128,-1,197
 117 1540 117 1540 62 1542 c 1,198,199
 22 1542 22 1542 -48 1495 c 1,200,-1
 -57 1507 l 1,201,202
 -14 1537 -14 1537 2.5 1555.5 c 128,-1,203
 19 1574 19 1574 25 1593 c 1,204,-1
 36 1622 l 2,205,206
 38 1626 38 1626 38 1634 c 0,207,208
 38 1654 38 1654 -24 1683 c 1,209,-1
 -14 1700 l 1,210,211
 31 1677 31 1677 48 1677 c 0,212,213
 58 1677 58 1677 63 1679 c 128,-1,214
 68 1681 68 1681 69 1683.5 c 128,-1,215
 70 1686 70 1686 70 1692 c 1,0,1
EndSplineSet
EndChar

StartChar: K
Encoding: 75 75 48
Width: 1350
GlyphClass: 2
Flags: W
LayerCount: 2
Fore
SplineSet
549 1458 m 2,0,-1
 549 1196 l 2,1,2
 549 1177 549 1177 558.5 1166 c 128,-1,3
 568 1155 568 1155 584 1155 c 0,4,5
 592 1155 592 1155 604 1161 c 1,6,-1
 621 1174 l 1,7,-1
 651 1206 l 1,8,-1
 621 1255 l 1,9,-1
 653 1206 l 1,10,11
 692 1248 692 1248 727 1260 c 1,12,-1
 727 1270 l 2,13,14
 727 1279 727 1279 728.5 1289 c 128,-1,15
 730 1299 730 1299 732.5 1306 c 128,-1,16
 735 1313 735 1313 737.5 1319 c 128,-1,17
 740 1325 740 1325 742 1329 c 2,18,-1
 743 1333 l 1,19,-1
 756 1360 l 1,20,-1
 766 1427 l 1,21,22
 766 1436 766 1436 758 1448 c 1,23,-1
 707 1497 l 1,24,25
 696 1503 696 1503 688 1503 c 2,26,-1
 580 1503 l 2,27,28
 565 1503 565 1503 557 1489.5 c 128,-1,29
 549 1476 549 1476 549 1458 c 2,0,-1
1274 1475 m 1,30,-1
 1286 1454 l 1,31,32
 1308 1423 1308 1423 1380 1384 c 1,33,-1
 1376 1376 l 1,34,35
 1304 1415 1304 1415 1266 1415 c 2,36,-1
 1262 1415 l 2,37,38
 1253 1415 1253 1415 1230.5 1393.5 c 128,-1,39
 1208 1372 1208 1372 1208 1352 c 0,40,41
 1208 1334 1208 1334 1214 1294 c 1,42,-1
 1198 1292 l 1,43,44
 1190 1344 1190 1344 1182.5 1357.5 c 128,-1,45
 1175 1371 1175 1371 1159 1374 c 2,46,-1
 1112 1384 l 2,47,48
 1111 1384 1111 1384 1109 1385 c 128,-1,49
 1107 1386 1107 1386 1106 1386 c 128,-1,50
 1105 1386 1105 1386 1103 1385 c 128,-1,51
 1101 1384 1101 1384 1100 1384 c 0,52,53
 1085 1379 1085 1379 1060 1369 c 128,-1,54
 1035 1359 1035 1359 1016 1353.5 c 128,-1,55
 997 1348 997 1348 979 1348 c 2,56,-1
 971 1348 l 2,57,58
 956 1348 956 1348 948 1339 c 2,59,-1
 766 1155 l 1,60,-1
 772 1159 l 1,61,-1
 825 1067 l 1,62,63
 788 1044 788 1044 788 1012 c 0,64,65
 788 997 788 997 796.5 975.5 c 128,-1,66
 805 954 805 954 812.5 939.5 c 128,-1,67
 820 925 820 925 842 887 c 0,68,69
 849 873 849 873 868 848.5 c 128,-1,70
 887 824 887 824 900 800.5 c 128,-1,71
 913 777 913 777 917 752 c 1,72,73
 917 739 917 739 932 735 c 1,74,75
 955 723 955 723 969 655 c 128,-1,76
 983 587 983 587 983 537 c 0,77,78
 983 526 983 526 979 506 c 1,79,80
 1026 482 1026 482 1082.5 399 c 128,-1,81
 1139 316 1139 316 1139 254 c 0,82,83
 1139 246 1139 246 1121.5 214.5 c 128,-1,84
 1104 183 1104 183 1104 176 c 0,85,86
 1104 165 1104 165 1137 104 c 1,87,-1
 1128 100 l 1,88,89
 1112 131 1112 131 1102 146.5 c 128,-1,90
 1092 162 1092 162 1088 165 c 128,-1,91
 1084 168 1084 168 1079 168 c 2,92,-1
 1053 168 l 2,93,94
 1012 168 1012 168 983 221 c 1,95,96
 982 225 982 225 968 233.5 c 128,-1,97
 954 242 954 242 935 255 c 128,-1,98
 916 268 916 268 905 279 c 1,99,100
 902 284 902 284 899 291 c 0,101,102
 898 295 898 295 897 295 c 0,103,104
 880 295 880 295 862.5 283.5 c 128,-1,105
 845 272 845 272 811 233 c 1,106,-1
 799 244 l 1,107,108
 848 300 848 300 848 326 c 1,109,-1
 844 377 l 1,110,-1
 834 420 l 1,111,112
 829 433 829 433 819 438 c 0,113,114
 783 458 783 458 764 497.5 c 128,-1,115
 745 537 745 537 745 569 c 1,116,-1
 747 578 l 1,117,118
 731 586 731 586 721 586 c 0,119,120
 699 586 699 586 651 551 c 1,121,-1
 637 569 l 1,122,123
 696 613 696 613 696 639 c 0,124,125
 696 653 696 653 693 666.5 c 128,-1,126
 690 680 690 680 684.5 691 c 128,-1,127
 679 702 679 702 672 711.5 c 128,-1,128
 665 721 665 721 657.5 728 c 128,-1,129
 650 735 650 735 642.5 741.5 c 128,-1,130
 635 748 635 748 628.5 752 c 128,-1,131
 622 756 622 756 616.5 758.5 c 128,-1,132
 611 761 611 761 608 762 c 1,133,-1
 606 764 l 1,134,135
 569 764 569 764 569 694 c 0,136,137
 569 638 569 638 596 543.5 c 128,-1,138
 623 449 623 449 647 444 c 1,139,-1
 653 444 l 1,140,141
 659 442 659 442 670 442 c 0,142,143
 695 442 695 442 752 485 c 1,144,-1
 762 471 l 1,145,146
 721 438 721 438 709.5 421.5 c 128,-1,147
 698 405 698 405 698 385 c 2,148,-1
 698 371 l 2,149,150
 698 361 698 361 709 346 c 1,151,152
 720 328 720 328 738 319 c 128,-1,153
 756 310 756 310 807 305 c 1,154,-1
 805 285 l 1,155,156
 784 287 784 287 758 287 c 0,157,158
 716 287 716 287 698 266 c 1,159,-1
 668 186 l 1,160,161
 669 175 669 175 672.5 169.5 c 128,-1,162
 676 164 676 164 692.5 156 c 128,-1,163
 709 148 709 148 743 139 c 1,164,-1
 739 121 l 1,165,166
 702 131 702 131 676 131 c 0,167,168
 667 131 667 131 660.5 127.5 c 128,-1,169
 654 124 654 124 652 121.5 c 128,-1,170
 650 119 650 119 645 111 c 0,171,172
 631 87 631 87 631 6 c 1,173,-1
 621 6 l 1,174,175
 618 88 618 88 604 111 c 0,176,177
 602 113 602 113 600 115.5 c 128,-1,178
 598 118 598 118 596.5 119.5 c 128,-1,179
 595 121 595 121 593 122.5 c 128,-1,180
 591 124 591 124 588.5 125 c 128,-1,181
 586 126 586 126 582.5 126.5 c 128,-1,182
 579 127 579 127 575 127 c 0,183,184
 558 127 558 127 512 115 c 1,185,-1
 506 131 l 1,186,187
 556 145 556 145 568 154.5 c 128,-1,188
 580 164 580 164 580 180 c 1,189,-1
 567 233 l 1,190,-1
 545 242 l 1,191,-1
 500 238 l 1,192,193
 500 236 500 236 455.5 203.5 c 128,-1,194
 411 171 411 171 408 158 c 1,195,-1
 403 96 l 2,196,197
 403 90 403 90 392 53 c 128,-1,198
 381 16 381 16 381 -4 c 128,-1,199
 381 -24 381 -24 387 -82 c 1,200,-1
 381 -82 l 1,201,202
 376 -41 376 -41 371.5 -21 c 128,-1,203
 367 -1 367 -1 365 4.5 c 128,-1,204
 363 10 363 10 354 25 c 0,205,206
 346 37 346 37 332 37 c 128,-1,207
 318 37 318 37 268 25 c 1,208,-1
 264 39 l 1,209,210
 314 53 314 53 326 61.5 c 128,-1,211
 338 70 338 70 338 84 c 1,212,-1
 354 246 l 1,213,214
 354 267 354 267 342.5 279.5 c 128,-1,215
 331 292 331 292 283 311 c 1,216,-1
 291 332 l 1,217,218
 340 311 340 311 358 311 c 0,219,220
 375 311 375 311 387 328 c 1,221,-1
 410 348 l 1,222,223
 416 357 416 357 416 367 c 0,224,225
 415 410 415 410 405 503 c 128,-1,226
 395 596 395 596 395 643 c 0,227,228
 395 649 395 649 391 657 c 1,229,-1
 377 678 l 1,230,231
 363 696 363 696 348 696 c 0,232,233
 327 696 327 696 287 680 c 1,234,-1
 279 700 l 1,235,236
 321 716 321 716 333.5 727.5 c 128,-1,237
 346 739 346 739 346 754 c 1,238,-1
 330 868 l 1,239,240
 319 874 319 874 305 874 c 0,241,242
 283 874 283 874 231 842 c 1,243,-1
 219 860 l 1,244,245
 259 886 259 886 272 900 c 128,-1,246
 285 914 285 914 285 930 c 0,247,248
 285 985 285 985 273 1093 c 128,-1,249
 261 1201 261 1201 260 1253 c 0,250,251
 260 1264 260 1264 252 1272 c 1,252,-1
 250 1272 l 1,253,254
 232 1290 232 1290 192 1290 c 0,255,256
 164 1290 164 1290 145 1288 c 1,257,-1
 143 1305 l 1,258,259
 194 1310 194 1310 212 1318.5 c 128,-1,260
 230 1327 230 1327 242 1343 c 1,261,-1
 256 1364 l 1,262,263
 260 1372 260 1372 260 1378 c 2,264,-1
 260 1427 l 1,265,266
 238 1411 238 1411 227 1360 c 1,267,-1
 180 1370 l 1,268,269
 184 1398 184 1398 184 1407 c 0,270,271
 184 1439 184 1439 161.5 1456.5 c 128,-1,272
 139 1474 139 1474 111.5 1477.5 c 128,-1,273
 84 1481 84 1481 59 1493.5 c 128,-1,274
 34 1506 34 1506 29 1530 c 0,275,276
 25 1548 25 1548 6.5 1552 c 128,-1,277
 -12 1556 -12 1556 -80 1556 c 1,278,-1
 -80 1565 l 1,279,280
 -20 1565 -20 1565 -2.5 1568.5 c 128,-1,281
 15 1572 15 1572 37 1585 c 0,282,283
 66 1601 66 1601 66 1620 c 128,-1,284
 66 1639 66 1639 49 1679 c 1,285,-1
 68 1688 l 1,286,287
 94 1624 94 1624 113 1624 c 1,288,289
 133 1635 133 1635 133 1704 c 1,290,-1
 158 1704 l 1,291,292
 158 1648 158 1648 173.5 1629 c 128,-1,293
 189 1610 189 1610 215 1610 c 0,294,295
 251 1610 251 1610 321.5 1621 c 128,-1,296
 392 1632 392 1632 428 1632 c 0,297,298
 469 1632 469 1632 525.5 1620.5 c 128,-1,299
 582 1609 582 1609 614 1587 c 0,300,301
 630 1575 630 1575 639 1575 c 0,302,303
 646 1575 646 1575 653.5 1586 c 128,-1,304
 661 1597 661 1597 661 1608 c 0,305,306
 661 1625 661 1625 641 1675 c 1,307,-1
 661 1683 l 1,308,309
 681 1636 681 1636 693.5 1624 c 128,-1,310
 706 1612 706 1612 727 1612 c 2,311,-1
 762 1612 l 2,312,313
 782 1612 782 1612 791.5 1615 c 128,-1,314
 801 1618 801 1618 810 1635 c 128,-1,315
 819 1652 819 1652 825 1688 c 1,316,-1
 858 1681 l 1,317,318
 854 1649 854 1649 854 1642 c 0,319,320
 854 1612 854 1612 895 1594 c 128,-1,321
 936 1576 936 1576 996 1568 c 128,-1,322
 1056 1560 1056 1560 1116 1552 c 128,-1,323
 1176 1544 1176 1544 1220.5 1528 c 128,-1,324
 1265 1512 1265 1512 1270 1485 c 1,325,326
 1270 1479 1270 1479 1274 1475 c 1,30,-1
EndSplineSet
EndChar

StartChar: L
Encoding: 76 76 49
Width: 1103
GlyphClass: 2
Flags: W
LayerCount: 2
Fore
SplineSet
576 1741 m 1,0,1
 576 1724 576 1724 577 1712.5 c 128,-1,2
 578 1701 578 1701 578.5 1692 c 128,-1,3
 579 1683 579 1683 582 1677.5 c 128,-1,4
 585 1672 585 1672 586 1668.5 c 128,-1,5
 587 1665 587 1665 592 1663.5 c 128,-1,6
 597 1662 597 1662 599 1661.5 c 128,-1,7
 601 1661 601 1661 609 1660 c 128,-1,8
 617 1659 617 1659 621 1659 c 0,9,10
 630 1659 630 1659 641 1670 c 128,-1,11
 652 1681 652 1681 679 1718 c 1,12,-1
 689 1712 l 1,13,14
 650 1658 650 1658 650 1640 c 0,15,16
 650 1634 650 1634 658 1608 c 128,-1,17
 666 1582 666 1582 666 1567 c 2,18,-1
 666 1550 l 2,19,20
 666 1540 666 1540 675 1527 c 128,-1,21
 684 1514 684 1514 720 1477 c 1,22,-1
 713 1470 l 1,23,24
 679 1509 679 1509 666.5 1518.5 c 128,-1,25
 654 1528 654 1528 644 1528 c 2,26,-1
 619 1530 l 2,27,28
 611 1530 611 1530 599 1526 c 1,29,-1
 513 1452 l 1,30,31
 502 1444 502 1444 502 1432 c 0,32,33
 502 1416 502 1416 504 1395 c 128,-1,34
 506 1374 506 1374 511.5 1339.5 c 128,-1,35
 517 1305 517 1305 531.5 1282.5 c 128,-1,36
 546 1260 546 1260 568 1260 c 0,37,38
 584 1260 584 1260 611 1266 c 1,39,-1
 617 1231 l 1,40,41
 595 1226 595 1226 581.5 1220 c 128,-1,42
 568 1214 568 1214 561 1211 c 128,-1,43
 554 1208 554 1208 551 1196.5 c 128,-1,44
 548 1185 548 1185 548 1182.5 c 128,-1,45
 548 1180 548 1180 548 1161 c 0,46,47
 548 1137 548 1137 563 1127.5 c 128,-1,48
 578 1118 578 1118 632 1118 c 1,49,-1
 632 1096 l 1,50,51
 581 1096 581 1096 567.5 1089 c 128,-1,52
 554 1082 554 1082 552 1063 c 1,53,54
 548 1040 548 1040 548 993 c 0,55,56
 548 931 548 931 555 780 c 128,-1,57
 562 629 562 629 562 569 c 2,58,-1
 562 528 l 2,59,60
 562 521 562 521 570 508 c 1,61,62
 580 487 580 487 599 487 c 0,63,64
 616 487 616 487 660 504 c 1,65,-1
 668 481 l 1,66,67
 629 467 629 467 615 456.5 c 128,-1,68
 601 446 601 446 601 434 c 0,69,70
 601 426 601 426 603 422 c 1,71,-1
 611 387 l 2,72,73
 617 365 617 365 642 365 c 1,74,-1
 744 383 l 1,75,76
 763 390 763 390 774 405.5 c 128,-1,77
 785 421 785 421 799 471 c 1,78,-1
 818 467 l 1,79,80
 806 418 806 418 806 399 c 0,81,82
 806 360 806 360 836 360 c 2,83,-1
 904 360 l 2,84,85
 935 360 935 360 985 449.5 c 128,-1,86
 1035 539 1035 539 1035 563 c 0,87,88
 1035 581 1035 581 986 627 c 1,89,-1
 998 639 l 1,90,91
 1043 594 1043 594 1062 594 c 0,92,93
 1119 594 1119 594 1178 748 c 1,94,-1
 1184 745 l 1,95,96
 1156 665 1156 665 1156 631 c 2,97,-1
 1156 432 l 2,98,99
 1156 386 1156 386 1117 306.5 c 128,-1,100
 1078 227 1078 227 1078 186 c 0,101,102
 1078 163 1078 163 1135 123 c 1,103,-1
 1123 106 l 1,104,105
 1073 143 1073 143 1053 143 c 0,106,107
 1045 143 1045 143 1023 131 c 1,108,109
 1011 123 1011 123 1003 105.5 c 128,-1,110
 995 88 995 88 984 37 c 1,111,-1
 974 39 l 1,112,113
 984 83 984 83 984 111 c 0,114,115
 984 130 984 130 967 161.5 c 128,-1,116
 950 193 950 193 947 207 c 1,117,118
 930 202 930 202 923 188.5 c 128,-1,119
 916 175 916 175 916 141 c 2,120,-1
 916 127 l 1,121,-1
 883 127 l 1,122,123
 882 178 882 178 871.5 191.5 c 128,-1,124
 861 205 861 205 834 207 c 0,125,126
 799 209 799 209 732 209 c 0,127,128
 617 209 617 209 567.5 193.5 c 128,-1,129
 518 178 518 178 419 121 c 1,130,131
 406 112 406 112 400 96 c 128,-1,132
 394 80 394 80 388 29 c 1,133,-1
 373 31 l 1,134,135
 378 55 378 55 378 86 c 0,136,137
 378 93 378 93 377.5 98.5 c 128,-1,138
 377 104 377 104 375.5 108.5 c 128,-1,139
 374 113 374 113 373 116 c 128,-1,140
 372 119 372 119 369.5 122 c 128,-1,141
 367 125 367 125 365.5 126.5 c 128,-1,142
 364 128 364 128 360.5 131.5 c 128,-1,143
 357 135 357 135 355 137 c 2,144,-1
 343 143 l 1,145,146
 329 143 329 143 273 121 c 1,147,-1
 269 131 l 1,148,149
 316 151 316 151 327.5 159.5 c 128,-1,150
 339 168 339 168 339 178 c 2,151,-1
 339 207 l 2,152,153
 339 237 339 237 349 270 c 0,154,155
 349 272 349 272 335 281 c 1,156,-1
 351 274 l 1,157,-1
 373 297 l 2,158,159
 380 303 380 303 380 313 c 1,160,161
 378 323 378 323 357 379 c 1,162,-1
 367 383 l 1,163,164
 383 340 383 340 398 317 c 1,165,166
 408 325 408 325 408 338 c 0,167,168
 408 347 408 347 402 362 c 0,169,170
 395 382 395 382 390 439 c 128,-1,171
 385 496 385 496 373 531.5 c 128,-1,172
 361 567 361 567 332 567 c 0,173,174
 318 567 318 567 287 561 c 1,175,-1
 281 592 l 1,176,177
 325 600 325 600 338 610 c 128,-1,178
 351 620 351 620 351 637 c 2,179,-1
 351 649 l 1,180,181
 345 698 345 698 307 872 c 128,-1,182
 269 1046 269 1046 267 1126 c 0,183,184
 267 1128 267 1128 248.5 1166.5 c 128,-1,185
 230 1205 230 1205 230 1245 c 0,186,187
 230 1261 230 1261 231 1287 c 128,-1,188
 232 1313 232 1313 232 1321 c 0,189,190
 232 1419 232 1419 195 1419 c 0,191,192
 181 1419 181 1419 150.5 1421 c 128,-1,193
 120 1423 120 1423 105 1423 c 0,194,195
 80 1423 80 1423 23 1374 c 1,196,-1
 13 1386 l 1,197,198
 52 1421 52 1421 63 1438.5 c 128,-1,199
 74 1456 74 1456 74 1475 c 2,200,-1
 74 1548 l 2,201,202
 74 1567 74 1567 63 1584.5 c 128,-1,203
 52 1602 52 1602 15 1638 c 1,204,-1
 25 1651 l 1,205,206
 84 1597 84 1597 113 1597 c 0,207,208
 185 1597 185 1597 326 1617 c 128,-1,209
 467 1637 467 1637 531 1655 c 1,210,211
 548 1658 548 1658 554 1667 c 128,-1,212
 560 1676 560 1676 560 1708 c 2,213,-1
 560 1739 l 1,214,-1
 576 1741 l 1,0,1
EndSplineSet
EndChar

StartChar: M
Encoding: 77 77 50
Width: 1923
GlyphClass: 2
Flags: W
LayerCount: 2
Fore
SplineSet
262 1485 m 2,0,-1
 252 1485 l 1,1,2
 254 1483 254 1483 258 1483 c 1,3,4
 260 1485 260 1485 262 1485 c 2,0,-1
678 217 m 1,5,6
 670 209 670 209 670 201 c 0,7,8
 670 185 670 185 688 145 c 1,9,-1
 676 143 l 1,10,11
 656 195 656 195 639 195 c 0,12,13
 576 195 576 195 432.5 163 c 128,-1,14
 289 131 289 131 289 113 c 0,15,16
 289 86 289 86 334 39 c 1,17,-1
 328 31 l 1,18,19
 297 61 297 61 282.5 69.5 c 128,-1,20
 268 78 268 78 252 78 c 0,21,22
 195 78 195 78 166 10 c 1,23,-1
 148 12 l 1,24,-1
 191 106 l 1,25,26
 191 112 191 112 123 145 c 1,27,-1
 138 174 l 1,28,29
 188 154 188 154 191 154 c 0,30,31
 211 154 211 154 211 170 c 0,32,33
 211 187 211 187 181 217 c 1,34,-1
 197 231 l 1,35,36
 230 195 230 195 242 195 c 0,37,38
 250 195 250 195 262 207 c 1,39,40
 308 240 308 240 321 282.5 c 128,-1,41
 334 325 334 325 334 397 c 0,42,43
 334 416 334 416 330 453 c 128,-1,44
 326 490 326 490 326 508 c 0,45,46
 326 513 326 513 327 521 c 128,-1,47
 328 529 328 529 328 535 c 0,48,49
 328 537 328 537 324 545 c 1,50,51
 289 594 289 594 289 676 c 0,52,53
 289 716 289 716 295 750 c 1,54,-1
 295 752 l 2,55,56
 295 759 295 759 292 896.5 c 128,-1,57
 289 1034 289 1034 285 1135 c 128,-1,58
 281 1236 281 1236 270.5 1348.5 c 128,-1,59
 260 1461 260 1461 244 1493 c 1,60,-1
 203 1532 l 1,61,62
 195 1536 195 1536 189 1536 c 2,63,-1
 111 1536 l 2,64,65
 95 1536 95 1536 85.5 1526.5 c 128,-1,66
 76 1517 76 1517 62 1481 c 1,67,-1
 47 1485 l 1,68,69
 64 1517 64 1517 64 1538 c 0,70,71
 64 1558 64 1558 47 1565 c 1,72,73
 47 1573 47 1573 31 1573 c 0,74,75
 20 1573 20 1573 -20 1556 c 1,76,-1
 -26 1567 l 1,77,78
 13 1583 13 1583 22 1590.5 c 128,-1,79
 31 1598 31 1598 31 1612 c 0,80,81
 31 1622 31 1622 23 1633 c 128,-1,82
 15 1644 15 1644 -16 1675 c 1,83,-1
 -8 1679 l 1,84,85
 37 1638 37 1638 51 1638 c 0,86,87
 72 1638 72 1638 107 1649.5 c 128,-1,88
 142 1661 142 1661 160 1661 c 2,89,-1
 504 1661 l 2,90,91
 516 1661 516 1661 523 1663.5 c 128,-1,92
 530 1666 530 1666 539.5 1679 c 128,-1,93
 549 1692 549 1692 561 1718 c 1,94,-1
 576 1710 l 1,95,96
 557 1665 557 1665 557 1653 c 0,97,98
 557 1643 557 1643 568 1630 c 2,99,-1
 600 1589 l 1,100,101
 606 1575 606 1575 623 1575 c 0,102,103
 638 1575 638 1575 674 1587 c 1,104,-1
 680 1571 l 1,105,106
 641 1556 641 1556 631 1547 c 128,-1,107
 621 1538 621 1538 621 1522 c 2,108,-1
 621 1520 l 2,109,110
 621 1515 621 1515 627 1509 c 0,111,112
 709 1407 709 1407 788 1246.5 c 128,-1,113
 867 1086 867 1086 883 971 c 1,114,115
 892 952 892 952 906 952 c 0,116,117
 913 952 913 952 955 967 c 1,118,-1
 963 948 l 1,119,120
 933 937 933 937 922.5 928.5 c 128,-1,121
 912 920 912 920 912 909 c 0,122,123
 912 876 912 876 935 828 c 128,-1,124
 958 780 958 780 979 780 c 0,125,126
 997 780 997 780 1026 799 c 1,127,-1
 1041 778 l 1,128,129
 994 754 994 754 994 737 c 1,130,131
 997 729 997 729 1010 729 c 0,132,133
 1018 729 1018 729 1024.5 735.5 c 128,-1,134
 1031 742 1031 742 1036.5 755 c 128,-1,135
 1042 768 1042 768 1045 779.5 c 128,-1,136
 1048 791 1048 791 1052.5 810.5 c 128,-1,137
 1057 830 1057 830 1059 838 c 1,138,139
 1062 902 1062 902 1092 975 c 128,-1,140
 1122 1048 1122 1048 1161.5 1127.5 c 128,-1,141
 1201 1207 1201 1207 1217 1262 c 0,142,143
 1219 1266 1219 1266 1219 1274 c 0,144,145
 1219 1292 1219 1292 1170 1313 c 1,146,-1
 1176 1331 l 1,147,148
 1209 1319 1209 1319 1221 1319 c 0,149,150
 1244 1319 1244 1319 1277.5 1418.5 c 128,-1,151
 1311 1518 1311 1518 1311 1559 c 0,152,153
 1311 1579 1311 1579 1268 1620 c 1,154,-1
 1280 1630 l 1,155,156
 1317 1593 1317 1593 1340 1593 c 0,157,158
 1348 1593 1348 1593 1354 1595 c 1,159,-1
 1379 1597 l 1,160,161
 1387 1600 1387 1600 1390.5 1602.5 c 128,-1,162
 1394 1605 1394 1605 1397.5 1613.5 c 128,-1,163
 1401 1622 1401 1622 1401 1636 c 0,164,165
 1401 1640 1401 1640 1400 1650 c 128,-1,166
 1399 1660 1399 1660 1399 1665 c 1,167,-1
 1415 1667 l 1,168,169
 1420 1627 1420 1627 1426.5 1617.5 c 128,-1,170
 1433 1608 1433 1608 1448 1608 c 0,171,172
 1672 1598 1672 1598 1841 1530 c 1,173,174
 1852 1524 1852 1524 1870 1524 c 0,175,176
 1874 1524 1874 1524 1932 1532 c 1,177,-1
 1934 1522 l 1,178,179
 1915 1518 1915 1518 1902.5 1514 c 128,-1,180
 1890 1510 1890 1510 1882 1508 c 128,-1,181
 1874 1506 1874 1506 1867.5 1500.5 c 128,-1,182
 1861 1495 1861 1495 1858.5 1493 c 128,-1,183
 1856 1491 1856 1491 1849 1482.5 c 128,-1,184
 1842 1474 1842 1474 1839 1470 c 0,185,186
 1829 1460 1829 1460 1829 1446 c 0,187,188
 1829 1422 1829 1422 1841 1391 c 1,189,-1
 1827 1384 l 1,190,191
 1813 1424 1813 1424 1803.5 1436.5 c 128,-1,192
 1794 1449 1794 1449 1780 1452 c 1,193,-1
 1757 1454 l 1,194,-1
 1692 1448 l 2,195,196
 1683 1448 1683 1448 1678 1440 c 1,197,-1
 1653 1409 l 1,198,199
 1647 1406 1647 1406 1647 1399 c 2,200,-1
 1647 1237 l 2,201,202
 1647 1224 1647 1224 1657 1214.5 c 128,-1,203
 1667 1205 1667 1205 1704 1188 c 1,204,-1
 1698 1176 l 1,205,206
 1659 1192 1659 1192 1643 1192 c 0,207,208
 1631 1192 1631 1192 1627.5 1187 c 128,-1,209
 1624 1182 1624 1182 1624 1171 c 2,210,-1
 1626 1012 l 2,211,212
 1626 950 1626 950 1598 913 c 0,213,214
 1594 909 1594 909 1594 901 c 0,215,216
 1593 884 1593 884 1582 761.5 c 128,-1,217
 1571 639 1571 639 1571 573 c 1,218,-1
 1577 272 l 2,219,220
 1577 263 1577 263 1578 259.5 c 128,-1,221
 1579 256 1579 256 1584 252.5 c 128,-1,222
 1589 249 1589 249 1600 248 c 2,223,-1
 1659 244 l 1,224,225
 1684 244 1684 244 1731 287 c 1,226,-1
 1739 279 l 1,227,228
 1709 253 1709 253 1700.5 238.5 c 128,-1,229
 1692 224 1692 224 1692 209 c 2,230,-1
 1692 195 l 2,231,232
 1692 188 1692 188 1694 184.5 c 128,-1,233
 1696 181 1696 181 1709 174.5 c 128,-1,234
 1722 168 1722 168 1749 158 c 1,235,-1
 1743 147 l 1,236,237
 1702 164 1702 164 1690 164 c 0,238,239
 1684 164 1684 164 1676 160 c 1,240,-1
 1676 158 l 1,241,242
 1675 157 1675 157 1674 155.5 c 128,-1,243
 1673 154 1673 154 1672 152.5 c 128,-1,244
 1671 151 1671 151 1670 148.5 c 128,-1,245
 1669 146 1669 146 1669 143 c 128,-1,246
 1669 140 1669 140 1671.5 133 c 128,-1,247
 1674 126 1674 126 1678.5 113.5 c 128,-1,248
 1683 101 1683 101 1686 88 c 1,249,-1
 1676 84 l 1,250,251
 1663 123 1663 123 1656.5 133 c 128,-1,252
 1650 143 1650 143 1641 143 c 2,253,-1
 1338 168 l 1,254,-1
 1295 168 l 2,255,256
 1253 168 1253 168 1226.5 151 c 128,-1,257
 1200 134 1200 134 1190 80 c 1,258,-1
 1180 82 l 1,259,260
 1186 122 1186 122 1186 133 c 0,261,262
 1186 150 1186 150 1176 160 c 1,263,-1
 1174 160 l 1,264,265
 1164 170 1164 170 1139 170 c 0,266,267
 1136 170 1136 170 1096 166 c 1,268,-1
 1096 176 l 1,269,270
 1112 178 1112 178 1123 179 c 128,-1,271
 1134 180 1134 180 1142 182.5 c 128,-1,272
 1150 185 1150 185 1154.5 186 c 128,-1,273
 1159 187 1159 187 1163.5 191.5 c 128,-1,274
 1168 196 1168 196 1169.5 197.5 c 128,-1,275
 1171 199 1171 199 1175.5 205.5 c 128,-1,276
 1180 212 1180 212 1182 215 c 0,277,278
 1190 231 1190 231 1190 238 c 0,279,280
 1190 251 1190 251 1168 291 c 1,281,-1
 1180 303 l 1,282,283
 1200 270 1200 270 1210.5 260 c 128,-1,284
 1221 250 1221 250 1233 250 c 1,285,286
 1237 252 1237 252 1239 252 c 2,287,-1
 1276 260 l 1,288,289
 1286 265 1286 265 1291 279 c 1,290,-1
 1307 393 l 1,291,292
 1300 410 1300 410 1296.5 415.5 c 128,-1,293
 1293 421 1293 421 1278.5 428 c 128,-1,294
 1264 435 1264 435 1233 442 c 1,295,-1
 1235 459 l 1,296,297
 1256 453 1256 453 1280 453 c 0,298,299
 1317 453 1317 453 1317 475 c 2,300,-1
 1311 1112 l 2,301,302
 1311 1131 1311 1131 1301.5 1142 c 128,-1,303
 1292 1153 1292 1153 1278 1153 c 0,304,305
 1252 1153 1252 1153 1228.5 1081 c 128,-1,306
 1205 1009 1205 1009 1205 965 c 0,307,308
 1205 953 1205 953 1216 946 c 128,-1,309
 1227 939 1227 939 1260 930 c 1,310,-1
 1256 909 l 1,311,312
 1225 918 1225 918 1213 918 c 0,313,314
 1193 918 1193 918 1186 897 c 1,315,-1
 1139 725 l 2,316,317
 1139 723 1139 723 1138 718.5 c 128,-1,318
 1137 714 1137 714 1137 713 c 0,319,320
 1137 688 1137 688 1190 666 c 1,321,-1
 1182 647 l 1,322,323
 1136 664 1136 664 1129 664 c 0,324,325
 1094 664 1094 664 1072 605 c 128,-1,326
 1050 546 1050 546 1043.5 472.5 c 128,-1,327
 1037 399 1037 399 1029 319.5 c 128,-1,328
 1021 240 1021 240 1010 213 c 1,329,330
 1004 204 1004 204 1004 193 c 0,331,332
 1004 176 1004 176 1016 127 c 1,333,-1
 1010 127 l 1,334,335
 1004 145 1004 145 999.5 157 c 128,-1,336
 995 169 995 169 989.5 177.5 c 128,-1,337
 984 186 984 186 982 188.5 c 128,-1,338
 980 191 980 191 972.5 198 c 128,-1,339
 965 205 965 205 963 207 c 128,-1,340
 961 209 961 209 946 209 c 0,341,342
 924 209 924 209 889 190 c 1,343,-1
 883 203 l 1,344,345
 918 221 918 221 928 231.5 c 128,-1,346
 938 242 938 242 938 256 c 2,347,-1
 938 260 l 2,348,349
 938 283 938 283 916 283 c 0,350,351
 901 283 901 283 858 262 c 1,352,-1
 852 276 l 1,353,354
 887 294 887 294 897.5 304 c 128,-1,355
 908 314 908 314 910 326 c 1,356,-1
 903 338 l 1,357,358
 861 391 861 391 831 471.5 c 128,-1,359
 801 552 801 552 773 644 c 128,-1,360
 745 736 745 736 715 793 c 0,361,362
 708 807 708 807 695 807 c 0,363,364
 676 807 676 807 647 793 c 1,365,-1
 639 809 l 1,366,367
 686 828 686 828 686 846 c 0,368,369
 686 879 686 879 639.5 949.5 c 128,-1,370
 593 1020 593 1020 584 1057 c 1,371,372
 523 1159 523 1159 514 1159 c 0,373,374
 507 1159 507 1159 499.5 1108 c 128,-1,375
 492 1057 492 1057 492 1018 c 0,376,377
 492 977 492 977 484 901.5 c 128,-1,378
 476 826 476 826 467 819 c 1,379,380
 502 779 502 779 502 698 c 0,381,382
 502 691 502 691 496 631 c 0,383,384
 496 623 496 623 498 618 c 0,385,386
 506 599 506 599 516 518 c 128,-1,387
 526 437 526 437 538 371 c 128,-1,388
 550 305 550 305 566 305 c 2,389,-1
 625 305 l 2,390,391
 640 305 640 305 652.5 314.5 c 128,-1,392
 665 324 665 324 686 358 c 1,393,-1
 701 350 l 1,394,395
 674 303 674 303 674 289 c 0,396,397
 674 278 674 278 686 256 c 0,398,399
 691 247 691 247 703 241.5 c 128,-1,400
 715 236 715 236 756 225 c 1,401,-1
 754 217 l 1,402,403
 723 223 723 223 701 223 c 0,404,405
 684 223 684 223 681 222.5 c 128,-1,406
 678 222 678 222 678 217 c 1,5,6
EndSplineSet
EndChar

StartChar: N
Encoding: 78 78 51
Width: 1494
GlyphClass: 2
Flags: W
LayerCount: 2
Fore
SplineSet
615 154 m 1,0,1
 581 204 581 204 568 216.5 c 128,-1,2
 555 229 555 229 525 244 c 0,3,4
 524 244 524 244 522 245 c 128,-1,5
 520 246 520 246 519 246 c 0,6,7
 496 246 496 246 463 225 c 1,8,9
 455 225 455 225 447 227 c 128,-1,10
 439 229 439 229 434 231 c 128,-1,11
 429 233 429 233 428 233 c 0,12,13
 422 227 422 227 422 219 c 0,14,15
 422 202 422 202 439 152 c 1,16,-1
 428 147 l 1,17,18
 416 181 416 181 408.5 197 c 128,-1,19
 401 213 401 213 397.5 216 c 128,-1,20
 394 219 394 219 388 219 c 2,21,-1
 365 219 l 1,22,-1
 330 217 l 1,23,24
 330 197 330 197 341.5 179.5 c 128,-1,25
 353 162 353 162 392 129 c 1,26,-1
 381 115 l 1,27,28
 322 164 322 164 297 164 c 0,29,30
 295 164 295 164 291 163 c 128,-1,31
 287 162 287 162 285 162 c 1,32,-1
 287 164 l 1,33,34
 263 159 263 159 263 129 c 0,35,36
 263 101 263 101 312 47 c 1,37,-1
 297 37 l 1,38,39
 264 76 264 76 246.5 87 c 128,-1,40
 229 98 229 98 209 98 c 2,41,-1
 162 98 l 2,42,43
 147 98 147 98 131.5 88 c 128,-1,44
 116 78 116 78 80 41 c 1,45,-1
 70 51 l 1,46,47
 107 87 107 87 117 102.5 c 128,-1,48
 127 118 127 118 127 133 c 2,49,-1
 127 170 l 2,50,51
 127 220 127 220 140 235 c 0,52,53
 147 242 147 242 156 246 c 0,54,55
 171 251 171 251 183.5 295 c 128,-1,56
 196 339 196 339 202 380 c 1,57,-1
 207 422 l 1,58,-1
 213 424 l 1,59,60
 224 383 224 383 250 383 c 0,61,62
 260 383 260 383 268.5 390 c 128,-1,63
 277 397 277 397 277 410 c 0,64,65
 278 440 278 440 281.5 525.5 c 128,-1,66
 285 611 285 611 285 664 c 0,67,68
 285 697 285 697 282.5 716.5 c 128,-1,69
 280 736 280 736 271 755.5 c 128,-1,70
 262 775 262 775 242 784 c 128,-1,71
 222 793 222 793 189 793 c 1,72,-1
 185 836 l 1,73,74
 236 840 236 840 249.5 855.5 c 128,-1,75
 263 871 263 871 263 907 c 0,76,77
 263 938 263 938 265 1001 c 128,-1,78
 267 1064 267 1064 267 1096 c 0,79,80
 267 1216 267 1216 240 1300 c 128,-1,81
 213 1384 213 1384 154 1454 c 1,82,83
 145 1460 145 1460 136 1460 c 0,84,85
 131 1460 131 1460 127 1459 c 128,-1,86
 123 1458 123 1458 119 1455 c 128,-1,87
 115 1452 115 1452 112.5 1450 c 128,-1,88
 110 1448 110 1448 106 1443.5 c 128,-1,89
 102 1439 102 1439 101 1438 c 0,90,91
 89 1429 89 1429 56 1356 c 1,92,-1
 52 1356 l 1,93,94
 84 1423 84 1423 84 1446 c 0,95,96
 84 1452 84 1452 80 1456 c 128,-1,97
 76 1460 76 1460 60 1467.5 c 128,-1,98
 44 1475 44 1475 13 1485 c 1,99,-1
 15 1497 l 1,100,101
 31 1494 31 1494 47 1489.5 c 128,-1,102
 63 1485 63 1485 71 1483 c 128,-1,103
 79 1481 79 1481 82 1481 c 0,104,105
 101 1481 101 1481 116.5 1522.5 c 128,-1,106
 132 1564 132 1564 132 1589 c 0,107,108
 132 1618 132 1618 80 1677 c 1,109,-1
 95 1690 l 1,110,111
 130 1650 130 1650 146 1640 c 128,-1,112
 162 1630 162 1630 185 1630 c 2,113,-1
 211 1630 l 2,114,115
 229 1630 229 1630 238.5 1633.5 c 128,-1,116
 248 1637 248 1637 254.5 1654.5 c 128,-1,117
 261 1672 261 1672 261 1706 c 1,118,-1
 293 1706 l 1,119,120
 293 1692 293 1692 293.5 1681 c 128,-1,121
 294 1670 294 1670 297 1661.5 c 128,-1,122
 300 1653 300 1653 301 1647.5 c 128,-1,123
 302 1642 302 1642 308.5 1638 c 128,-1,124
 315 1634 315 1634 316.5 1632 c 128,-1,125
 318 1630 318 1630 327 1629 c 128,-1,126
 336 1628 336 1628 337.5 1628 c 128,-1,127
 339 1628 339 1628 351 1628 c 128,-1,128
 363 1628 363 1628 365 1628 c 0,129,130
 386 1628 386 1628 400.5 1639.5 c 128,-1,131
 415 1651 415 1651 441 1696 c 1,132,-1
 459 1686 l 1,133,134
 426 1632 426 1632 426 1610 c 1,135,136
 428 1587 428 1587 433 1587 c 1,137,138
 434 1583 434 1583 455 1576.5 c 128,-1,139
 476 1570 476 1570 495 1556 c 128,-1,140
 514 1542 514 1542 514 1520 c 0,141,142
 514 1518 514 1518 513 1512.5 c 128,-1,143
 512 1507 512 1507 512 1505 c 0,144,145
 512 1500 512 1500 521 1491 c 1,146,147
 708 1232 708 1232 781 1143 c 1,148,149
 796 1128 796 1128 809 1128 c 0,150,151
 825 1128 825 1128 877 1147 c 1,152,-1
 885 1126 l 1,153,154
 839 1108 839 1108 826 1095 c 128,-1,155
 813 1082 813 1082 813 1063 c 2,156,-1
 813 999 l 2,157,158
 813 996 813 996 814 993 c 128,-1,159
 815 990 815 990 817 987.5 c 128,-1,160
 819 985 819 985 820.5 984 c 128,-1,161
 822 983 822 983 825.5 980.5 c 128,-1,162
 829 978 829 978 830 977 c 0,163,164
 846 969 846 969 856 930 c 128,-1,165
 866 891 866 891 873 881 c 1,166,167
 903 829 903 829 917 812 c 128,-1,168
 931 795 931 795 949 795 c 0,169,170
 1000 795 1000 795 1000 905 c 0,171,172
 1000 933 1000 933 996 977.5 c 128,-1,173
 992 1022 992 1022 992 1030 c 0,174,175
 992 1056 992 1056 1005 1108 c 128,-1,176
 1018 1160 1018 1160 1018 1186 c 1,177,-1
 1006 1376 l 1,178,-1
 994 1427 l 2,179,180
 983 1470 983 1470 816 1470 c 0,181,182
 792 1470 792 1470 776 1468 c 128,-1,183
 760 1466 760 1466 731 1454 c 128,-1,184
 702 1442 702 1442 664 1419 c 1,185,-1
 656 1432 l 1,186,187
 732 1479 732 1479 752 1518 c 0,188,189
 756 1525 756 1525 795 1574.5 c 128,-1,190
 834 1624 834 1624 834 1649 c 128,-1,191
 834 1674 834 1674 799 1726 c 1,192,-1
 818 1737 l 1,193,194
 843 1695 843 1695 859.5 1682 c 128,-1,195
 876 1669 876 1669 897 1669 c 0,196,197
 926 1669 926 1669 939.5 1682 c 128,-1,198
 953 1695 953 1695 963 1745 c 1,199,-1
 998 1739 l 1,200,201
 992 1707 992 1707 992 1692 c 0,202,203
 992 1655 992 1655 1070 1630.5 c 128,-1,204
 1148 1606 1148 1606 1231 1598.5 c 128,-1,205
 1314 1591 1314 1591 1387 1591 c 0,206,207
 1419 1591 1419 1591 1491 1624 c 1,208,-1
 1495 1614 l 1,209,210
 1415 1577 1415 1577 1395 1550 c 0,211,212
 1391 1545 1391 1545 1370.5 1521.5 c 128,-1,213
 1350 1498 1350 1498 1342.5 1489 c 128,-1,214
 1335 1480 1335 1480 1318.5 1459 c 128,-1,215
 1302 1438 1302 1438 1295 1425 c 128,-1,216
 1288 1412 1288 1412 1280 1394.5 c 128,-1,217
 1272 1377 1272 1377 1270 1362 c 1,218,-1
 1308 1265 l 2,219,220
 1299 1286 1299 1286 1262 1286 c 0,221,222
 1236 1286 1236 1286 1217.5 1282.5 c 128,-1,223
 1199 1279 1199 1279 1190.5 1275 c 128,-1,224
 1182 1271 1182 1271 1177.5 1264 c 128,-1,225
 1173 1257 1173 1257 1172.5 1254.5 c 128,-1,226
 1172 1252 1172 1252 1172 1247 c 0,227,228
 1172 1244 1172 1244 1172 1222 c 128,-1,229
 1172 1200 1172 1200 1172 1194 c 128,-1,230
 1172 1188 1172 1188 1171 1168.5 c 128,-1,231
 1170 1149 1170 1149 1168.5 1140 c 128,-1,232
 1167 1131 1167 1131 1164 1116 c 128,-1,233
 1161 1101 1161 1101 1156 1089.5 c 128,-1,234
 1151 1078 1151 1078 1145 1067 c 0,235,236
 1141 1059 1141 1059 1141 1055 c 0,237,238
 1141 981 1141 981 1138 836 c 128,-1,239
 1135 691 1135 691 1135 618 c 0,240,241
 1135 606 1135 606 1148.5 598 c 128,-1,242
 1162 590 1162 590 1207 582 c 1,243,-1
 1203 565 l 1,244,245
 1149 573 1149 573 1147 573 c 0,246,247
 1113 573 1113 573 1113 512 c 0,248,249
 1113 505 1113 505 1113.5 497 c 128,-1,250
 1114 489 1114 489 1114 484 c 2,251,-1
 1115 479 l 1,252,253
 1115 406 1115 406 1113 383 c 1,254,255
 1100 372 1100 372 1100 358 c 1,256,-1
 1104 309 l 1,257,258
 1104 215 1104 215 1092 182 c 0,259,260
 1088 170 1088 170 1088 164 c 0,261,262
 1088 137 1088 137 1119 84 c 1,263,-1
 1106 78 l 1,264,265
 1098 85 1098 85 1086.5 96 c 128,-1,266
 1075 107 1075 107 1070 111.5 c 128,-1,267
 1065 116 1065 116 1057 123.5 c 128,-1,268
 1049 131 1049 131 1045.5 133.5 c 128,-1,269
 1042 136 1042 136 1036 140.5 c 128,-1,270
 1030 145 1030 145 1026.5 147 c 128,-1,271
 1023 149 1023 149 1018 151 c 128,-1,272
 1013 153 1013 153 1008 154 c 1,273,-1
 1012 154 l 1,274,275
 1006 156 1006 156 996 156 c 0,276,277
 971 156 971 156 930 102 c 1,278,-1
 914 115 l 1,279,280
 953 162 953 162 953 184 c 0,281,282
 953 201 953 201 937.5 219.5 c 128,-1,283
 922 238 922 238 906 238 c 0,284,285
 886 238 886 238 844 219 c 1,286,-1
 832 244 l 1,287,288
 868 260 868 260 881.5 272.5 c 128,-1,289
 895 285 895 285 895 299 c 0,290,291
 895 337 895 337 876.5 400.5 c 128,-1,292
 858 464 858 464 838 498 c 1,293,294
 842 490 842 490 842 485 c 0,295,296
 842 466 842 466 785 438 c 1,297,-1
 768 469 l 1,298,299
 774 472 774 472 783.5 477 c 128,-1,300
 793 482 793 482 797 484.5 c 128,-1,301
 801 487 801 487 807 490.5 c 128,-1,302
 813 494 813 494 815.5 497 c 128,-1,303
 818 500 818 500 820 504 c 128,-1,304
 822 508 822 508 822 512 c 0,305,306
 822 520 822 520 806.5 546 c 128,-1,307
 791 572 791 572 758 613 c 128,-1,308
 725 654 725 654 687 690 c 1,309,310
 670 709 670 709 656 709 c 0,311,312
 634 709 634 709 592 694 c 1,313,-1
 586 715 l 1,314,315
 629 728 629 728 643.5 738 c 128,-1,316
 658 748 658 748 660 762 c 1,317,-1
 660 766 l 1,318,319
 658 774 658 774 646 786 c 1,320,321
 607 808 607 808 572 847.5 c 128,-1,322
 537 887 537 887 531 924 c 1,323,324
 531 936 531 936 513 946 c 128,-1,325
 495 956 495 956 477 960 c 2,326,-1
 459 963 l 1,327,328
 444 963 444 963 416 942 c 1,329,330
 415 895 415 895 413.5 816.5 c 128,-1,331
 412 738 412 738 411 685.5 c 128,-1,332
 410 633 410 633 410 625 c 2,333,-1
 410 477 l 2,334,335
 410 456 410 456 429.5 443.5 c 128,-1,336
 449 431 449 431 470.5 427.5 c 128,-1,337
 492 424 492 424 525 421 c 128,-1,338
 558 418 558 418 566 416 c 0,339,340
 582 412 582 412 592 412 c 0,341,342
 625 412 625 412 682 440 c 1,343,-1
 691 424 l 1,344,345
 580 371 580 371 580 311 c 2,346,-1
 580 266 l 2,347,348
 580 233 580 233 625 160 c 1,349,-1
 615 154 l 1,0,1
1308 1265 m 2,350,351
 1309 1263 1309 1263 1309 1262 c 2,352,-1
 1308 1265 l 2,350,351
EndSplineSet
EndChar

StartChar: O
Encoding: 79 79 52
Width: 1285
GlyphClass: 2
Flags: W
LayerCount: 2
Fore
SplineSet
908 520 m 1,0,1
 914 525 914 525 916.5 555 c 128,-1,2
 919 585 919 585 929 592 c 1,3,4
 936 606 936 606 941.5 644 c 128,-1,5
 947 682 947 682 960 700 c 0,6,7
 966 708 966 708 966 715 c 2,8,-1
 966 942 l 2,9,10
 966 1067 966 1067 900 1067 c 0,11,12
 878 1067 878 1067 863 1065 c 1,13,-1
 859 1090 l 1,14,15
 906 1097 906 1097 919.5 1106.5 c 128,-1,16
 933 1116 933 1116 935 1135 c 1,17,18
 933 1140 933 1140 921.5 1153 c 128,-1,19
 910 1166 910 1166 910 1184 c 0,20,21
 910 1187 910 1187 911 1197.5 c 128,-1,22
 912 1208 912 1208 912 1212 c 0,23,24
 912 1221 912 1221 906 1227 c 0,25,26
 882 1254 882 1254 849.5 1320.5 c 128,-1,27
 817 1387 817 1387 792 1415 c 1,28,29
 770 1403 770 1403 765 1348 c 1,30,-1
 722 1352 l 1,31,32
 724 1362 724 1362 724 1384 c 0,33,34
 724 1448 724 1448 644 1448 c 0,35,36
 635 1448 635 1448 593.5 1431.5 c 128,-1,37
 552 1415 552 1415 548 1411 c 0,38,39
 547 1409 547 1409 538 1393 c 128,-1,40
 529 1377 529 1377 524.5 1369 c 128,-1,41
 520 1361 520 1361 515.5 1347.5 c 128,-1,42
 511 1334 511 1334 511 1325 c 0,43,44
 511 1314 511 1314 523.5 1302.5 c 128,-1,45
 536 1291 536 1291 570 1272 c 1,46,-1
 560 1255 l 1,47,48
 510 1282 510 1282 497 1282 c 0,49,50
 481 1282 481 1282 468.5 1263.5 c 128,-1,51
 456 1245 456 1245 448.5 1222.5 c 128,-1,52
 441 1200 441 1200 429 1177.5 c 128,-1,53
 417 1155 417 1155 403 1149 c 1,54,55
 395 1149 395 1149 389.5 1141.5 c 128,-1,56
 384 1134 384 1134 384 1124 c 2,57,-1
 384 1034 l 2,58,59
 384 999 384 999 419.5 911 c 128,-1,60
 455 823 455 823 492 721.5 c 128,-1,61
 529 620 529 620 532 557 c 0,62,63
 532 551 532 551 536 543 c 1,64,-1
 558 514 l 2,65,66
 574 492 574 492 591 492 c 0,67,68
 612 492 612 492 650 514 c 1,69,-1
 669 487 l 1,70,71
 616 456 616 456 616 432 c 0,72,73
 616 419 616 419 624 406 c 0,74,75
 625 404 625 404 627 398 c 128,-1,76
 629 392 629 392 629.5 389.5 c 128,-1,77
 630 387 630 387 632.5 383 c 128,-1,78
 635 379 635 379 638 377.5 c 128,-1,79
 641 376 641 376 645.5 374.5 c 128,-1,80
 650 373 650 373 656 373 c 2,81,-1
 669 373 l 2,82,83
 691 373 691 373 706 360.5 c 128,-1,84
 721 348 721 348 724 348 c 2,85,-1
 779 348 l 2,86,87
 788 348 788 348 790 350 c 2,88,-1
 822 367 l 2,89,90
 824 368 824 368 838 396.5 c 128,-1,91
 852 425 852 425 872 463 c 128,-1,92
 892 501 892 501 908 520 c 1,0,1
552 1620 m 1,93,94
 628 1653 628 1653 663 1653 c 0,95,96
 761 1653 761 1653 866 1585.5 c 128,-1,97
 971 1518 971 1518 1015 1423 c 1,98,99
 1031 1393 1031 1393 1064 1365 c 128,-1,100
 1097 1337 1097 1337 1125 1318.5 c 128,-1,101
 1153 1300 1153 1300 1175 1267.5 c 128,-1,102
 1197 1235 1197 1235 1197 1194 c 0,103,104
 1197 1165 1197 1165 1213 1135.5 c 128,-1,105
 1229 1106 1229 1106 1254 1106 c 0,106,107
 1282 1106 1282 1106 1314 1118 c 1,108,-1
 1322 1094 l 1,109,110
 1277 1079 1277 1079 1263.5 1067.5 c 128,-1,111
 1250 1056 1250 1056 1250 1038 c 0,112,113
 1250 1002 1250 1002 1259.5 933 c 128,-1,114
 1269 864 1269 864 1269 827 c 0,115,116
 1269 762 1269 762 1224.5 651.5 c 128,-1,117
 1180 541 1180 541 1173 496 c 0,118,119
 1171 489 1171 489 1171 481 c 0,120,121
 1171 466 1171 466 1184 453.5 c 128,-1,122
 1197 441 1197 441 1236 422 c 1,123,-1
 1226 401 l 1,124,125
 1180 422 1180 422 1158 422 c 0,126,127
 1143 422 1143 422 1130 406 c 0,128,129
 1126 402 1126 402 1099.5 373 c 128,-1,130
 1073 344 1073 344 1066 336.5 c 128,-1,131
 1059 329 1059 329 1036 305 c 128,-1,132
 1013 281 1013 281 1001.5 269.5 c 128,-1,133
 990 258 990 258 971 238.5 c 128,-1,134
 952 219 952 219 935.5 204 c 128,-1,135
 919 189 919 189 902 174 c 0,136,137
 886 161 886 161 886 145 c 0,138,139
 886 124 886 124 902 80 c 1,140,-1
 882 72 l 1,141,142
 864 120 864 120 852.5 132.5 c 128,-1,143
 841 145 841 145 820 145 c 2,144,-1
 814 145 l 2,145,146
 786 145 786 145 769.5 131.5 c 128,-1,147
 753 118 753 118 736 70 c 1,148,-1
 706 82 l 1,149,150
 720 123 720 123 720 143 c 0,151,152
 720 173 720 173 697 186 c 128,-1,153
 674 199 674 199 645 201 c 128,-1,154
 616 203 616 203 583.5 217.5 c 128,-1,155
 551 232 551 232 536 262 c 0,156,157
 534 267 534 267 525.5 281.5 c 128,-1,158
 517 296 517 296 511.5 309.5 c 128,-1,159
 506 323 506 323 503 336 c 1,160,161
 481 339 481 339 452 348.5 c 128,-1,162
 423 358 423 358 364.5 380.5 c 128,-1,163
 306 403 306 403 271 416 c 1,164,-1
 310 403 l 2,165,166
 322 399 322 399 329 399 c 0,167,168
 347 399 347 399 359.5 411 c 128,-1,169
 372 423 372 423 372 438 c 0,170,171
 372 462 372 462 336.5 498.5 c 128,-1,172
 301 535 301 535 282 535 c 0,173,174
 266 535 266 535 214 514 c 1,175,-1
 206 530 l 1,176,177
 247 549 247 549 261.5 560 c 128,-1,178
 276 571 276 571 278 584 c 1,179,180
 276 591 276 591 263 604 c 1,181,182
 208 646 208 646 204 748 c 0,183,184
 204 758 204 758 198 764 c 1,185,186
 172 784 172 784 153 811.5 c 128,-1,187
 134 839 134 839 125 864 c 128,-1,188
 116 889 116 889 111 925 c 128,-1,189
 106 961 106 961 105 984 c 128,-1,190
 104 1007 104 1007 104 1044 c 0,191,192
 104 1270 104 1270 -1 1337 c 1,193,-1
 85 1468 l 1,194,195
 118 1442 118 1442 183 1442 c 0,196,197
 255 1442 255 1442 304 1460 c 1,198,199
 305 1495 305 1495 321.5 1519.5 c 128,-1,200
 338 1544 338 1544 367 1557.5 c 128,-1,201
 396 1571 396 1571 426 1579 c 128,-1,202
 456 1587 456 1587 492.5 1597.5 c 128,-1,203
 529 1608 529 1608 552 1620 c 1,93,94
271 416 m 1,204,-1
 265 418 l 1,205,206
 269 418 269 418 271 416 c 1,204,-1
EndSplineSet
EndChar

StartChar: P
Encoding: 80 80 53
Width: 1415
GlyphClass: 2
Flags: W
LayerCount: 2
Fore
SplineSet
833 1026 m 1,0,-1
 909 1106 l 1,1,-1
 917 1106 l 1,2,3
 917 1107 917 1107 916 1109 c 128,-1,4
 915 1111 915 1111 915 1112 c 0,5,6
 985 1189 985 1189 1016 1227 c 1,7,-1
 915 1128 l 1,8,9
 917 1140 917 1140 930 1159 c 2,10,-1
 993 1260 l 2,11,12
 995 1264 995 1264 995 1272 c 0,13,14
 995 1285 995 1285 982 1318 c 128,-1,15
 969 1351 969 1351 964 1354 c 0,16,17
 952 1363 952 1363 896 1449.5 c 128,-1,18
 840 1536 840 1536 821 1536 c 0,19,20
 806 1536 806 1536 783 1531 c 128,-1,21
 760 1526 760 1526 751 1526 c 0,22,23
 725 1526 725 1526 706 1528 c 1,24,25
 693 1528 693 1528 683.5 1518.5 c 128,-1,26
 674 1509 674 1509 674 1495 c 2,27,-1
 674 1069 l 2,28,29
 674 1060 674 1060 659.5 1041 c 128,-1,30
 645 1022 645 1022 645 1012 c 0,31,32
 645 983 645 983 713 983 c 0,33,34
 795 983 795 983 833 1026 c 1,0,-1
653 55 m 1,35,36
 640 55 640 55 627 41 c 128,-1,37
 614 27 614 27 614 14 c 0,38,39
 614 -8 614 -8 637 -53 c 1,40,-1
 614 -61 l 1,41,42
 597 -20 597 -20 584.5 -7 c 128,-1,43
 572 6 572 6 555 6 c 0,44,45
 522 6 522 6 502.5 4.5 c 128,-1,46
 483 3 483 3 455 -4.5 c 128,-1,47
 427 -12 427 -12 408 -26 c 128,-1,48
 389 -40 389 -40 368 -67.5 c 128,-1,49
 347 -95 347 -95 330 -135 c 1,50,-1
 319 -129 l 1,51,52
 348 -65 348 -65 348 -33 c 0,53,54
 348 -17 348 -17 344 11.5 c 128,-1,55
 340 40 340 40 340 55 c 0,56,57
 340 86 340 86 352.5 115 c 128,-1,58
 365 144 365 144 389 154 c 0,59,60
 414 165 414 165 414 180 c 2,61,-1
 414 483 l 2,62,63
 414 512 414 512 387 560.5 c 128,-1,64
 360 609 360 609 360 637 c 0,65,66
 360 702 360 702 303 1088.5 c 128,-1,67
 246 1475 246 1475 231 1481 c 1,68,-1
 166 1524 l 1,69,70
 158 1528 158 1528 151 1528 c 2,71,-1
 84 1528 l 2,72,73
 64 1528 64 1528 46 1517.5 c 128,-1,74
 28 1507 28 1507 -10 1470 c 1,75,-1
 -21 1481 l 1,76,77
 16 1519 16 1519 26.5 1537 c 128,-1,78
 37 1555 37 1555 37 1575 c 2,79,-1
 37 1587 l 2,80,81
 37 1606 37 1606 25 1619 c 128,-1,82
 13 1632 13 1632 -33 1657 c 1,83,-1
 -25 1673 l 1,84,85
 30 1645 30 1645 49 1645 c 0,86,87
 56 1645 56 1645 76 1655 c 1,88,89
 92 1665 92 1665 92 1686 c 0,90,91
 92 1704 92 1704 80 1747 c 1,92,-1
 100 1753 l 1,93,94
 110 1718 110 1718 118.5 1701.5 c 128,-1,95
 127 1685 127 1685 133.5 1681.5 c 128,-1,96
 140 1678 140 1678 153 1677 c 1,97,98
 226 1677 226 1677 258.5 1693 c 128,-1,99
 291 1709 291 1709 291 1747 c 0,100,101
 291 1765 291 1765 289 1778 c 1,102,-1
 325 1782 l 1,103,104
 331 1731 331 1731 344 1718.5 c 128,-1,105
 357 1706 357 1706 389 1706 c 2,106,-1
 584 1706 l 2,107,108
 590 1706 590 1706 631 1729 c 128,-1,109
 672 1752 672 1752 694 1755 c 0,110,111
 701 1756 701 1756 703 1757.5 c 128,-1,112
 705 1759 705 1759 707.5 1766 c 128,-1,113
 710 1773 710 1773 710 1788 c 0,114,115
 710 1812 710 1812 708 1833 c 1,116,-1
 721 1833 l 1,117,118
 726 1762 726 1762 735 1759 c 1,119,-1
 747 1759 l 2,120,121
 781 1759 781 1759 798 1773.5 c 128,-1,122
 815 1788 815 1788 825 1835 c 1,123,-1
 874 1823 l 1,124,125
 868 1798 868 1798 868 1784 c 0,126,127
 868 1749 868 1749 890 1731 c 128,-1,128
 912 1713 912 1713 945.5 1710.5 c 128,-1,129
 979 1708 979 1708 1018.5 1707 c 128,-1,130
 1058 1706 1058 1706 1093 1704.5 c 128,-1,131
 1128 1703 1128 1703 1154.5 1687 c 128,-1,132
 1181 1671 1181 1671 1186 1638 c 1,133,134
 1186 1615 1186 1615 1252.5 1526.5 c 128,-1,135
 1319 1438 1319 1438 1333 1438 c 0,136,137
 1346 1438 1346 1438 1401 1456 c 1,138,-1
 1405 1444 l 1,139,140
 1356 1425 1356 1425 1344.5 1416 c 128,-1,141
 1333 1407 1333 1407 1333 1393 c 2,142,-1
 1333 1362 l 2,143,144
 1333 1186 1333 1186 1247 1031.5 c 128,-1,145
 1161 877 1161 877 1009 799 c 1,146,147
 1000 796 1000 796 997 788 c 1,148,149
 981 761 981 761 962.5 745.5 c 128,-1,150
 944 730 944 730 926.5 722.5 c 128,-1,151
 909 715 909 715 877.5 687 c 128,-1,152
 846 659 846 659 811 612 c 1,153,-1
 807 616 l 1,154,155
 859 683 859 683 868 711 c 1,156,-1
 880 741 l 1,157,158
 883 745 883 745 883 756 c 0,159,160
 883 772 883 772 872 781.5 c 128,-1,161
 861 791 861 791 844 791 c 2,162,-1
 829 791 l 2,163,164
 810 791 810 791 766.5 797 c 128,-1,165
 723 803 723 803 702 803 c 0,166,167
 675 803 675 803 672 772 c 0,168,169
 669 744 669 744 653 651 c 128,-1,170
 637 558 637 558 637 508 c 0,171,172
 637 436 637 436 655 388 c 128,-1,173
 673 340 673 340 710 340 c 0,174,175
 717 340 717 340 745 344 c 1,176,-1
 747 328 l 1,177,-1
 751 328 l 1,178,-1
 747 317 l 1,179,-1
 749 313 l 1,180,-1
 747 313 l 1,181,182
 737 270 737 270 737 256 c 0,183,184
 737 239 737 239 749 223 c 1,185,-1
 749 221 l 1,186,187
 756 207 756 207 770 207 c 128,-1,188
 784 207 784 207 833 227 c 1,189,-1
 842 211 l 1,190,191
 803 193 803 193 790.5 183.5 c 128,-1,192
 778 174 778 174 778 164 c 0,193,194
 778 133 778 133 801.5 103.5 c 128,-1,195
 825 74 825 74 893 41 c 1,196,-1
 887 25 l 1,197,198
 818 57 818 57 786 57 c 0,199,200
 775 57 775 57 752.5 54 c 128,-1,201
 730 51 730 51 719 51 c 0,202,203
 691 51 691 51 653 55 c 1,35,36
EndSplineSet
EndChar

